    <svg width='20' height='20' viewBox='0 0 20 20' fill='none' xmlns='http://www.w3.org/2000/svg'>
      <path fill-rule="evenodd" clip-rule="evenodd" d="M3.5 10C3.5 9.58579 3.83579 9.25 4.25 9.25L13.9396 9.25L11.2197 6.53036C10.9268 6.23748 10.9268 5.7626 11.2196 5.4697C11.5125 5.17679 11.9874 5.17676 12.2803 5.46964L16.2807 9.46964C16.4214 9.6103 16.5004 9.80107 16.5004 10C16.5004 10.1989 16.4214 10.3897 16.2807 10.5304L12.2803 14.5304C11.9874 14.8232 11.5125 14.8232 11.2196 14.5303C10.9268 14.2374 10.9268 13.7625 11.2197 13.4696L13.9396 10.75L4.25 10.75C3.83579 10.75 3.5 10.4142 3.5 10Z" fill="#000000" />
    </svg>