<svg width="100" height="100" viewBox="0 0 100 100" fill="none" xmlns="http://www.w3.org/2000/svg">
<path d="M49.9995 2.23242L64.4118 18.9735H35.5871L49.9995 2.23242Z" fill="url(#paint0_linear_86834_1261)"/>
<path d="M50.0005 97.7676L35.5882 81.0265L64.4129 81.0265L50.0005 97.7676Z" fill="url(#paint1_linear_86834_1261)"/>
<g filter="url(#filter0_f_86834_1261)">
<path d="M49.6039 6.51855L51.2736 11.5577L56.3506 13.215L51.2736 14.8723L49.6039 19.9114L47.9342 14.8723L42.8572 13.215L47.9342 11.5577L49.6039 6.51855Z" fill="white" fill-opacity="0.62"/>
<path d="M49.6039 6.66995L51.2284 11.5727L51.236 11.5955L51.2589 11.603L56.1972 13.215L51.2589 14.827L51.236 14.8345L51.2284 14.8573L49.6039 19.76L47.9794 14.8573L47.9718 14.8345L47.949 14.827L43.0106 13.215L47.949 11.603L47.9718 11.5955L47.9794 11.5727L49.6039 6.66995Z" stroke="#FFC886" stroke-width="0.0952382"/>
</g>
<path d="M91.679 73.884L69.8658 77.9019L84.2781 53.125L91.679 73.884Z" fill="url(#paint2_linear_86834_1261)"/>
<path d="M8.32096 26.116L30.1342 22.0981L15.7219 46.875L8.32096 26.116Z" fill="url(#paint3_linear_86834_1261)"/>
<path d="M91.6785 26.1159L84.2776 46.8749L69.8653 22.0981L91.6785 26.1159Z" fill="url(#paint4_linear_86834_1261)"/>
<path d="M8.3215 73.8836L15.7224 53.1246L30.1347 77.9014L8.3215 73.8836Z" fill="url(#paint5_linear_86834_1261)"/>
<path d="M13.9043 81.7689C14.742 79.2269 20.1873 76.2693 23.2123 75.1426L27.9375 83.4997L40.5674 86.2855C38.9943 86.2855 25.6014 92.5197 19.8033 95.5712V86.1895C16.9221 84.1188 13.9043 81.7689 13.9043 81.7689Z" fill="#FFD12E"/>
<path d="M86.8767 81.7689C86.039 79.2269 80.5937 76.2693 77.5687 75.1426L72.8435 83.4997L59.2781 86.2855C60.8512 86.2855 75.1796 92.5197 80.9777 95.5712V86.1895C83.859 84.1188 86.8767 81.7689 86.8767 81.7689Z" fill="#FFD12E"/>
<path d="M34.954 79.7861L40.5672 86.2861L27.9374 83.5004L34.954 79.7861Z" fill="#DE7123"/>
<path d="M65.3599 79.7861L59.2788 86.2861L72.8442 83.5004L65.3599 79.7861Z" fill="#DE7123"/>
<path d="M87.0938 49.5535C87.0938 69.6379 70.6895 85.9226 50.4498 85.9226C30.2102 85.9226 13.8058 69.6379 13.8058 49.5535C13.8058 29.4691 30.2102 13.1844 50.4498 13.1844C70.6895 13.1844 87.0938 29.4691 87.0938 49.5535Z" fill="url(#paint6_linear_86834_1261)" stroke="url(#paint7_linear_86834_1261)" stroke-width="0.476191"/>
<g filter="url(#filter1_i_86834_1261)">
<ellipse cx="50.4497" cy="49.554" rx="32.3843" ry="32.1429" fill="url(#paint8_linear_86834_1261)"/>
</g>
<g filter="url(#filter2_ii_86834_1261)">
<ellipse cx="50.7369" cy="49.5533" rx="26.9869" ry="26.7858" fill="url(#paint9_linear_86834_1261)"/>
</g>
<g filter="url(#filter3_d_86834_1261)">
<path d="M50.625 29L58.2087 42.0413L71.25 49.625L58.2087 57.2087L50.625 70.25L43.0413 57.2087L30 49.625L43.0413 42.0413L50.625 29Z" fill="url(#paint10_linear_86834_1261)"/>
<path d="M50.625 49.625V29L58.1875 42.0625L50.625 49.625Z" fill="url(#paint11_linear_86834_1261)"/>
<path d="M50.5564 49.625V70.25L42.9939 57.1875L50.5564 49.625Z" fill="url(#paint12_linear_86834_1261)"/>
<path d="M71.25 49.625L50.625 49.625L58.1875 57.1967L71.25 49.625Z" fill="url(#paint13_linear_86834_1261)"/>
<path d="M30 49.6343L50.625 49.6343L43.0625 42.0625L30 49.6343Z" fill="url(#paint14_linear_86834_1261)"/>
</g>
<g filter="url(#filter4_d_86834_1261)">
<path d="M20.4526 71.6404L27.937 83.5C48.0512 72.8214 67.2299 80.7143 72.8432 83.5L80.3276 71.6404C78.1874 69.1867 69.2186 64.2247 50.4648 64.0066C31.7109 63.7885 22.6426 69.0049 20.4526 71.6404Z" fill="url(#paint15_linear_86834_1261)"/>
</g>
<path d="M36.0562 26.3394L36.7241 28.355L38.7549 29.0179L36.7241 29.6808L36.0562 31.6965L35.3883 29.6808L33.3575 29.0179L35.3883 28.355L36.0562 26.3394Z" fill="white"/>
<path d="M27.9604 17.4111L29.5188 22.1143L34.2573 23.6611L29.5188 25.2079L27.9604 29.9112L26.402 25.2079L21.6635 23.6611L26.402 22.1143L27.9604 17.4111Z" fill="white"/>
<defs>
<filter id="filter0_f_86834_1261" x="40.4762" y="4.1376" width="18.2554" height="18.155" filterUnits="userSpaceOnUse" color-interpolation-filters="sRGB">
<feFlood flood-opacity="0" result="BackgroundImageFix"/>
<feBlend mode="normal" in="SourceGraphic" in2="BackgroundImageFix" result="shape"/>
<feGaussianBlur stdDeviation="1.19048" result="effect1_foregroundBlur_86834_1261"/>
</filter>
<filter id="filter1_i_86834_1261" x="18.0654" y="16.4588" width="64.7686" height="65.238" filterUnits="userSpaceOnUse" color-interpolation-filters="sRGB">
<feFlood flood-opacity="0" result="BackgroundImageFix"/>
<feBlend mode="normal" in="SourceGraphic" in2="BackgroundImageFix" result="shape"/>
<feColorMatrix in="SourceAlpha" type="matrix" values="0 0 0 0 0 0 0 0 0 0 0 0 0 0 0 0 0 0 127 0" result="hardAlpha"/>
<feOffset dy="-0.952382"/>
<feGaussianBlur stdDeviation="0.952382"/>
<feComposite in2="hardAlpha" operator="arithmetic" k2="-1" k3="1"/>
<feColorMatrix type="matrix" values="0 0 0 0 0 0 0 0 0 0.172667 0 0 0 0 0.616667 0 0 0 0.15 0"/>
<feBlend mode="normal" in2="shape" result="effect1_innerShadow_86834_1261"/>
</filter>
<filter id="filter2_ii_86834_1261" x="23.75" y="21.8152" width="53.9738" height="55.4761" filterUnits="userSpaceOnUse" color-interpolation-filters="sRGB">
<feFlood flood-opacity="0" result="BackgroundImageFix"/>
<feBlend mode="normal" in="SourceGraphic" in2="BackgroundImageFix" result="shape"/>
<feColorMatrix in="SourceAlpha" type="matrix" values="0 0 0 0 0 0 0 0 0 0 0 0 0 0 0 0 0 0 127 0" result="hardAlpha"/>
<feOffset dy="0.952382"/>
<feGaussianBlur stdDeviation="2.38095"/>
<feComposite in2="hardAlpha" operator="arithmetic" k2="-1" k3="1"/>
<feColorMatrix type="matrix" values="0 0 0 0 0.4875 0 0 0 0 0.1755 0 0 0 0 0 0 0 0 1 0"/>
<feBlend mode="normal" in2="shape" result="effect1_innerShadow_86834_1261"/>
<feColorMatrix in="SourceAlpha" type="matrix" values="0 0 0 0 0 0 0 0 0 0 0 0 0 0 0 0 0 0 127 0" result="hardAlpha"/>
<feOffset dy="-0.952382"/>
<feGaussianBlur stdDeviation="2.38095"/>
<feComposite in2="hardAlpha" operator="arithmetic" k2="-1" k3="1"/>
<feColorMatrix type="matrix" values="0 0 0 0 1 0 0 0 0 0.716167 0 0 0 0 0.454167 0 0 0 1 0"/>
<feBlend mode="normal" in2="effect1_innerShadow_86834_1261" result="effect2_innerShadow_86834_1261"/>
</filter>
<filter id="filter3_d_86834_1261" x="28" y="28" width="45.25" height="45.25" filterUnits="userSpaceOnUse" color-interpolation-filters="sRGB">
<feFlood flood-opacity="0" result="BackgroundImageFix"/>
<feColorMatrix in="SourceAlpha" type="matrix" values="0 0 0 0 0 0 0 0 0 0 0 0 0 0 0 0 0 0 127 0" result="hardAlpha"/>
<feOffset dy="1"/>
<feGaussianBlur stdDeviation="1"/>
<feComposite in2="hardAlpha" operator="out"/>
<feColorMatrix type="matrix" values="0 0 0 0 0.495833 0 0 0 0 0.280902 0 0 0 0 0.126024 0 0 0 1 0"/>
<feBlend mode="normal" in2="BackgroundImageFix" result="effect1_dropShadow_86834_1261"/>
<feBlend mode="normal" in="SourceGraphic" in2="effect1_dropShadow_86834_1261" result="shape"/>
</filter>
<filter id="filter4_d_86834_1261" x="10.5479" y="59.0476" width="79.6845" height="39.3095" filterUnits="userSpaceOnUse" color-interpolation-filters="sRGB">
<feFlood flood-opacity="0" result="BackgroundImageFix"/>
<feColorMatrix in="SourceAlpha" type="matrix" values="0 0 0 0 0 0 0 0 0 0 0 0 0 0 0 0 0 0 127 0" result="hardAlpha"/>
<feOffset dy="4.95238"/>
<feGaussianBlur stdDeviation="4.95238"/>
<feComposite in2="hardAlpha" operator="out"/>
<feColorMatrix type="matrix" values="0 0 0 0 0 0 0 0 0 0 0 0 0 0 0 0 0 0 0.3 0"/>
<feBlend mode="normal" in2="BackgroundImageFix" result="effect1_dropShadow_86834_1261"/>
<feBlend mode="normal" in="SourceGraphic" in2="effect1_dropShadow_86834_1261" result="shape"/>
</filter>
<linearGradient id="paint0_linear_86834_1261" x1="44.0084" y1="8.92886" x2="55.9906" y2="8.92886" gradientUnits="userSpaceOnUse">
<stop offset="0.488759" stop-color="#FFC786"/>
<stop offset="0.488859" stop-color="#D1E5EE"/>
<stop offset="0.488959" stop-color="#D18E5C"/>
</linearGradient>
<linearGradient id="paint1_linear_86834_1261" x1="55.9916" y1="91.0711" x2="44.0094" y2="91.0711" gradientUnits="userSpaceOnUse">
<stop offset="0.488759" stop-color="#FFC786"/>
<stop offset="0.488859" stop-color="#D1E5EE"/>
<stop offset="0.488959" stop-color="#D18E5C"/>
</linearGradient>
<linearGradient id="paint2_linear_86834_1261" x1="88.8317" y1="65.386" x2="82.9076" y2="75.7239" gradientUnits="userSpaceOnUse">
<stop offset="0.488759" stop-color="#FFC786"/>
<stop offset="0.488859" stop-color="#D1E5EE"/>
<stop offset="0.488959" stop-color="#D18E5C"/>
</linearGradient>
<linearGradient id="paint3_linear_86834_1261" x1="11.1683" y1="34.614" x2="17.0924" y2="24.2761" gradientUnits="userSpaceOnUse">
<stop offset="0.488759" stop-color="#FFC786"/>
<stop offset="0.488859" stop-color="#D1E5EE"/>
<stop offset="0.488959" stop-color="#D18E5C"/>
</linearGradient>
<linearGradient id="paint4_linear_86834_1261" x1="82.8401" y1="24.3144" x2="88.7642" y2="34.6523" gradientUnits="userSpaceOnUse">
<stop offset="0.488759" stop-color="#FFC786"/>
<stop offset="0.488859" stop-color="#D1E5EE"/>
<stop offset="0.488959" stop-color="#D18E5C"/>
</linearGradient>
<linearGradient id="paint5_linear_86834_1261" x1="17.1599" y1="75.6851" x2="11.2358" y2="65.3472" gradientUnits="userSpaceOnUse">
<stop offset="0.488759" stop-color="#FFC786"/>
<stop offset="0.488859" stop-color="#D1E5EE"/>
<stop offset="0.488959" stop-color="#D18E5C"/>
</linearGradient>
<linearGradient id="paint6_linear_86834_1261" x1="26.8075" y1="22.3327" x2="75.576" y2="77.1369" gradientUnits="userSpaceOnUse">
<stop stop-color="#FFC887"/>
<stop offset="0.520833" stop-color="#FFE7CB"/>
<stop offset="1" stop-color="#B45612"/>
</linearGradient>
<linearGradient id="paint7_linear_86834_1261" x1="50.4498" y1="12.9463" x2="50.4498" y2="86.1607" gradientUnits="userSpaceOnUse">
<stop stop-color="white" stop-opacity="0.5"/>
<stop offset="1" stop-color="white" stop-opacity="0"/>
</linearGradient>
<linearGradient id="paint8_linear_86834_1261" x1="29.7598" y1="25.0004" x2="70.7732" y2="74.8556" gradientUnits="userSpaceOnUse">
<stop stop-color="#D28E5D"/>
<stop offset="1" stop-color="#FFC887"/>
</linearGradient>
<linearGradient id="paint9_linear_86834_1261" x1="32.8779" y1="27.4945" x2="54.8276" y2="76.4623" gradientUnits="userSpaceOnUse">
<stop stop-color="#FFCD92"/>
<stop offset="0.484375" stop-color="#D88335"/>
<stop offset="1" stop-color="#9C5A2A"/>
</linearGradient>
<linearGradient id="paint10_linear_86834_1261" x1="60.9375" y1="69.5625" x2="37.4479" y2="25.5625" gradientUnits="userSpaceOnUse">
<stop offset="0.0989583" stop-color="#D38F5E"/>
<stop offset="0.526042" stop-color="#FFDBB0"/>
<stop offset="1" stop-color="#D38F5E"/>
</linearGradient>
<linearGradient id="paint11_linear_86834_1261" x1="50.625" y1="42.0625" x2="58.1875" y2="42.0625" gradientUnits="userSpaceOnUse">
<stop stop-color="#D38F5F"/>
<stop offset="1" stop-color="#F2AE7B"/>
</linearGradient>
<linearGradient id="paint12_linear_86834_1261" x1="50.5564" y1="57.1875" x2="42.9939" y2="57.1875" gradientUnits="userSpaceOnUse">
<stop stop-color="#D38F5F"/>
<stop offset="1" stop-color="#F2AE7B"/>
</linearGradient>
<linearGradient id="paint13_linear_86834_1261" x1="63.6016" y1="49.7109" x2="63.6016" y2="57.2734" gradientUnits="userSpaceOnUse">
<stop stop-color="#D38F5F"/>
<stop offset="1" stop-color="#F2AE7B"/>
</linearGradient>
<linearGradient id="paint14_linear_86834_1261" x1="37.6484" y1="49.5483" x2="37.6484" y2="41.9858" gradientUnits="userSpaceOnUse">
<stop stop-color="#D38F5F"/>
<stop offset="1" stop-color="#F2AE7B"/>
</linearGradient>
<linearGradient id="paint15_linear_86834_1261" x1="23.6563" y1="75.2735" x2="77.5648" y2="74.6727" gradientUnits="userSpaceOnUse">
<stop stop-color="#FFA02E"/>
<stop offset="1" stop-color="#EEC32B"/>
</linearGradient>
</defs>
</svg>
