<svg width="16" height="16" viewBox="0 0 16 16" fill="none" xmlns="http://www.w3.org/2000/svg">
<g clip-path="url(#clip0_88469_1097)">
<path fill-rule="evenodd" clip-rule="evenodd" d="M11.3499 1.5C11.3499 1.08579 11.0141 0.75 10.5999 0.75C10.1856 0.75 9.84985 1.08579 9.84985 1.5V2.0498H6.15015V1.5C6.15015 1.08579 5.81436 0.75 5.40015 0.75C4.98593 0.75 4.65015 1.08579 4.65015 1.5V2.0498H2.80024C1.66806 2.0498 0.750244 2.96762 0.750244 4.0998V13.1998C0.750244 14.332 1.66806 15.2498 2.80024 15.2498H13.2002C14.3324 15.2498 15.2502 14.332 15.2502 13.1998V4.0998C15.2502 2.96762 14.3324 2.0498 13.2002 2.0498H11.3499V1.5ZM4.65015 3.5498H2.80024C2.49649 3.5498 2.25024 3.79605 2.25024 4.0998V5.9502H13.7502V4.0998C13.7502 3.79605 13.504 3.5498 13.2002 3.5498H11.3499V4.1C11.3499 4.51421 11.0141 4.85 10.5999 4.85C10.1856 4.85 9.84985 4.51421 9.84985 4.1V3.5498H6.15015V4.1C6.15015 4.51421 5.81436 4.85 5.40015 4.85C4.98593 4.85 4.65015 4.51421 4.65015 4.1V3.5498ZM2.25024 7.4502H13.7502V13.1998C13.7502 13.5036 13.504 13.7498 13.2002 13.7498H2.80024C2.49649 13.7498 2.25024 13.5036 2.25024 13.1998V7.4502Z" fill="#000000"/>
</g>
<defs>
<clipPath id="clip0_88469_1097">
<rect width="16" height="16" fill="white"/>
</clipPath>
</defs>
</svg>
