<svg width="13" height="13" viewBox="0 0 13 13" fill="none" xmlns="http://www.w3.org/2000/svg">
<path fill-rule="evenodd" clip-rule="evenodd" d="M4.0287 0.500003C3.59155 0.499442 3.15859 0.585131 2.7546 0.752163C2.35062 0.919194 1.98356 1.16429 1.67445 1.4734C1.36534 1.78251 1.12024 2.14957 0.953213 2.55355C0.786181 2.95754 0.700492 3.3905 0.701053 3.82765V9.17235C0.701053 10.0549 1.05164 10.9013 1.6757 11.5254C2.29976 12.1494 3.14616 12.5 4.0287 12.5H9.3734C10.2551 12.4998 11.1008 12.1497 11.7247 11.5266C12.3485 10.9035 12.6997 10.0584 12.7011 9.17661V3.82765C12.6999 2.94658 12.3494 2.10192 11.7264 1.47891C11.1034 0.855895 10.2587 0.505391 9.37766 0.504263L4.0287 0.500003ZM6.70105 10.5C7.49803 10.4995 8.27673 10.2612 8.93753 9.81568C9.59833 9.37014 10.1112 8.73758 10.4105 7.99894H8.52125C8.18555 8.40174 7.73167 8.68877 7.22385 8.81938C6.71603 8.95 6.17999 8.9176 5.6916 8.72676C5.20321 8.53592 4.78721 8.19631 4.50248 7.756C4.21774 7.31569 4.07871 6.79698 4.10504 6.27329C4.13137 5.7496 4.32174 5.24746 4.64921 4.83793C4.97667 4.42841 5.42464 4.13224 5.92971 3.99136C6.43478 3.85047 6.97137 3.872 7.46353 4.05291C7.95568 4.23381 8.37848 4.56491 8.67208 4.99936H10.4105C10.1385 4.32626 9.68846 3.73985 9.10865 3.30297C8.52883 2.86609 7.84107 2.5952 7.11906 2.51935C6.39705 2.44349 5.66801 2.56552 5.01006 2.87235C4.35211 3.17919 3.79004 3.65927 3.3841 4.26115C2.97815 4.86303 2.74362 5.56402 2.70565 6.28901C2.66767 7.014 2.82767 7.73565 3.16851 8.37665C3.50935 9.01765 4.01818 9.55383 4.64047 9.92773C5.26277 10.3016 5.97507 10.4992 6.70105 10.4992V10.5Z" fill="#202223"/>
</svg>
