<svg width="20" height="20" viewBox="0 0 20 20" fill="none" xmlns="http://www.w3.org/2000/svg">
<path fill-rule="evenodd" clip-rule="evenodd" d="M10 2.75C5.99594 2.75 2.75 5.99594 2.75 10C2.75 14.0041 5.99594 17.25 10 17.25C14.0041 17.25 17.25 14.0041 17.25 10C17.25 5.99594 14.0041 2.75 10 2.75ZM1.25 10C1.25 5.16751 5.16751 1.25 10 1.25C14.8325 1.25 18.75 5.16751 18.75 10C18.75 14.8325 14.8325 18.75 10 18.75C5.16751 18.75 1.25 14.8325 1.25 10ZM9.9998 6.39253C10.414 6.39253 10.7498 6.72832 10.7498 7.14253V9.25004H12.8573C13.2716 9.25004 13.6073 9.58583 13.6073 10C13.6073 10.4143 13.2716 10.75 12.8573 10.75H10.7498V12.8575C10.7498 13.2717 10.414 13.6075 9.9998 13.6075C9.58559 13.6075 9.2498 13.2717 9.2498 12.8575V10.75H7.14241C6.7282 10.75 6.39241 10.4143 6.39241 10C6.39241 9.58583 6.7282 9.25004 7.14241 9.25004H9.2498V7.14253C9.2498 6.72832 9.58559 6.39253 9.9998 6.39253Z" fill="#000000"/>
</svg>
