<svg width="16" height="16" viewBox="0 0 16 16" fill="none" xmlns="http://www.w3.org/2000/svg">
<g opacity="0.2">
<path fill-rule="evenodd" clip-rule="evenodd" d="M3.7368 3.73619C4.05238 3.42062 4.56403 3.42062 4.87961 3.73619L8.00012 6.85671L11.1206 3.73619C11.4362 3.42062 11.9479 3.42062 12.2634 3.73619C12.579 4.05177 12.579 4.56342 12.2634 4.879L9.14291 7.99952L12.2635 11.1202C12.579 11.4358 12.579 11.9474 12.2634 12.263C11.9478 12.5785 11.4362 12.5785 11.1206 12.263L8.00012 9.14234L4.87962 12.263C4.56405 12.5785 4.0524 12.5785 3.73682 12.263C3.42123 11.9474 3.42122 11.4358 3.73679 11.1202L6.85733 7.99952L3.7368 4.879C3.42123 4.56342 3.42123 4.05177 3.7368 3.73619Z" fill="#000000"/>
</g>
</svg>
