<svg width="20" height="20" viewBox="0 0 20 20" fill="none" xmlns="http://www.w3.org/2000/svg">
<path fill-rule="evenodd" clip-rule="evenodd" d="M4.25773 4.25737C4.60921 3.9059 5.17905 3.9059 5.53053 4.25737L10.0001 8.72691L14.4696 4.25737C14.8211 3.9059 15.3909 3.9059 15.7424 4.25737C16.0939 4.60884 16.0939 5.17869 15.7424 5.53016L11.2728 9.99971L15.7424 14.4694C16.0939 14.8209 16.0939 15.3908 15.7424 15.7422C15.3909 16.0937 14.8211 16.0937 14.4696 15.7422L10.0001 11.2725L5.53054 15.7422C5.17907 16.0937 4.60922 16.0937 4.25775 15.7422C3.90627 15.3908 3.90626 14.8209 4.25772 14.4694L8.72728 9.99971L4.25773 5.53016C3.90626 5.17869 3.90626 4.60884 4.25773 4.25737Z" fill="#000000"/>
</svg>
