<svg width="20" height="20" viewBox="0 0 20 20" fill="none" xmlns="http://www.w3.org/2000/svg">
<path fill-rule="evenodd" clip-rule="evenodd" d="M4.88193 4.88131C4.96632 4.79692 5.08078 4.74951 5.20013 4.74951H10.6001C10.7195 4.74951 10.834 4.79692 10.9183 4.88131C11.0027 4.96571 11.0502 5.08017 11.0502 5.19952V5.79952C11.0502 6.21373 11.3859 6.54952 11.8002 6.54952C12.2144 6.54952 12.5502 6.21373 12.5502 5.79952V5.19952C12.5502 4.68234 12.3447 4.18635 11.979 3.82065C11.6133 3.45496 11.1173 3.24951 10.6001 3.24951H5.20013C4.68295 3.24951 4.18696 3.45496 3.82127 3.82065C3.45557 4.18635 3.25012 4.68234 3.25012 5.19952V10.5995C3.25012 11.1167 3.45557 11.6127 3.82127 11.9784C4.18696 12.3441 4.68295 12.5495 5.20013 12.5495H5.80013C6.21434 12.5495 6.55013 12.2138 6.55013 11.7995C6.55013 11.3853 6.21434 11.0495 5.80013 11.0495H5.20013C5.08078 11.0495 4.96632 11.0021 4.88193 10.9177C4.79753 10.8333 4.75012 10.7189 4.75012 10.5995V5.19952C4.75012 5.08017 4.79753 4.96571 4.88193 4.88131ZM8.95007 9.39996C8.95007 9.15142 9.15155 8.94995 9.40008 8.94995H14.8001C15.0486 8.94995 15.2501 9.15142 15.2501 9.39996V14.8C15.2501 15.0485 15.0486 15.25 14.8001 15.25H9.40008C9.15155 15.25 8.95007 15.0485 8.95007 14.8V9.39996ZM9.40008 7.44995C8.32312 7.44995 7.45007 8.323 7.45007 9.39996V14.8C7.45007 15.8769 8.32312 16.75 9.40008 16.75H14.8001C15.8771 16.75 16.7501 15.8769 16.7501 14.8V9.39996C16.7501 8.323 15.8771 7.44995 14.8001 7.44995H9.40008Z" fill="#000000"/>
</svg>
