<svg width="100" height="100" viewBox="0 0 100 100" fill="none" xmlns="http://www.w3.org/2000/svg">
<path fill-rule="evenodd" clip-rule="evenodd" d="M56.4021 51.1021C57.7869 54.2006 58.7759 56.3215 59.3675 57.4659C60.2022 59.0787 60.9479 60.3332 61.6047 61.2301C65.973 67.1958 69.1774 71.7866 69.5681 72.8285C70.4277 75.1195 62.6141 72.7163 60.9757 72.8821C59.3373 73.0479 58.085 79.8384 56.3784 80.0111C55.5251 80.0975 53.9168 75.329 51.5508 65.706C51.0235 63.5622 50.1484 59.801 48.925 54.4262L56.4021 51.1021Z" fill="#C1B7F7"/>
<path fill-rule="evenodd" clip-rule="evenodd" d="M44.4561 53.1021C43.0713 56.2006 42.0823 58.3215 41.4908 59.4659C40.656 61.0787 39.9103 62.3332 39.2535 63.2301C34.8852 69.1958 31.6808 73.7866 31.2901 74.8285C30.4306 77.1195 38.2441 74.7163 39.8825 74.8821C41.5209 75.0479 42.7733 81.8384 44.4798 82.0111C45.3331 82.0975 46.9414 77.329 49.3075 67.706C49.8347 65.5622 50.7098 61.801 51.9333 56.4262L44.4561 53.1021Z" fill="#C1B7F7" fill-opacity="0.968627"/>
<path fill-rule="evenodd" clip-rule="evenodd" d="M46.858 58.7411C42.7191 57.8035 40.1188 61.001 37.5093 59.1338C34.9009 57.2674 37.9152 54.3727 35.6224 50.7084C33.3296 47.0441 29.3242 48.512 28.7578 45.3037C28.1914 42.0963 32.6105 41.7296 33.5063 37.4855C34.4022 33.2414 30.5332 31.0014 32.3439 28.327C34.1545 25.6526 37.3534 28.018 40.9075 25.6837C44.4625 23.3504 43.4583 19.5452 46.5864 18.9762C49.7146 18.4081 50.0283 23.0271 54.1673 23.9656C58.3063 24.9042 60.5327 20.8621 63.1422 22.7294C65.7506 24.5958 63.3857 27.6344 65.6785 31.2987C67.9714 34.9631 71.7471 34.1793 72.3135 37.3867C72.8799 40.595 68.3114 41.0068 67.4147 45.251C66.5189 49.4951 70.5381 51.6899 68.7275 54.3643C66.9168 57.0387 63.4755 54.3885 59.9205 56.7228C56.3664 59.0561 57.6131 63.1461 54.485 63.7151C51.3568 64.2832 50.9979 59.6795 46.858 58.7411Z" fill="#EDE7FF"/>
<path d="M45.4783 53.9706C50.8965 54.5401 55.8756 49.4188 56.5994 42.532C57.3233 35.6451 53.5177 29.6006 48.0995 29.0311C42.6813 28.4617 37.7022 33.5829 36.9784 40.4697C36.2545 47.3566 40.0601 53.4011 45.4783 53.9706Z" fill="#C1B7F7"/>
<path fill-rule="evenodd" clip-rule="evenodd" d="M31.8177 35.4546C33.1395 31.1292 30.0433 28.0834 32.2 25.467C34.3556 22.8517 37.1027 26.312 41.0961 24.1885C45.0895 22.0651 43.9056 17.6734 47.2803 17.3485C50.6541 17.0235 50.6612 21.7603 54.9865 23.0821C59.3118 24.4038 61.9614 20.4788 64.5817 22.6385C67.2021 24.7981 64.4791 27.9989 66.5996 31.9852C68.719 35.9726 72.7496 35.2333 73.0755 38.6131C73.4004 41.9929 68.5842 41.9265 67.2614 46.2518C65.9387 50.5772 69.9421 53.2981 67.7855 55.9145C65.6299 58.5298 62.6786 55.7485 58.6852 57.8719C54.6918 59.9954 55.1857 64.0833 51.8119 64.4082C48.4371 64.7331 48.3959 59.8334 44.0705 58.5107C39.7452 57.1889 37.1299 61.2779 34.5095 59.1182C31.8891 56.9586 34.9279 53.5244 32.8075 49.5371C30.6881 45.5507 26.3416 46.5234 26.0157 43.1436C25.6908 39.7638 30.495 39.7809 31.8177 35.4546Z" stroke="black" stroke-width="2.01179"/>
<path fill-rule="evenodd" clip-rule="evenodd" d="M51.7752 32.6193C51.0169 32.5396 49.6851 36.6274 48.6674 36.9756C47.649 37.3206 44.1827 35.9651 43.624 37.0372C43.0652 38.1092 46.2078 40.1681 46.4881 41.1291C46.7684 42.0901 44.2633 46.8809 45.0358 47.0562C45.8083 47.2314 49.4156 44.7249 50.491 44.838C51.5664 44.951 54.457 48.3872 55.1087 48.1149C55.7603 47.8425 54.8412 43.1439 55.1614 42.4938C55.4827 41.8428 58.9002 39.5247 58.9919 38.6524C59.0836 37.7801 54.6518 37.9788 53.9155 37.5262C53.1792 37.0735 52.5346 32.6981 51.7753 32.6183L51.7752 32.6193Z" fill="white"/>
<path fill-rule="evenodd" clip-rule="evenodd" d="M45.8891 45.5689C46.2184 47.0549 52.112 49.2016 53.7188 47.2515C55.1563 45.5072 58.6628 40.2926 57.2624 39.5578C55.8619 38.8229 45.5457 44.0146 45.8891 45.5689Z" fill="#FFDAA5"/>
<path fill-rule="evenodd" clip-rule="evenodd" d="M52.3859 33.9494C50.2817 32.8832 50.1888 37.9462 49.107 38.2877C48.0253 38.6291 44.3272 37.2462 43.7395 38.3152C43.1518 39.3842 46.5114 41.4659 46.8168 42.4295C47.1212 43.392 44.4868 48.1703 45.3104 48.3509C46.1339 48.5316 49.9563 46.0477 51.1007 46.168C52.2451 46.2882 55.3448 49.7465 56.0375 49.4784C56.7301 49.2114 55.718 44.5019 56.0552 43.8536C56.3925 43.2044 60.0141 40.9077 60.1058 40.0354C60.1975 39.1631 55.4826 39.332 54.6953 38.874C53.91 38.4163 54.2817 33.8832 52.385 33.9483L52.3859 33.9494Z" stroke="black" stroke-width="2"/>
<path d="M50.3047 68.975C50.773 68.6152 51.4338 68.7193 51.7814 69.2039C51.8532 69.302 51.925 69.418 52.0026 69.5459C52.3014 68.3923 52.5973 67.2744 52.8789 66.2517C53.0168 65.7522 53.1489 65.2765 53.2782 64.8306C53.3357 64.6344 53.3902 64.4441 53.4448 64.2598C53.5023 64.0636 53.5626 63.8644 53.6172 63.686C53.7953 63.1122 53.4879 62.4968 52.9334 62.3124C52.3761 62.1281 51.9595 63.026 51.7814 63.5998C51.7038 63.8525 51.4453 63.5433 51.3648 63.8257C51.2729 64.1438 51.1752 64.4738 51.0775 64.8217C50.9368 65.3211 50.7902 65.8533 50.6437 66.4033C50.184 68.1039 49.6985 69.9948 49.2216 71.8559C48.6413 74.1214 48.0466 76.4433 47.5093 78.3758C47.3168 78.0636 47.1157 77.7395 46.9118 77.4066C44.3089 73.167 43.9893 72.7002 42.4415 72.5575C40.8937 72.4148 39.557 74.4187 37.6695 75.8606C37.1208 76.2798 36.5491 76.7168 35.9946 77.1301C36.2273 76.5652 36.4744 75.9706 36.7301 75.3492C38.293 71.5675 40.1374 67.105 41.3268 63.5998C41.5796 62.8535 41.8008 62.1519 41.9875 61.5097C42.0622 61.2481 42.1312 60.9983 42.1915 60.7575C42.226 60.6208 42.2634 60.478 42.295 60.3502C42.4329 59.7645 42.0852 59.1729 41.5164 59.0302C40.9475 58.8904 40.3787 59.2472 40.2408 59.8359C40.1805 60.0915 40.1087 60.368 40.0282 60.6564C39.8242 61.3937 39.5599 62.2262 39.2496 63.127C39.0112 63.8227 38.7469 64.5571 38.4596 65.3212C37.3621 68.2585 35.9889 71.5824 34.7851 74.493C33.9606 76.4909 33.2481 78.2152 32.7424 79.5204C32.5844 79.9306 32.6821 80.4004 32.9895 80.7096C33.2969 81.0188 33.7537 81.1021 34.1473 80.9267C35.2476 80.4302 37.0317 79.0655 38.9193 77.6236C40.2609 76.5979 40.9361 74.4699 42.7288 74.8676C44.4146 75.2416 44.4209 77.4393 45.1248 78.5839C45.866 79.7909 46.5641 80.9296 47.0296 81.5658C47.2307 81.8423 47.5438 81.9999 47.8713 81.9999C47.9288 81.9999 47.9891 81.9939 48.0494 81.985C48.4373 81.9166 48.7562 81.6312 48.8768 81.2418C49.5462 79.0774 50.3765 75.8546 51.1867 72.7002C50.7471 71.731 50.3392 70.8837 50.0777 70.5151C49.7359 70.0186 49.8364 69.3317 50.3047 68.975Z" fill="black"/>
<path d="M61.069 61.636C60.9155 61.2986 60.7765 60.9755 60.6578 60.6724C60.4464 60.1321 59.8325 59.8633 59.2822 60.0692C58.7349 60.2779 58.4598 60.8869 58.6712 61.4273C58.7668 61.6732 58.8768 61.9305 58.9927 62.1935C59.1143 62.4708 59.2475 62.7596 59.3894 63.0541C59.5921 63.4801 59.8122 63.9232 60.0496 64.3778C60.875 65.9761 61.8711 67.7202 62.8499 69.4356C63.5014 70.5793 64.1328 71.6828 64.6772 72.6835C62.6038 72.309 60.1075 71.8629 58.6538 71.7972C58.2253 71.7829 57.8401 72.0059 57.6548 72.3776C57.4289 72.8236 57.1509 73.5041 56.8266 74.2961C56.4791 75.1424 56.0245 76.2545 55.6017 77.1094C54.9298 75.9858 54.1074 74.2246 53.5022 72.9237C52.8535 71.5342 52.283 70.3105 51.811 69.5643C51.7357 69.4442 51.6604 69.3298 51.588 69.2354C51.2376 68.7694 50.5716 68.6693 50.0996 69.0153C49.6276 69.3612 49.5262 70.0189 49.8766 70.4849C50.1401 70.8394 50.5513 71.6542 50.9944 72.5863C51.1826 72.9809 51.3737 73.3926 51.5678 73.8043C53.0157 76.9093 54.0408 79.0022 55.0543 79.7798C55.2484 79.9285 55.4771 80 55.7059 80C55.9955 80 56.2851 79.8828 56.4965 79.6541C57.2175 78.8707 57.9357 77.1924 58.7986 75.0824C58.9637 74.6764 59.1259 74.2846 59.2678 73.953C60.7186 74.1045 62.8789 74.4934 64.5237 74.7936C65.2592 74.9251 65.9224 75.048 66.4291 75.1281C66.8259 75.1938 67.2139 75.0366 67.4543 74.725C67.6917 74.4133 67.7352 73.9959 67.5643 73.6414C66.8693 72.1975 65.8181 70.3562 64.7061 68.4063C64.153 67.4342 63.5941 66.4536 63.0642 65.4958C62.6646 64.7753 62.2823 64.0719 61.9348 63.4C61.6105 62.7796 61.3209 62.1878 61.069 61.636Z" fill="black"/>
<path d="M48.6735 55.2772C56.961 56.1483 64.3075 50.8774 65.0824 43.5044C65.8574 36.1314 59.7673 29.4482 51.4798 28.5772C43.1924 27.7061 35.8459 32.977 35.0709 40.35C34.296 47.723 40.3861 54.4062 48.6735 55.2772Z" stroke="black" stroke-width="2.01179"/>
</svg>
