<svg width="100" height="100" viewBox="0 0 100 100" fill="none" xmlns="http://www.w3.org/2000/svg">
<path d="M49.9998 2.23242L64.4121 18.9735H35.5875L49.9998 2.23242Z" fill="url(#paint0_linear_86834_1257)"/>
<path d="M50.0003 97.7676L35.588 81.0265L64.4126 81.0265L50.0003 97.7676Z" fill="url(#paint1_linear_86834_1257)"/>
<path d="M91.679 73.884L69.8658 77.9018L84.2781 53.1251L91.679 73.884Z" fill="url(#paint2_linear_86834_1257)"/>
<path d="M8.32096 26.116L30.1342 22.0982L15.7219 46.8749L8.32096 26.116Z" fill="url(#paint3_linear_86834_1257)"/>
<path d="M91.6789 26.1164L84.2779 46.8754L69.8656 22.0986L91.6789 26.1164Z" fill="url(#paint4_linear_86834_1257)"/>
<path d="M8.32125 73.8836L15.7222 53.1246L30.1345 77.9014L8.32125 73.8836Z" fill="url(#paint5_linear_86834_1257)"/>
<path d="M13.9043 81.7689C14.742 79.2269 20.1873 76.2693 23.2123 75.1426L27.9375 83.4997L40.5674 86.2855C38.9943 86.2855 25.6014 92.5197 19.8033 95.5712V86.1895C16.9221 84.1188 13.9043 81.7689 13.9043 81.7689Z" fill="#8078E8"/>
<path d="M86.8767 81.7689C86.039 79.2269 80.5937 76.2693 77.5687 75.1426L72.8435 83.4997L59.2781 86.2855C60.8512 86.2855 75.1796 92.5197 80.9777 95.5712V86.1895C83.859 84.1188 86.8767 81.7689 86.8767 81.7689Z" fill="#8078E8"/>
<path d="M34.954 79.7861L40.5672 86.2861L27.9374 83.5004L34.954 79.7861Z" fill="#570F7D"/>
<path d="M65.3599 79.7861L59.2788 86.2861L72.8442 83.5004L65.3599 79.7861Z" fill="#570F7D"/>
<path d="M87.0938 49.5539C87.0938 69.6383 70.6894 85.923 50.4498 85.923C30.2102 85.923 13.8058 69.6383 13.8058 49.5539C13.8058 29.4695 30.2102 13.1849 50.4498 13.1849C70.6894 13.1849 87.0938 29.4695 87.0938 49.5539Z" fill="url(#paint6_linear_86834_1257)" stroke="url(#paint7_linear_86834_1257)" stroke-width="0.47619"/>
<g filter="url(#filter0_i_86834_1257)">
<ellipse cx="50.4498" cy="49.553" rx="32.3843" ry="32.1429" fill="url(#paint8_linear_86834_1257)"/>
</g>
<g filter="url(#filter1_ii_86834_1257)">
<ellipse cx="50.4499" cy="49.5533" rx="26.9869" ry="26.7857" fill="url(#paint9_linear_86834_1257)"/>
</g>
<g filter="url(#filter2_d_86834_1257)">
<path d="M20.4526 71.6404L27.937 83.5C48.0512 72.8214 67.2299 80.7143 72.8432 83.5L80.3276 71.6404C78.1874 69.1867 69.2186 64.2247 50.4648 64.0066C31.7109 63.7885 22.6426 69.0049 20.4526 71.6404Z" fill="url(#paint10_linear_86834_1257)"/>
</g>
<g clip-path="url(#clip0_86834_1257)" filter="url(#filter3_d_86834_1257)">
<path d="M43.1944 46.1362L49.9999 63.8761L33.3049 46.1362H43.1944Z" fill="url(#paint11_linear_86834_1257)"/>
<path d="M56.825 46.2273L60.395 36.9873L50 36.9785L56.825 46.2273Z" fill="url(#paint12_linear_86834_1257)"/>
<path d="M56.7005 46.1362L49.9999 63.8673L66.6949 46.1362H56.7005Z" fill="url(#paint13_linear_86834_1257)"/>
<path d="M43.118 46.0837H33.4055L39.668 37.0898L43.118 46.0837Z" fill="url(#paint14_linear_86834_1257)" stroke="url(#paint15_linear_86834_1257)" stroke-width="0.105"/>
<path d="M66.7145 46.1362L60.395 36.9873L56.825 46.1362H66.7145Z" fill="url(#paint16_linear_86834_1257)"/>
<path d="M43.2989 46.0837L50.0001 37.0664L56.7244 46.0837H43.2989Z" fill="url(#paint17_linear_86834_1257)" stroke="url(#paint18_linear_86834_1257)" stroke-width="0.105"/>
<path d="M43.1944 46.1362L39.682 36.9785H50L43.1944 46.1362Z" fill="url(#paint19_linear_86834_1257)"/>
<path d="M56.7291 46.1887L50 63.7295L43.2708 46.1887H56.7291Z" fill="url(#paint20_linear_86834_1257)" stroke="url(#paint21_linear_86834_1257)" stroke-width="0.105"/>
</g>
<path d="M36.0566 26.3398L36.7245 28.3555L38.7553 29.0184L36.7245 29.6813L36.0566 31.697L35.3887 29.6813L33.3579 29.0184L35.3887 28.3555L36.0566 26.3398Z" fill="white"/>
<path d="M27.9605 17.4102L29.5189 22.1134L34.2575 23.6602L29.5189 25.207L27.9605 29.9102L26.4021 25.207L21.6636 23.6602L26.4021 22.1134L27.9605 17.4102Z" fill="white"/>
<defs>
<filter id="filter0_i_86834_1257" x="18.0656" y="16.4578" width="64.7686" height="65.238" filterUnits="userSpaceOnUse" color-interpolation-filters="sRGB">
<feFlood flood-opacity="0" result="BackgroundImageFix"/>
<feBlend mode="normal" in="SourceGraphic" in2="BackgroundImageFix" result="shape"/>
<feColorMatrix in="SourceAlpha" type="matrix" values="0 0 0 0 0 0 0 0 0 0 0 0 0 0 0 0 0 0 127 0" result="hardAlpha"/>
<feOffset dy="-0.952381"/>
<feGaussianBlur stdDeviation="0.47619"/>
<feComposite in2="hardAlpha" operator="arithmetic" k2="-1" k3="1"/>
<feColorMatrix type="matrix" values="0 0 0 0 0.616667 0 0 0 0 0.407 0 0 0 0 0 0 0 0 0.25 0"/>
<feBlend mode="normal" in2="shape" result="effect1_innerShadow_86834_1257"/>
</filter>
<filter id="filter1_ii_86834_1257" x="23.463" y="21.8152" width="53.9738" height="55.4761" filterUnits="userSpaceOnUse" color-interpolation-filters="sRGB">
<feFlood flood-opacity="0" result="BackgroundImageFix"/>
<feBlend mode="normal" in="SourceGraphic" in2="BackgroundImageFix" result="shape"/>
<feColorMatrix in="SourceAlpha" type="matrix" values="0 0 0 0 0 0 0 0 0 0 0 0 0 0 0 0 0 0 127 0" result="hardAlpha"/>
<feOffset dy="0.952381"/>
<feGaussianBlur stdDeviation="0.952381"/>
<feComposite in2="hardAlpha" operator="arithmetic" k2="-1" k3="1"/>
<feColorMatrix type="matrix" values="0 0 0 0 0.346456 0 0 0 0 0.0229167 0 0 0 0 0.5 0 0 0 1 0"/>
<feBlend mode="normal" in2="shape" result="effect1_innerShadow_86834_1257"/>
<feColorMatrix in="SourceAlpha" type="matrix" values="0 0 0 0 0 0 0 0 0 0 0 0 0 0 0 0 0 0 127 0" result="hardAlpha"/>
<feOffset dy="-0.952381"/>
<feGaussianBlur stdDeviation="0.47619"/>
<feComposite in2="hardAlpha" operator="arithmetic" k2="-1" k3="1"/>
<feColorMatrix type="matrix" values="0 0 0 0 0.345098 0 0 0 0 0.0235294 0 0 0 0 0.501961 0 0 0 1 0"/>
<feBlend mode="normal" in2="effect1_innerShadow_86834_1257" result="effect2_innerShadow_86834_1257"/>
</filter>
<filter id="filter2_d_86834_1257" x="10.5479" y="59.0476" width="79.6845" height="39.3095" filterUnits="userSpaceOnUse" color-interpolation-filters="sRGB">
<feFlood flood-opacity="0" result="BackgroundImageFix"/>
<feColorMatrix in="SourceAlpha" type="matrix" values="0 0 0 0 0 0 0 0 0 0 0 0 0 0 0 0 0 0 127 0" result="hardAlpha"/>
<feOffset dy="4.95238"/>
<feGaussianBlur stdDeviation="4.95238"/>
<feComposite in2="hardAlpha" operator="out"/>
<feColorMatrix type="matrix" values="0 0 0 0 0 0 0 0 0 0 0 0 0 0 0 0 0 0 0.3 0"/>
<feBlend mode="normal" in2="BackgroundImageFix" result="effect1_dropShadow_86834_1257"/>
<feBlend mode="normal" in="SourceGraphic" in2="effect1_dropShadow_86834_1257" result="shape"/>
</filter>
<filter id="filter3_d_86834_1257" x="31.3049" y="32.7324" width="37.39" height="37.3901" filterUnits="userSpaceOnUse" color-interpolation-filters="sRGB">
<feFlood flood-opacity="0" result="BackgroundImageFix"/>
<feColorMatrix in="SourceAlpha" type="matrix" values="0 0 0 0 0 0 0 0 0 0 0 0 0 0 0 0 0 0 127 0" result="hardAlpha"/>
<feOffset dy="1"/>
<feGaussianBlur stdDeviation="1"/>
<feColorMatrix type="matrix" values="0 0 0 0 0.0705882 0 0 0 0 0.0666667 0 0 0 0 0.152941 0 0 0 0.1 0"/>
<feBlend mode="normal" in2="BackgroundImageFix" result="effect1_dropShadow_86834_1257"/>
<feBlend mode="normal" in="SourceGraphic" in2="effect1_dropShadow_86834_1257" result="shape"/>
</filter>
<linearGradient id="paint0_linear_86834_1257" x1="44.0087" y1="8.92885" x2="55.9909" y2="8.92885" gradientUnits="userSpaceOnUse">
<stop offset="0.46875" stop-color="#EAD2E8"/>
<stop offset="0.488859" stop-color="#B092B5"/>
<stop offset="1" stop-color="#EAD3E8"/>
</linearGradient>
<linearGradient id="paint1_linear_86834_1257" x1="55.9914" y1="91.0711" x2="44.0092" y2="91.0711" gradientUnits="userSpaceOnUse">
<stop offset="0.484631" stop-color="#EAD2E8"/>
<stop offset="0.488859" stop-color="#B092B5"/>
<stop offset="1" stop-color="#EAD2E8"/>
</linearGradient>
<linearGradient id="paint2_linear_86834_1257" x1="88.8318" y1="65.386" x2="82.9076" y2="75.7239" gradientUnits="userSpaceOnUse">
<stop offset="0.484631" stop-color="#EAD2E8"/>
<stop offset="0.488859" stop-color="#B092B5"/>
<stop offset="1" stop-color="#EAD2E8"/>
</linearGradient>
<linearGradient id="paint3_linear_86834_1257" x1="11.1682" y1="34.614" x2="17.0924" y2="24.2761" gradientUnits="userSpaceOnUse">
<stop offset="0.484631" stop-color="#EAD2E8"/>
<stop offset="0.488859" stop-color="#B092B5"/>
<stop offset="1" stop-color="#EAD2E8"/>
</linearGradient>
<linearGradient id="paint4_linear_86834_1257" x1="82.8405" y1="24.3149" x2="88.7646" y2="34.6528" gradientUnits="userSpaceOnUse">
<stop offset="0.484631" stop-color="#EAD2E8"/>
<stop offset="0.488859" stop-color="#B092B5"/>
<stop offset="1" stop-color="#EAD2E8"/>
</linearGradient>
<linearGradient id="paint5_linear_86834_1257" x1="17.1596" y1="75.6851" x2="11.2355" y2="65.3472" gradientUnits="userSpaceOnUse">
<stop offset="0.484631" stop-color="#EAD2E8"/>
<stop offset="0.488859" stop-color="#B092B5"/>
<stop offset="1" stop-color="#EAD2E8"/>
</linearGradient>
<linearGradient id="paint6_linear_86834_1257" x1="42" y1="13.2324" x2="68.4965" y2="80.9295" gradientUnits="userSpaceOnUse">
<stop stop-color="#E9E3FC"/>
<stop offset="0.615586" stop-color="#7E76E8"/>
<stop offset="1" stop-color="#B5B3FA"/>
</linearGradient>
<linearGradient id="paint7_linear_86834_1257" x1="50.4498" y1="12.9468" x2="50.4498" y2="86.1611" gradientUnits="userSpaceOnUse">
<stop stop-color="white" stop-opacity="0.5"/>
<stop offset="1" stop-color="white" stop-opacity="0"/>
</linearGradient>
<linearGradient id="paint8_linear_86834_1257" x1="29.7599" y1="24.9994" x2="70.7732" y2="74.8546" gradientUnits="userSpaceOnUse">
<stop stop-color="#8D6DC7"/>
<stop offset="1" stop-color="#C7AAF3"/>
</linearGradient>
<linearGradient id="paint9_linear_86834_1257" x1="32.5909" y1="27.4945" x2="54.5406" y2="76.4622" gradientUnits="userSpaceOnUse">
<stop stop-color="#C364EA"/>
<stop offset="0.536972" stop-color="#6B109C"/>
<stop offset="1" stop-color="#6B1598"/>
</linearGradient>
<linearGradient id="paint10_linear_86834_1257" x1="23.6563" y1="75.2735" x2="77.5648" y2="74.6727" gradientUnits="userSpaceOnUse">
<stop stop-color="#E2DCFB"/>
<stop offset="1" stop-color="#817AE9"/>
</linearGradient>
<linearGradient id="paint11_linear_86834_1257" x1="41.9999" y1="55.7323" x2="43.4999" y2="46.2323" gradientUnits="userSpaceOnUse">
<stop stop-color="#9F3CC9"/>
<stop offset="1" stop-color="#D678DE"/>
</linearGradient>
<linearGradient id="paint12_linear_86834_1257" x1="55.264" y1="36.9785" x2="57.035" y2="46.4373" gradientUnits="userSpaceOnUse">
<stop stop-color="#EBA6FF"/>
<stop offset="1" stop-color="#F2D3FC"/>
</linearGradient>
<linearGradient id="paint13_linear_86834_1257" x1="58.2949" y1="55.3623" x2="54.5149" y2="52.3173" gradientUnits="userSpaceOnUse">
<stop offset="0.0001" stop-color="#C165EF"/>
<stop offset="1" stop-color="#994EC5"/>
</linearGradient>
<linearGradient id="paint14_linear_86834_1257" x1="41.4999" y1="42.7323" x2="33.4999" y2="46.2323" gradientUnits="userSpaceOnUse">
<stop stop-color="#CFB8EA"/>
<stop offset="1" stop-color="#FFD6FF"/>
</linearGradient>
<linearGradient id="paint15_linear_86834_1257" x1="38.2497" y1="36.9785" x2="38.2497" y2="46.1362" gradientUnits="userSpaceOnUse">
<stop stop-color="#C2D0E2"/>
<stop offset="1" stop-color="#89A2C5" stop-opacity="0"/>
</linearGradient>
<linearGradient id="paint16_linear_86834_1257" x1="58.9999" y1="42.2323" x2="66.4999" y2="45.7323" gradientUnits="userSpaceOnUse">
<stop stop-color="#BE89BC"/>
<stop offset="1" stop-color="#F4B9FF"/>
</linearGradient>
<linearGradient id="paint17_linear_86834_1257" x1="50" y1="36.9785" x2="50" y2="46.1362" gradientUnits="userSpaceOnUse">
<stop stop-color="#E3C5E8"/>
<stop offset="1" stop-color="#F9CBFE"/>
</linearGradient>
<linearGradient id="paint18_linear_86834_1257" x1="53.99" y1="43.1823" x2="50.0118" y2="46.1362" gradientUnits="userSpaceOnUse">
<stop stop-color="white"/>
<stop offset="1" stop-color="white" stop-opacity="0"/>
</linearGradient>
<linearGradient id="paint19_linear_86834_1257" x1="44.841" y1="36.9785" x2="43.07" y2="46.4373" gradientUnits="userSpaceOnUse">
<stop stop-color="#F6E8F8"/>
<stop offset="1" stop-color="#FCECFA"/>
</linearGradient>
<linearGradient id="paint20_linear_86834_1257" x1="50" y1="46.1362" x2="50" y2="63.8761" gradientUnits="userSpaceOnUse">
<stop stop-color="#AC5EC8"/>
<stop offset="1" stop-color="#F383F2"/>
</linearGradient>
<linearGradient id="paint21_linear_86834_1257" x1="46.85" y1="55.3623" x2="53.36" y2="46.7523" gradientUnits="userSpaceOnUse">
<stop stop-color="white"/>
<stop offset="1" stop-color="white" stop-opacity="0"/>
</linearGradient>
<clipPath id="clip0_86834_1257">
<rect width="33.39" height="33.39" fill="white" transform="translate(33.3049 33.7324)"/>
</clipPath>
</defs>
</svg>
