<svg width="16" height="16" viewBox="0 0 16 16" fill="none" xmlns="http://www.w3.org/2000/svg">
<g opacity="0.2">
<path fill-rule="evenodd" clip-rule="evenodd" d="M12.8073 3.19263C11.913 2.29841 10.4632 2.29842 9.56901 3.19265L9.06042 3.70126L9.05298 3.69382L8.15166 4.59515L8.15911 4.6026L3.16234 9.59952C2.7241 10.0378 2.47791 10.6322 2.47791 11.2519V12.8849C2.47791 13.0539 2.54505 13.216 2.66458 13.3355C2.7841 13.455 2.94621 13.5222 3.11524 13.5222L4.74814 13.5222C5.36793 13.5222 5.96234 13.276 6.4006 12.8377L12.8073 6.43082C13.7015 5.53661 13.7014 4.08683 12.8073 3.19263ZM9.06043 5.50393L4.06368 10.5008C3.86448 10.7 3.75257 10.9702 3.75257 11.2519L3.75257 12.2475H4.74814C5.02986 12.2475 5.30005 12.1356 5.49925 11.9364L10.496 6.93949L9.06043 5.50393ZM11.3973 6.03815L11.9059 5.5295C12.3023 5.13308 12.3023 4.49037 11.9059 4.09396C11.5095 3.69753 10.8668 3.69754 10.4704 4.09397L9.96175 4.60258L11.3973 6.03815Z" fill="#000000"/>
</g>
</svg>
