<svg width="40" height="40" viewBox="0 0 40 40" fill="none" xmlns="http://www.w3.org/2000/svg">
<path fill-rule="evenodd" clip-rule="evenodd" d="M8.63464 12.916C8.63464 10.5514 10.5515 8.63452 12.9161 8.63452H26.3532C28.7178 8.63452 30.6346 10.5514 30.6346 12.916V26.3531C30.6346 28.7177 28.7178 30.6345 26.3532 30.6345H12.9161C10.5515 30.6345 8.63464 28.7177 8.63464 26.3531V12.916ZM12.9161 10.3471C11.4973 10.3471 10.3472 11.4972 10.3472 12.916V26.3531C10.3472 27.7718 11.4973 28.9219 12.9161 28.9219H26.3532C27.7719 28.9219 28.9221 27.7718 28.9221 26.3531V12.916C28.9221 11.4972 27.7719 10.3471 26.3532 10.3471H12.9161Z" fill="#000000"/>
<path fill-rule="evenodd" clip-rule="evenodd" d="M16.3309 21.5821C16.288 21.5393 16.2185 21.5393 16.1756 21.5821L13.4775 24.2803C13.1431 24.6147 12.6009 24.6147 12.2665 24.2803C11.9321 23.9459 11.9321 23.4037 12.2665 23.0693L14.9647 20.3712C15.6763 19.6595 16.8302 19.6595 17.5419 20.3712L20.723 23.5523C21.0574 23.8867 21.0574 24.4289 20.723 24.7633C20.3886 25.0977 19.8465 25.0977 19.5121 24.7633L16.3309 21.5821Z" fill="#000000"/>
<path fill-rule="evenodd" clip-rule="evenodd" d="M22.6103 21.5821C22.5674 21.5393 22.4979 21.5393 22.4551 21.5821L20.24 23.7972C19.9056 24.1316 19.3634 24.1316 19.029 23.7972C18.6946 23.4628 18.6946 22.9207 19.029 22.5862L21.2441 20.3712C21.9558 19.6595 23.1096 19.6595 23.8213 20.3712L27.4855 24.0354C27.8199 24.3698 27.8199 24.9119 27.4855 25.2463C27.1511 25.5807 26.6089 25.5807 26.2745 25.2463L22.6103 21.5821Z" fill="#000000"/>
<path fill-rule="evenodd" clip-rule="evenodd" d="M24.6405 14.6506C24.1676 14.6506 23.7842 15.0339 23.7842 15.5069C23.7842 15.9798 24.1676 16.3631 24.6405 16.3631C25.1134 16.3631 25.4968 15.9798 25.4968 15.5069C25.4968 15.0339 25.1134 14.6506 24.6405 14.6506ZM22.0717 15.5069C22.0717 14.0881 23.2218 12.938 24.6405 12.938C26.0593 12.938 27.2094 14.0881 27.2094 15.5069C27.2094 16.9256 26.0593 18.0757 24.6405 18.0757C23.2218 18.0757 22.0717 16.9256 22.0717 15.5069Z" fill="#000000"/>
</svg>
