<svg width="100" height="100" viewBox="0 0 100 100" fill="none" xmlns="http://www.w3.org/2000/svg">
<path d="M49.9998 2.23242L64.4121 18.9735H35.5875L49.9998 2.23242Z" fill="url(#paint0_linear_86834_1258)"/>
<path d="M50.0003 97.7676L35.588 81.0265L64.4126 81.0265L50.0003 97.7676Z" fill="url(#paint1_linear_86834_1258)"/>
<g filter="url(#filter0_f_86834_1258)">
<path d="M50.0003 6.69678L51.67 11.7359L56.747 13.3932L51.67 15.0505L50.0003 20.0896L48.3305 15.0505L43.2535 13.3932L48.3305 11.7359L50.0003 6.69678Z" fill="white"/>
<path d="M50.0003 6.84817L51.6248 11.7509L51.6324 11.7737L51.6552 11.7812L56.5935 13.3932L51.6552 15.0052L51.6324 15.0127L51.6248 15.0355L50.0003 19.9382L48.3757 15.0355L48.3682 15.0127L48.3453 15.0052L43.407 13.3932L48.3453 11.7812L48.3682 11.7737L48.3757 11.7509L50.0003 6.84817Z" stroke="#FAFF00" stroke-width="0.0952381"/>
</g>
<path d="M91.679 73.884L69.8658 77.9018L84.2781 53.1251L91.679 73.884Z" fill="url(#paint2_linear_86834_1258)"/>
<path d="M8.32096 26.116L30.1342 22.0982L15.7219 46.8749L8.32096 26.116Z" fill="url(#paint3_linear_86834_1258)"/>
<path d="M13.9043 81.7689C14.742 79.2269 20.1873 76.2693 23.2123 75.1426L27.9375 83.4997L40.5674 86.2855C38.9943 86.2855 25.6014 92.5197 19.8033 95.5712V86.1895C16.9221 84.1188 13.9043 81.7689 13.9043 81.7689Z" fill="#E44B15"/>
<path d="M86.8767 81.7689C86.039 79.2269 80.5937 76.2693 77.5687 75.1426L72.8435 83.4997L59.2781 86.2855C60.8512 86.2855 75.1796 92.5197 80.9777 95.5712V86.1895C83.859 84.1188 86.8767 81.7689 86.8767 81.7689Z" fill="#E44B15"/>
<path d="M34.954 79.7861L40.5672 86.2861L27.9374 83.5004L34.954 79.7861Z" fill="#A2340D"/>
<path d="M65.3599 79.7861L59.2788 86.2861L72.8442 83.5004L65.3599 79.7861Z" fill="#A2340D"/>
<path d="M91.6789 26.1164L84.2779 46.8754L69.8656 22.0986L91.6789 26.1164Z" fill="url(#paint4_linear_86834_1258)"/>
<path d="M8.32125 73.8836L15.7222 53.1246L30.1345 77.9014L8.32125 73.8836Z" fill="url(#paint5_linear_86834_1258)"/>
<path d="M87.0938 49.5539C87.0938 69.6383 70.6894 85.923 50.4498 85.923C30.2102 85.923 13.8058 69.6383 13.8058 49.5539C13.8058 29.4695 30.2102 13.1849 50.4498 13.1849C70.6894 13.1849 87.0938 29.4695 87.0938 49.5539Z" fill="url(#paint6_linear_86834_1258)" stroke="url(#paint7_linear_86834_1258)" stroke-width="0.47619"/>
<g filter="url(#filter1_i_86834_1258)">
<ellipse cx="50.4498" cy="49.553" rx="32.3843" ry="32.1429" fill="url(#paint8_linear_86834_1258)"/>
</g>
<g filter="url(#filter2_ii_86834_1258)">
<ellipse cx="50.4499" cy="49.5533" rx="26.9869" ry="26.7857" fill="url(#paint9_linear_86834_1258)"/>
</g>
<g filter="url(#filter3_d_86834_1258)">
<path d="M34.5139 44.9789C34.0337 43.689 35.4759 42.5329 36.6304 43.2822L58.2252 57.2966C59.4185 58.071 58.8701 59.9235 57.4475 59.9235H41.0695C40.4727 59.9235 39.9388 59.5526 39.7306 58.9933L34.5139 44.9789Z" fill="url(#paint10_linear_86834_1258)"/>
<path d="M66.3815 44.9616C66.8666 43.6749 65.4319 42.5129 64.2741 43.2548L42.3667 57.2921C41.1653 58.0619 41.7106 59.9235 43.1374 59.9235H59.7525C60.3471 59.9235 60.8795 59.5552 61.0893 58.9989L66.3815 44.9616Z" fill="url(#paint11_linear_86834_1258)"/>
<path d="M49.1703 39.8285C49.6927 38.7611 51.214 38.7611 51.7365 39.8285L60.6571 58.0535C61.1216 59.0027 60.4307 60.1102 59.374 60.1102H41.5328C40.4761 60.1102 39.7851 59.0027 40.2497 58.0535L49.1703 39.8285Z" fill="url(#paint12_linear_86834_1258)"/>
<mask id="mask0_86834_1258" style="mask-type:alpha" maskUnits="userSpaceOnUse" x="40" y="39" width="21" height="22">
<path d="M49.1703 39.8275C49.6927 38.7601 51.214 38.7601 51.7365 39.8275L60.6571 58.0526C61.1216 59.0017 60.4307 60.1092 59.374 60.1092H41.5328C40.4761 60.1092 39.7851 59.0017 40.2497 58.0526L49.1703 39.8275Z" fill="url(#paint13_linear_86834_1258)"/>
</mask>
<g mask="url(#mask0_86834_1258)">
<g filter="url(#filter4_f_86834_1258)">
<ellipse cx="11.7414" cy="3.18644" rx="11.7414" ry="3.18644" transform="matrix(0.204188 0.978932 -0.979534 0.201279 57.7241 40.0796)" fill="#FFF5D2" fill-opacity="0.8"/>
</g>
</g>
<ellipse cx="50.4541" cy="35.5312" rx="2.06363" ry="2.04825" fill="url(#paint14_linear_86834_1258)"/>
<ellipse cx="34.1469" cy="41.4888" rx="1.68842" ry="1.67584" fill="url(#paint15_linear_86834_1258)"/>
<ellipse cx="66.6744" cy="41.4888" rx="1.68842" ry="1.67584" fill="url(#paint16_linear_86834_1258)"/>
<rect x="39.9937" y="61.7256" width="20.5248" height="2.77797" rx="1.38898" fill="url(#paint17_linear_86834_1258)"/>
</g>
<g filter="url(#filter5_d_86834_1258)">
<path d="M20.4526 71.6404L27.937 83.5C48.0512 72.8214 67.2299 80.7143 72.8432 83.5L80.3276 71.6404C78.1874 69.1867 69.2186 64.2247 50.4648 64.0066C31.7109 63.7885 22.6426 69.0049 20.4526 71.6404Z" fill="url(#paint18_linear_86834_1258)"/>
</g>
<path d="M36.0566 26.3398L36.7245 28.3555L38.7553 29.0184L36.7245 29.6813L36.0566 31.697L35.3887 29.6813L33.3579 29.0184L35.3887 28.3555L36.0566 26.3398Z" fill="white"/>
<path d="M27.9605 17.4102L29.5189 22.1134L34.2575 23.6602L29.5189 25.207L27.9605 29.9102L26.4021 25.207L21.6636 23.6602L26.4021 22.1134L27.9605 17.4102Z" fill="white"/>
<defs>
<filter id="filter0_f_86834_1258" x="41.825" y="5.26821" width="16.3506" height="16.2502" filterUnits="userSpaceOnUse" color-interpolation-filters="sRGB">
<feFlood flood-opacity="0" result="BackgroundImageFix"/>
<feBlend mode="normal" in="SourceGraphic" in2="BackgroundImageFix" result="shape"/>
<feGaussianBlur stdDeviation="0.714286" result="effect1_foregroundBlur_86834_1258"/>
</filter>
<filter id="filter1_i_86834_1258" x="18.0656" y="16.4578" width="64.7686" height="65.238" filterUnits="userSpaceOnUse" color-interpolation-filters="sRGB">
<feFlood flood-opacity="0" result="BackgroundImageFix"/>
<feBlend mode="normal" in="SourceGraphic" in2="BackgroundImageFix" result="shape"/>
<feColorMatrix in="SourceAlpha" type="matrix" values="0 0 0 0 0 0 0 0 0 0 0 0 0 0 0 0 0 0 127 0" result="hardAlpha"/>
<feOffset dy="-0.952381"/>
<feGaussianBlur stdDeviation="0.47619"/>
<feComposite in2="hardAlpha" operator="arithmetic" k2="-1" k3="1"/>
<feColorMatrix type="matrix" values="0 0 0 0 0.616667 0 0 0 0 0.407 0 0 0 0 0 0 0 0 0.25 0"/>
<feBlend mode="normal" in2="shape" result="effect1_innerShadow_86834_1258"/>
</filter>
<filter id="filter2_ii_86834_1258" x="23.463" y="21.8152" width="53.9738" height="55.4761" filterUnits="userSpaceOnUse" color-interpolation-filters="sRGB">
<feFlood flood-opacity="0" result="BackgroundImageFix"/>
<feBlend mode="normal" in="SourceGraphic" in2="BackgroundImageFix" result="shape"/>
<feColorMatrix in="SourceAlpha" type="matrix" values="0 0 0 0 0 0 0 0 0 0 0 0 0 0 0 0 0 0 127 0" result="hardAlpha"/>
<feOffset dy="0.952381"/>
<feGaussianBlur stdDeviation="0.952381"/>
<feComposite in2="hardAlpha" operator="arithmetic" k2="-1" k3="1"/>
<feColorMatrix type="matrix" values="0 0 0 0 0.7 0 0 0 0 0.465967 0 0 0 0 0.0116667 0 0 0 1 0"/>
<feBlend mode="normal" in2="shape" result="effect1_innerShadow_86834_1258"/>
<feColorMatrix in="SourceAlpha" type="matrix" values="0 0 0 0 0 0 0 0 0 0 0 0 0 0 0 0 0 0 127 0" result="hardAlpha"/>
<feOffset dy="-0.952381"/>
<feGaussianBlur stdDeviation="0.47619"/>
<feComposite in2="hardAlpha" operator="arithmetic" k2="-1" k3="1"/>
<feColorMatrix type="matrix" values="0 0 0 0 1 0 0 0 0 0.72 0 0 0 0 0 0 0 0 1 0"/>
<feBlend mode="normal" in2="effect1_innerShadow_86834_1258" result="effect2_innerShadow_86834_1258"/>
</filter>
<filter id="filter3_d_86834_1258" x="30.4585" y="32.4829" width="39.9043" height="35.0205" filterUnits="userSpaceOnUse" color-interpolation-filters="sRGB">
<feFlood flood-opacity="0" result="BackgroundImageFix"/>
<feColorMatrix in="SourceAlpha" type="matrix" values="0 0 0 0 0 0 0 0 0 0 0 0 0 0 0 0 0 0 127 0" result="hardAlpha"/>
<feOffset dy="1"/>
<feGaussianBlur stdDeviation="1"/>
<feComposite in2="hardAlpha" operator="out"/>
<feColorMatrix type="matrix" values="0 0 0 0 0.691667 0 0 0 0 0.1245 0 0 0 0 0 0 0 0 1 0"/>
<feBlend mode="normal" in2="BackgroundImageFix" result="effect1_dropShadow_86834_1258"/>
<feBlend mode="normal" in="SourceGraphic" in2="effect1_dropShadow_86834_1258" result="shape"/>
</filter>
<filter id="filter4_f_86834_1258" x="50.2073" y="37.8455" width="13.5861" height="28.7387" filterUnits="userSpaceOnUse" color-interpolation-filters="sRGB">
<feFlood flood-opacity="0" result="BackgroundImageFix"/>
<feBlend mode="normal" in="SourceGraphic" in2="BackgroundImageFix" result="shape"/>
<feGaussianBlur stdDeviation="1.42857" result="effect1_foregroundBlur_86834_1258"/>
</filter>
<filter id="filter5_d_86834_1258" x="10.5479" y="59.0476" width="79.6845" height="39.3095" filterUnits="userSpaceOnUse" color-interpolation-filters="sRGB">
<feFlood flood-opacity="0" result="BackgroundImageFix"/>
<feColorMatrix in="SourceAlpha" type="matrix" values="0 0 0 0 0 0 0 0 0 0 0 0 0 0 0 0 0 0 127 0" result="hardAlpha"/>
<feOffset dy="4.95238"/>
<feGaussianBlur stdDeviation="4.95238"/>
<feComposite in2="hardAlpha" operator="out"/>
<feColorMatrix type="matrix" values="0 0 0 0 0 0 0 0 0 0 0 0 0 0 0 0 0 0 0.3 0"/>
<feBlend mode="normal" in2="BackgroundImageFix" result="effect1_dropShadow_86834_1258"/>
<feBlend mode="normal" in="SourceGraphic" in2="effect1_dropShadow_86834_1258" result="shape"/>
</filter>
<linearGradient id="paint0_linear_86834_1258" x1="44.0087" y1="8.92885" x2="55.9909" y2="8.92885" gradientUnits="userSpaceOnUse">
<stop offset="0.484631" stop-color="#FFE590"/>
<stop offset="0.488859" stop-color="#FFC700"/>
</linearGradient>
<linearGradient id="paint1_linear_86834_1258" x1="55.9914" y1="91.0711" x2="44.0092" y2="91.0711" gradientUnits="userSpaceOnUse">
<stop offset="0.484631" stop-color="#FFE590"/>
<stop offset="0.488859" stop-color="#FFC700"/>
</linearGradient>
<linearGradient id="paint2_linear_86834_1258" x1="88.8318" y1="65.386" x2="82.9076" y2="75.7239" gradientUnits="userSpaceOnUse">
<stop offset="0.484631" stop-color="#FFE590"/>
<stop offset="0.488859" stop-color="#FFC700"/>
</linearGradient>
<linearGradient id="paint3_linear_86834_1258" x1="11.1682" y1="34.614" x2="17.0924" y2="24.2761" gradientUnits="userSpaceOnUse">
<stop offset="0.484631" stop-color="#FFE590"/>
<stop offset="0.488859" stop-color="#FFC700"/>
</linearGradient>
<linearGradient id="paint4_linear_86834_1258" x1="82.8405" y1="24.3149" x2="88.7646" y2="34.6528" gradientUnits="userSpaceOnUse">
<stop offset="0.484631" stop-color="#FFE590"/>
<stop offset="0.488859" stop-color="#FFC700"/>
</linearGradient>
<linearGradient id="paint5_linear_86834_1258" x1="17.1596" y1="75.6851" x2="11.2355" y2="65.3472" gradientUnits="userSpaceOnUse">
<stop offset="0.484631" stop-color="#FFE590"/>
<stop offset="0.488859" stop-color="#FFC700"/>
</linearGradient>
<linearGradient id="paint6_linear_86834_1258" x1="26.8075" y1="22.3332" x2="75.576" y2="77.1374" gradientUnits="userSpaceOnUse">
<stop stop-color="#FFE683"/>
<stop offset="0.354167" stop-color="#FFD600"/>
<stop offset="1" stop-color="#FFB01D"/>
</linearGradient>
<linearGradient id="paint7_linear_86834_1258" x1="50.4498" y1="12.9468" x2="50.4498" y2="86.1611" gradientUnits="userSpaceOnUse">
<stop stop-color="white" stop-opacity="0.5"/>
<stop offset="1" stop-color="white" stop-opacity="0"/>
</linearGradient>
<linearGradient id="paint8_linear_86834_1258" x1="29.7599" y1="24.9994" x2="70.7732" y2="74.8546" gradientUnits="userSpaceOnUse">
<stop stop-color="#FFF999"/>
<stop offset="1" stop-color="#FFC802"/>
</linearGradient>
<linearGradient id="paint9_linear_86834_1258" x1="32.5909" y1="27.4945" x2="54.5406" y2="76.4622" gradientUnits="userSpaceOnUse">
<stop stop-color="#FB945B"/>
<stop offset="0.484375" stop-color="#DF6D2E"/>
<stop offset="1" stop-color="#E8430E"/>
</linearGradient>
<linearGradient id="paint10_linear_86834_1258" x1="34.7819" y1="46.3306" x2="45.6782" y2="54.3146" gradientUnits="userSpaceOnUse">
<stop stop-color="#FFE176"/>
<stop offset="1" stop-color="#FFA800"/>
</linearGradient>
<linearGradient id="paint11_linear_86834_1258" x1="64.986" y1="44.0245" x2="58.4233" y2="55.926" gradientUnits="userSpaceOnUse">
<stop stop-color="#FFE483"/>
<stop offset="1" stop-color="#F29100"/>
</linearGradient>
<linearGradient id="paint12_linear_86834_1258" x1="44.7184" y1="48.9968" x2="56.3522" y2="48.9968" gradientUnits="userSpaceOnUse">
<stop offset="0.49738" stop-color="#FCE77B"/>
<stop offset="0.49738" stop-color="#FFCC1D"/>
</linearGradient>
<linearGradient id="paint13_linear_86834_1258" x1="44.7184" y1="48.9959" x2="56.3522" y2="48.9959" gradientUnits="userSpaceOnUse">
<stop offset="0.49738" stop-color="#FCE77B"/>
<stop offset="0.49738" stop-color="#FFCC1D"/>
</linearGradient>
<linearGradient id="paint14_linear_86834_1258" x1="50.4541" y1="33.4829" x2="50.4541" y2="37.5794" gradientUnits="userSpaceOnUse">
<stop stop-color="#FFCD1D"/>
<stop offset="1" stop-color="#FF971D"/>
</linearGradient>
<linearGradient id="paint15_linear_86834_1258" x1="34.1469" y1="39.813" x2="34.1469" y2="43.1647" gradientUnits="userSpaceOnUse">
<stop stop-color="#FFCD1D"/>
<stop offset="1" stop-color="#FF971D"/>
</linearGradient>
<linearGradient id="paint16_linear_86834_1258" x1="66.6744" y1="39.813" x2="66.6744" y2="43.1647" gradientUnits="userSpaceOnUse">
<stop stop-color="#FFCD1D"/>
<stop offset="1" stop-color="#FF971D"/>
</linearGradient>
<linearGradient id="paint17_linear_86834_1258" x1="40.2269" y1="63.1146" x2="60.7516" y2="63.1146" gradientUnits="userSpaceOnUse">
<stop stop-color="#FDE07C"/>
<stop offset="1" stop-color="#FFEFB9"/>
</linearGradient>
<linearGradient id="paint18_linear_86834_1258" x1="23.6563" y1="75.2735" x2="77.5648" y2="74.6727" gradientUnits="userSpaceOnUse">
<stop stop-color="#FDA875"/>
<stop offset="1" stop-color="#E34914"/>
</linearGradient>
</defs>
</svg>
