<svg width="100" height="100" viewBox="0 0 100 100" fill="none" xmlns="http://www.w3.org/2000/svg">
<path d="M66.7153 41.203C72.3518 46.3335 75.3003 52.7304 75.1081 60.4184C74.9456 66.9244 72.4853 72.5402 67.8534 77.1246C58.4724 86.4085 43.4689 86.6429 33.7866 77.4711C23.7297 67.9446 23.3891 51.6368 34.076 41.6281C33.9766 41.4708 33.8838 41.2972 33.7666 41.1421C32.4037 39.3407 31.0296 37.5482 29.6741 35.7423C28.3319 33.9535 27.2472 32.0037 26.1714 30.0501C25.5712 28.9602 25.0199 27.8436 24.4494 26.7374C24.3433 26.5319 24.2409 26.3234 24.157 26.1082C23.8677 25.3663 23.9753 24.6763 24.5043 24.085C24.7521 23.8075 25.0459 23.5575 25.3567 23.3512C26.0074 22.9194 26.6648 22.4905 27.3526 22.1225C30.8478 20.2499 34.3728 18.4396 38.0179 16.8652C39.1612 16.3718 40.3231 16.1477 41.5391 16.0631C43.0742 15.9563 44.6078 15.9971 46.1414 16.0958C47.6438 16.193 49.1477 16.2761 50.6494 16.3829C52.5851 16.5209 54.5186 16.6767 56.4536 16.8229C56.8 16.8489 57.1473 16.8622 57.4938 16.8874C57.8447 16.9127 58.1608 16.8934 58.4753 16.6619C58.8656 16.3748 59.339 16.3325 59.8042 16.5001C60.2389 16.6567 60.6782 16.8095 61.0929 17.0106C63.4122 18.1383 65.6744 19.3663 67.8126 20.8153C69.275 21.8057 70.7648 22.7554 72.2279 23.7459C72.9468 24.2326 73.6435 24.7535 74.3246 25.2914C74.6392 25.5399 74.9226 25.8434 75.1637 26.1639C75.5763 26.7129 75.6601 27.3354 75.3633 27.9675C75.2045 28.3059 75.0139 28.6353 74.795 28.9387C72.6397 31.9213 70.6327 35.0026 68.6807 38.1202C68.3119 38.7093 67.9632 39.311 67.5915 39.8979C67.3155 40.3327 67.0173 40.7548 66.7153 41.203ZM38.4927 78.1262C38.5988 78.2071 38.7049 78.2887 38.8118 78.3696C39.0596 78.5172 39.3052 78.6693 39.5559 78.811C44.5529 81.6452 49.8674 82.4851 55.4764 81.252C64.9213 79.1753 72.2783 70.9554 72.7183 60.5371C72.7992 58.617 72.6159 56.7161 72.1863 54.8487C69.9509 45.13 61.6553 38.141 51.6035 37.6491C50.3252 37.5868 49.055 37.6632 47.7929 37.8308C46.4745 38.0059 45.1635 38.2411 43.9104 38.7167C43.8421 38.756 43.7739 38.7946 43.7056 38.8339L43.7227 38.8184C43.3925 38.9141 43.0527 38.9853 42.7329 39.1077C32.8511 42.8968 27.0461 53.1608 28.9136 63.5701C29.8536 68.8127 32.3851 73.1493 36.4272 76.609C36.5741 76.7343 36.7603 76.8137 36.9287 76.9139L36.925 76.9102C37.0393 77.0333 37.1528 77.1565 37.2671 77.2797C37.385 77.4807 37.5275 77.6417 37.7924 77.6069L37.8013 77.6128C37.8257 77.8168 37.9348 77.8784 38.124 77.8042L38.1292 77.8124C38.1129 78.0795 38.2932 78.1173 38.4965 78.1292C38.495 78.1292 38.4927 78.1262 38.4927 78.1262ZM51.927 27.6633C52.2 27.3302 52.4211 26.9711 52.5213 26.5037C50.3051 26.3093 48.1313 26.1186 45.9136 25.9242C45.9692 26.4495 46.2178 26.8264 46.4797 27.1981C46.5264 27.3324 46.5576 27.4749 46.6222 27.6003C47.4576 29.208 48.2974 30.8143 49.141 32.4184C49.19 32.5119 49.2798 32.5846 49.374 32.6952C49.4794 32.5089 49.5684 32.362 49.6463 32.2099C50.3712 30.8032 51.0945 29.3965 51.815 27.9876C51.8662 27.8867 51.8899 27.7717 51.927 27.6633ZM41.4397 36.9769C42.0437 36.804 42.6431 36.6193 43.1922 36.3269C43.1751 36.232 43.1796 36.1667 43.1521 36.1214C40.2155 31.2224 37.2767 26.3241 34.3372 21.4266C34.3231 21.4036 34.2971 21.3865 34.2741 21.3702C34.2511 21.3546 34.2236 21.3443 34.1405 21.3027C33.8497 21.4674 33.527 21.6507 33.2035 21.8332C32.7539 22.0024 32.2991 22.1641 31.9563 22.5084C35.1933 27.2842 37.6558 32.4399 40.4938 37.4376C40.8261 37.2759 41.1333 37.1267 41.4397 36.9769ZM71.9178 26.5185C71.3472 25.9932 70.698 25.5889 69.9806 25.2016C67.5099 29.5879 64.8426 33.7992 62.4788 38.2211C62.944 38.5587 63.4033 38.8458 63.9063 39.061C64.0621 39.1886 64.2068 39.3325 64.376 39.4379C64.5333 39.5358 64.6527 39.7406 64.8938 39.6731C65.5349 38.6396 66.17 37.606 66.8155 36.5785C67.4773 35.5256 68.1413 34.4736 68.8202 33.4319C69.4827 32.414 70.1571 31.4027 70.8412 30.3996C71.5386 29.3765 72.2546 28.3667 72.9713 27.3391C72.6404 26.9763 72.3206 26.6959 71.9178 26.5185ZM37.4214 19.8166C37.0052 19.9116 36.6201 20.0704 36.2662 20.336C36.3515 20.4836 36.399 20.5897 36.4665 20.6817C37.8235 22.5284 38.9453 24.5235 40.1228 26.4837C41.9413 29.5115 43.7894 32.5201 45.6265 35.5368C45.6554 35.5835 45.6999 35.6214 45.7378 35.6644C46.1028 35.7334 46.4241 35.5524 46.7646 35.5138C47.1096 35.5064 47.4487 35.4774 47.7818 35.2311C47.6661 34.9521 47.5718 34.6821 47.4457 34.4268C47.1519 33.8318 46.8425 33.2442 46.5398 32.6529C45.5144 30.6482 44.4824 28.6471 43.466 26.638C42.3189 24.3714 41.1897 22.0958 40.0441 19.8292C39.8913 19.5272 39.7822 19.1874 39.4632 18.9441C38.7509 19.1563 38.0646 19.433 37.4214 19.8166ZM67.1404 23.3223C66.5736 22.8326 65.9392 22.449 65.2633 22.0765C65.1646 22.199 65.0793 22.2761 65.0289 22.3718C64.2862 23.7808 63.3847 25.0896 62.4863 26.4006C61.1782 28.3088 59.9703 30.2757 58.9146 32.3375C58.3618 33.4163 57.7423 34.461 57.1562 35.5227C57.0768 35.6659 57.0152 35.818 56.9143 36.0309C57.7379 36.2802 58.5065 36.5124 59.2752 36.7446C59.5623 36.9376 59.8717 37.0718 60.2434 37.1409C60.8206 36.2579 61.3207 35.3557 61.8282 34.458C62.3245 33.5803 62.8164 32.6996 63.3224 31.8271C63.8425 30.9293 64.3752 30.039 64.905 29.1472C65.4206 28.2806 65.9533 27.423 66.4534 26.5482C66.9624 25.6579 67.6561 24.8826 68.1398 23.9047C67.7792 23.6932 67.4595 23.5077 67.1404 23.3223ZM55.4297 20.77C55.5862 20.5296 55.7554 20.2966 55.8949 20.0466C56.0277 19.8084 56.2673 19.6066 56.234 19.2668C51.6169 18.8105 47.0191 18.559 42.422 18.2919C42.3197 18.286 42.215 18.3083 42.0333 18.3238C42.1995 18.7987 42.3709 19.1793 42.6483 19.5109C42.6936 19.6467 42.7218 19.7914 42.7863 19.9175C43.391 21.1039 44.0016 22.2865 44.613 23.4692C44.6523 23.5456 44.7102 23.6124 44.7658 23.6932C45.5538 23.6932 46.3053 23.6769 47.0562 23.6977C47.807 23.7192 48.5579 23.7704 49.308 23.8223C50.0581 23.8743 50.8059 23.964 51.5568 23.9989C52.2995 24.0338 53.0355 24.1903 53.8041 24.1629C54.3568 23.0092 54.8933 21.8896 55.4297 20.77ZM27.4713 24.9159C27.1018 25.0198 26.7879 25.206 26.5424 25.551C27.0595 26.5541 27.5603 27.5639 28.0945 28.5552C29.5116 31.1838 31.0185 33.7539 32.9609 36.0428C33.7681 36.9939 34.4685 38.023 35.085 39.1092C35.2965 39.4817 35.5428 39.8348 35.8047 40.2473C36.0859 40.0114 36.3263 39.8096 36.5667 39.6078C36.8649 39.4334 37.1684 39.2672 37.4592 39.0818C37.7419 38.9015 38.0646 38.7679 38.2843 38.486C35.6074 33.4148 32.8384 28.4483 29.985 23.5389C29.1807 23.803 28.1175 24.3899 27.4713 24.9159ZM62.349 20.4102C61.5752 19.8915 60.1959 19.2156 59.5467 19.0465C59.3924 19.2297 59.2165 19.4189 59.063 19.6237C58.2275 20.7366 57.5309 21.9348 56.9447 23.1932C55.932 25.3663 54.8295 27.4927 53.6898 29.6013C52.7298 31.3782 51.9292 33.2412 50.7866 34.9195C50.7473 34.9774 50.7674 35.076 50.757 35.1903C51.6117 35.2363 52.4441 35.2815 53.2773 35.3268C53.6691 35.3988 54.0527 35.5487 54.431 35.4804C54.6158 35.1428 54.7798 34.8386 54.9467 34.5367C55.5766 33.4015 56.228 32.2782 56.8327 31.1304C57.6533 29.5716 58.5072 28.0328 59.494 26.5734C60.512 25.0673 61.5603 23.5819 62.5946 22.0869C62.852 21.7152 63.1473 21.3673 63.3714 20.9369C63.0301 20.6869 62.7185 20.4955 62.349 20.4102Z" fill="black"/>
<path d="M43.9095 38.7167C45.1627 38.2411 46.4737 38.0059 47.7921 37.8308C49.0541 37.6631 50.3243 37.5867 51.6027 37.649C61.6545 38.1417 69.9501 45.13 72.1855 54.8486C72.6151 56.7161 72.7983 58.6169 72.7175 60.537C72.2775 70.9553 64.9205 79.1752 55.4756 81.2519C49.8666 82.485 44.5521 81.6452 39.5551 78.811C39.3043 78.6685 39.0588 78.5164 38.8109 78.3688C38.7724 78.1988 38.6677 78.1165 38.4927 78.1254L38.4949 78.1284C38.4674 77.9125 38.3406 77.8123 38.1276 77.8116L38.1224 77.8034C38.0712 77.6439 37.9711 77.5689 37.7997 77.612L37.7908 77.606C37.8397 77.4005 37.6936 77.3286 37.5497 77.2551C37.4102 77.1282 37.2766 76.9932 37.126 76.8819C37.0867 76.853 36.9925 76.8982 36.9235 76.9101L36.9272 76.9138C36.9338 76.8411 36.9754 76.7402 36.942 76.7009C36.7751 76.502 36.5785 76.3277 36.4108 76.1296C35.8936 75.5175 35.3068 74.9744 34.8423 74.3052C33.6307 72.5579 32.6796 70.6793 31.8775 68.7213C31.1631 66.9763 30.5643 65.189 30.3959 63.3008C30.2445 61.6017 30.1236 59.8982 30.2468 58.1873C30.3091 57.3185 30.3974 56.4586 30.6749 55.6284C31.1059 54.3396 31.4954 53.0346 31.9777 51.7651C33.7079 47.2104 36.5213 43.5392 40.7882 41.0612C41.5368 40.6264 42.2365 40.1048 42.9406 39.5981C43.2381 39.3844 43.5712 39.1878 43.7203 38.8183L43.7033 38.8339C43.773 38.7953 43.8413 38.756 43.9095 38.7167ZM67.403 56.3844C67.423 46.8394 59.6193 39.5016 50.5936 39.446C41.6986 39.3911 33.7042 46.5567 33.6196 56.2182C33.5387 65.4116 40.8928 73.1878 50.4282 73.236C59.8998 73.2828 67.3867 65.6416 67.403 56.3844Z" fill="#FFF0D4"/>
<path d="M43.7219 38.8184C43.5728 39.1878 43.2396 39.3845 42.9421 39.5981C42.238 40.1041 41.5384 40.6265 40.7898 41.0612C36.5221 43.5393 33.7087 47.2104 31.9793 51.7652C31.497 53.0346 31.1075 54.3397 30.6764 55.6284C30.3989 56.4587 30.3106 57.3186 30.2483 58.1874C30.1252 59.8983 30.2453 61.6018 30.3974 63.3008C30.5659 65.1898 31.1646 66.9764 31.8791 68.7214C32.6811 70.6801 33.6315 72.558 34.8439 74.3052C35.3076 74.9744 35.8945 75.5176 36.4123 76.1297C36.58 76.3277 36.7759 76.5021 36.9436 76.7009C36.9762 76.7403 36.9354 76.8412 36.9287 76.9139C36.761 76.813 36.5741 76.7343 36.4272 76.6089C32.3851 73.1493 29.8536 68.8127 28.9136 63.5701C27.0461 53.1607 32.8518 42.8975 42.7329 39.1077C43.0519 38.9853 43.3917 38.9141 43.7219 38.8184Z" fill="#FAF9F9"/>
<path d="M53.2773 35.3267C52.4441 35.2815 51.6117 35.2362 50.757 35.1902C50.7673 35.0759 50.7473 34.9773 50.7866 34.9194C51.9292 33.2419 52.7298 31.3781 53.6898 29.6012C54.8295 27.4926 55.932 25.3662 56.9447 23.1931C57.5308 21.9348 58.2283 20.7365 59.0629 19.6236C59.2173 19.4181 59.3924 19.2296 59.5467 19.0464C60.1951 19.2163 61.5751 19.8922 62.3482 20.4108C62.2926 20.511 62.2414 20.6148 62.1798 20.7113C61.4683 21.8301 60.7212 22.9275 60.0482 24.0693C58.1007 27.3724 56.1642 30.6807 54.0638 33.8903C53.7663 34.3451 53.5377 34.8467 53.2773 35.3267Z" fill="#C1B7F7"/>
<path d="M27.4712 24.9156C28.1182 24.3888 29.1806 23.8027 29.9849 23.5386C32.8391 28.448 35.6073 33.4152 38.2842 38.4856C38.0646 38.7676 37.7418 38.9011 37.4592 39.0814C37.1683 39.2669 36.8649 39.4331 36.5666 39.6067C36.4872 39.5236 36.396 39.4494 36.3314 39.3567C35.6689 38.4115 35.0048 37.4677 34.3527 36.5151C33.1136 34.7055 31.8612 32.9041 30.7958 30.9839C29.6903 28.9918 28.5975 26.993 27.4994 24.9965C27.486 24.9727 27.4801 24.9431 27.4712 24.9156Z" fill="#C1B7F7"/>
<path d="M55.4297 20.7698C54.8932 21.8894 54.3568 23.009 53.8041 24.1627C53.0354 24.1901 52.2987 24.0336 51.5567 23.9987C50.8059 23.9631 50.058 23.8741 49.3079 23.8221C48.5578 23.7702 47.8077 23.719 47.0562 23.6975C46.3061 23.6767 45.5545 23.693 44.7658 23.693C44.7101 23.6122 44.6523 23.5454 44.613 23.469C44.0016 22.2863 43.3917 21.1029 42.7863 19.9173C42.7218 19.7912 42.6936 19.6465 42.649 19.5107C43.1951 19.5701 43.7397 19.6324 44.2858 19.6873C45.2354 19.783 46.1859 19.8721 47.1363 19.9663C48.5185 20.1028 49.9 20.2438 51.2822 20.3781C52.6645 20.5116 54.0467 20.6392 55.4297 20.7698Z" fill="#C1B7F7"/>
<path d="M59.2759 36.7443C58.5072 36.512 57.7386 36.2791 56.915 36.0305C57.0152 35.8176 57.0775 35.6655 57.1569 35.5223C57.743 34.4606 58.3626 33.4159 58.9153 32.3372C59.9711 30.2753 61.179 28.3084 62.487 26.4002C63.3855 25.0892 64.2869 23.7811 65.0296 22.3715C65.0801 22.2758 65.1654 22.1986 65.2641 22.0762C65.94 22.4486 66.5736 22.8322 67.1404 23.3219C66.2813 24.4118 65.5415 25.5774 64.8604 26.7875C63.4745 29.25 62.0463 31.6895 60.6522 34.1475C60.1684 34.9985 59.7329 35.8777 59.2759 36.7443Z" fill="#DDE4FF"/>
<path d="M37.4213 19.8166C38.0646 19.433 38.7509 19.1563 39.4639 18.9434C39.7829 19.1867 39.892 19.5265 40.0448 19.8285C41.1904 22.0958 42.3196 24.3706 43.4666 26.6372C44.4831 28.6464 45.5151 30.6474 46.5405 32.6521C46.8432 33.2435 47.1526 33.8311 47.4464 34.4261C47.5725 34.6813 47.6675 34.9514 47.7825 35.2304C47.4486 35.4767 47.1103 35.5056 46.7645 35.513C46.6392 35.2556 46.5345 34.9855 46.3862 34.7422C44.4831 31.606 42.4999 28.5195 40.7103 25.3144C39.6694 23.4499 38.69 21.5468 37.4213 19.8166Z" fill="#C1B7F7"/>
<path d="M63.9055 39.0611C63.4025 38.8451 62.9432 38.5588 62.478 38.2212C64.8418 33.7992 67.5091 29.588 69.9798 25.2017C70.6972 25.589 71.3464 25.9933 71.917 26.5186C70.9969 27.7406 70.0762 28.9603 69.2823 30.2728C67.5039 33.2109 65.6995 36.1326 63.9055 39.0611Z" fill="#C1B7F7"/>
<path d="M33.2042 21.8337C33.5269 21.6505 33.8504 21.4679 34.1412 21.3032C34.2243 21.3448 34.2518 21.3552 34.2748 21.3707C34.2978 21.3863 34.3245 21.4034 34.3378 21.4271C37.2774 26.3247 40.2162 31.2222 43.1528 36.1219C43.1803 36.1679 43.1758 36.2332 43.1929 36.3275C42.6438 36.6198 42.0443 36.8045 41.4404 36.9774C41.0583 36.3312 40.6896 35.6768 40.2911 35.0402C38.8792 32.7817 37.6558 30.4239 36.5228 28.0148C35.5264 25.8958 34.5181 23.782 33.2042 21.8337Z" fill="#DDE4FF"/>
<path d="M37.4214 19.8164C38.6893 21.5466 39.6687 23.4497 40.7104 25.3149C42.4999 28.5201 44.4839 31.6065 46.3862 34.7427C46.5338 34.9861 46.6392 35.2561 46.7646 35.5136C46.4248 35.5514 46.1035 35.7324 45.7385 35.6634C45.6999 35.6204 45.6554 35.5826 45.6272 35.5358C43.7902 32.5199 41.9412 29.5106 40.1235 26.4827C38.946 24.5225 37.825 22.5274 36.4672 20.6808C36.3997 20.5888 36.3515 20.4834 36.2669 20.335C36.6208 20.0701 37.0051 19.9121 37.4214 19.8164Z" fill="#FAF9F9"/>
<path d="M63.9055 39.061C65.6995 36.1326 67.5039 33.2108 69.2816 30.2728C70.0762 28.9603 70.997 27.7405 71.9162 26.5186C72.3198 26.6959 72.6396 26.9763 72.9698 27.3384C72.2531 28.366 71.5371 29.3765 70.8397 30.3989C70.1556 31.4027 69.4812 32.4133 68.8186 33.4312C68.1398 34.4736 67.4757 35.5249 66.8139 36.5777C66.1684 37.6046 65.5333 38.6388 64.8923 39.6724C64.6512 39.7399 64.5317 39.5351 64.3744 39.4372C64.206 39.3326 64.0613 39.1886 63.9055 39.061Z" fill="#FAF9F9"/>
<path d="M33.2042 21.834C34.5181 23.7823 35.5272 25.8968 36.5229 28.0143C37.6558 30.4234 38.8792 32.7813 40.2912 35.0397C40.6888 35.6763 41.0576 36.3307 41.4404 36.9769C41.1333 37.1268 40.8261 37.2767 40.4944 37.4384C37.6565 32.4407 35.194 27.285 31.957 22.5091C32.2997 22.1649 32.7538 22.0031 33.2042 21.834Z" fill="#FAF9F9"/>
<path d="M27.4713 24.916C27.4809 24.9435 27.4861 24.9731 27.4995 24.9976C28.5975 26.9942 29.6904 28.993 30.7959 30.9851C31.8613 32.9059 33.1137 34.7074 34.3527 36.5162C35.0049 37.4689 35.6689 38.4126 36.3315 39.3578C36.396 39.4506 36.488 39.5248 36.5667 39.6079C36.3263 39.8104 36.0859 40.0115 35.8047 40.2482C35.5421 39.8356 35.2957 39.4825 35.085 39.11C34.4685 38.0231 33.7681 36.994 32.9609 36.0436C31.0177 33.7547 29.5109 31.1846 28.0945 28.556C27.5603 27.5647 27.0595 26.555 26.5424 25.5519C26.7879 25.2061 27.101 25.0206 27.4713 24.916Z" fill="#FAF9F9"/>
<path d="M59.2759 36.7444C59.7329 35.8778 60.1684 34.9986 60.6514 34.1469C62.0455 31.6889 63.4738 29.2494 64.8597 26.7869C65.5408 25.5768 66.2805 24.4112 67.1397 23.3213C67.4594 23.5068 67.7785 23.693 68.1405 23.903C67.6568 24.8808 66.9631 25.6562 66.4541 26.5465C65.9533 27.422 65.4206 28.2789 64.9057 29.1455C64.3752 30.0373 63.8432 30.9276 63.3231 31.8254C62.8171 32.6979 62.3252 33.5778 61.8289 34.4563C61.3214 35.354 60.8221 36.2562 60.2441 37.1391C59.8724 37.0716 59.563 36.9373 59.2759 36.7444Z" fill="#FAF9F9"/>
<path d="M53.2773 35.3265C53.5378 34.8465 53.7663 34.345 54.0645 33.8902C56.1657 30.6805 58.1014 27.3715 60.049 24.0691C60.7219 22.928 61.4691 21.83 62.1806 20.7111C62.2422 20.6147 62.2926 20.5108 62.349 20.4106C62.7192 20.496 63.0309 20.6874 63.3721 20.9374C63.1481 21.367 62.852 21.7157 62.5953 22.0874C61.5611 23.5824 60.5127 25.0678 59.4948 26.5739C58.5087 28.0333 57.6548 29.5721 56.8334 31.1309C56.2288 32.2787 55.5774 33.4027 54.9474 34.5371C54.7798 34.8391 54.6158 35.1433 54.4318 35.4809C54.0527 35.5484 53.6691 35.3985 53.2773 35.3265Z" fill="#FAF9F9"/>
<path d="M51.927 27.6632C51.8907 27.7715 51.8662 27.8865 51.815 27.9867C51.0946 29.3956 50.3712 30.8023 49.6463 32.2091C49.5677 32.3612 49.4786 32.5081 49.374 32.6943C49.2798 32.5837 49.1908 32.511 49.1411 32.4175C48.2975 30.8135 47.4584 29.2072 46.6222 27.5994C46.5569 27.4748 46.5265 27.3316 46.4797 27.1973C46.6815 27.2091 46.8863 27.2025 47.0852 27.2351C48.6885 27.5015 50.3044 27.6135 51.927 27.6632Z" fill="#DDE4FF"/>
<path d="M51.927 27.6634C50.3051 27.6137 48.6884 27.5017 47.0851 27.2361C46.887 27.2034 46.6815 27.2101 46.4797 27.1982C46.2178 26.8265 45.97 26.4496 45.9136 25.9243C48.1312 26.1187 50.3051 26.3094 52.5213 26.5038C52.4204 26.9712 52.2 27.3303 51.927 27.6634Z" fill="#FAF9F9"/>
<path d="M43.9095 38.7168C43.8412 38.7561 43.773 38.7947 43.7047 38.834C43.773 38.7954 43.8412 38.7561 43.9095 38.7168Z" fill="#FAF9F9"/>
<path d="M73.1078 41.381C73.3779 40.8713 75.255 38.3747 75.6341 38.02C76.2684 39.5158 76.6246 41.0241 76.5771 42.0168C75.7112 42.1949 73.8126 41.8469 73.1078 41.381Z" fill="#FAF9F9"/>
<path d="M24.9242 40.8504C24.9665 40.1864 25.5296 39.6782 26.2003 39.7004C26.9549 39.7249 27.4772 40.3251 27.4067 41.0878C27.3451 41.76 26.7946 42.22 26.0935 42.1866C25.382 42.1518 24.8782 41.5768 24.9242 40.8504Z" fill="#FAF9F9"/>
<path d="M67.4031 56.3843C67.3868 65.6415 59.8999 73.2827 50.4276 73.2352C40.8922 73.1877 33.5389 65.4107 33.619 56.2174C33.7036 46.5559 41.698 39.3902 50.593 39.4451C59.6194 39.5015 67.4231 46.8393 67.4031 56.3843ZM40.0538 66.2921C40.1161 66.3693 40.1777 66.4457 40.24 66.5229C40.2519 66.5496 40.2571 66.583 40.2764 66.6015C43.8941 70.0545 48.1929 71.4649 53.1082 70.5865C60.8837 69.1976 66.3117 61.7767 64.7077 53.4084C63.3299 47.7519 59.8776 44.0333 54.2909 42.3691C52.6497 41.8802 50.9477 41.6895 49.2271 41.9737C48.316 41.9299 47.4457 42.1606 46.5851 42.4018C40.0004 44.2514 36.0585 50.2299 36.0325 56.1202C36.0169 59.7119 37.1336 62.8748 39.4002 65.6429C39.5983 65.8848 39.8431 66.0874 40.0664 66.3085L40.0538 66.2921Z" fill="black"/>
<path d="M49.227 41.9735C50.9468 41.6894 52.6496 41.88 54.2907 42.369C59.8775 44.0332 63.3297 47.7517 64.7075 53.4083C66.3116 61.7766 60.8836 69.1974 53.1081 70.5863C48.192 71.4641 43.8932 70.0544 40.2763 66.6014C40.257 66.5829 40.2518 66.5495 40.2399 66.5228C40.2303 66.4033 40.2369 66.2712 40.0537 66.2928L40.0663 66.3091C40.2013 66.0932 40.0477 65.924 39.9661 65.7504C39.6612 65.096 39.3429 64.4476 39.038 63.7932C37.7277 60.979 37.4688 58.0224 37.865 54.9819C38.1454 52.8251 38.9415 50.8404 40.0641 49.0056C41.8707 46.0527 44.466 43.9953 47.6333 42.6391C48.1623 42.4105 48.6958 42.1946 49.227 41.9735ZM62.9773 57.1143C62.9424 55.1348 62.5967 53.113 61.9089 51.1632C61.3636 49.6162 60.5 48.2474 59.3129 47.1003C58.7928 46.598 58.2556 46.1128 57.7229 45.6239C57.6168 45.5267 57.5033 45.431 57.3779 45.3642C56.8571 45.0845 56.2116 45.2915 55.9764 45.8131C55.8213 46.1566 55.8488 46.5008 56.0751 46.8006C56.406 47.2391 56.7347 47.6835 57.1093 48.0834C58.6466 49.7246 59.7395 51.5928 60.1691 53.826C60.4933 55.5117 60.7181 57.1973 60.4184 58.912C60.2114 60.0939 59.8471 61.212 59.1163 62.1861C58.9961 62.3464 58.8826 62.5207 58.8084 62.7047C58.5049 63.4534 59.0035 64.2057 59.8078 64.2354C60.2759 64.2524 60.6647 64.0669 60.9518 63.716C61.2071 63.4044 61.4408 63.0683 61.6344 62.7159C62.5745 61.0013 62.958 59.1472 62.9773 57.1143ZM57.8068 65.3787C57.8142 64.7532 57.3297 64.2294 56.7577 64.2435C56.2094 64.2569 55.7271 64.774 55.7471 65.3268C55.7672 65.8892 56.2635 66.3677 56.8163 66.3573C57.3801 66.3469 57.8008 65.9322 57.8068 65.3787Z" fill="#FFF0D4"/>
<path d="M49.227 41.9737C48.6958 42.1948 48.1616 42.4107 47.6326 42.6369C44.466 43.9932 41.87 46.0506 40.0633 49.0035C38.9408 50.8383 38.1447 52.8237 37.8642 54.9798C37.4688 58.0203 37.727 60.9769 39.0372 63.7911C39.3422 64.4454 39.6605 65.0939 39.9654 65.7483C40.0463 65.9226 40.1999 66.0911 40.0656 66.307C39.8422 66.0859 39.5974 65.8833 39.3993 65.6415C37.1327 62.8733 36.0161 59.7111 36.0317 56.1187C36.0576 50.2284 39.9995 44.2499 46.5842 42.4003C47.4456 42.1599 48.3167 41.9299 49.227 41.9737Z" fill="#FAF9F9"/>
<path d="M62.9774 57.1146C62.9581 59.1475 62.5745 61.0016 61.6352 62.7155C61.4423 63.0679 61.2078 63.4047 60.9526 63.7156C60.6655 64.0658 60.2767 64.2513 59.8085 64.2349C59.0035 64.206 58.5057 63.4529 58.8091 62.7043C58.8841 62.5196 58.9969 62.346 59.1171 62.1857C59.8479 61.2108 60.2122 60.0934 60.4192 58.9115C60.7196 57.1969 60.4941 55.512 60.1699 53.8256C59.7403 51.5923 58.6474 49.7249 57.1101 48.083C56.7354 47.6831 56.4068 47.2386 56.0759 46.8002C55.8503 46.5011 55.8229 46.1569 55.9772 45.8126C56.2124 45.2911 56.8579 45.0841 57.3787 45.3638C57.5041 45.4313 57.6176 45.527 57.7237 45.6234C58.2564 46.1124 58.7936 46.5976 59.3137 47.0999C60.5008 48.2469 61.3644 49.6158 61.9097 51.1627C62.5967 53.1133 62.9425 55.1351 62.9774 57.1146Z" fill="#FDFDFD"/>
</svg>
