<svg width="49" height="13" viewBox="0 0 49 13" fill="none" xmlns="http://www.w3.org/2000/svg">
<rect x="0.698608" y="0.5" width="12" height="12" rx="2" fill="#1246FF"/>
<rect x="0.698608" y="0.5" width="12" height="12" rx="2" fill="url(#paint0_linear_211_356)"/>
<path d="M8.81272 3.02002H4.68126C4.57924 3.02002 4.38701 3.07076 4.33002 3.15538L2.65093 5.64874C2.56952 5.76963 2.58445 5.93113 2.68665 6.03504L6.47716 9.8892C6.59718 10.0112 6.79388 10.0114 6.91409 9.88953L10.7103 6.04125C10.8127 5.93745 10.8278 5.77591 10.7465 5.65488L9.06725 3.15565C9.01029 3.07087 8.91486 3.02002 8.81272 3.02002Z" fill="white"/>
<path d="M5.07739 5.61066L5.11127 5.75842C5.40061 7.02054 7.05242 7.33627 7.78687 6.26985V6.26985" stroke="#1347FF" stroke-width="0.4847" stroke-linecap="round"/>
<ellipse cx="8.05722" cy="5.57193" rx="0.252044" ry="0.252044" fill="#1347FF"/>
<path d="M48.701 2V9.02439H47.3496V2H48.701Z" fill="#202223"/>
<path d="M43.2844 9.12729C42.9506 9.12729 42.651 9.06784 42.3858 8.94893C42.1205 8.83003 41.9113 8.65396 41.7581 8.42073C41.6049 8.18521 41.5283 7.89482 41.5283 7.54954C41.5283 7.25457 41.5821 7.00877 41.6895 6.81212C41.7993 6.61547 41.9479 6.4577 42.1354 6.3388C42.3229 6.21989 42.5356 6.12957 42.7734 6.06784C43.0112 6.0061 43.2593 5.96265 43.5177 5.9375C43.8263 5.90549 44.0756 5.87576 44.2654 5.84832C44.4551 5.82088 44.5923 5.77858 44.6769 5.72142C44.7638 5.66425 44.8073 5.57851 44.8073 5.46418V5.4436C44.8073 5.20579 44.7353 5.02172 44.5912 4.89139C44.4471 4.76105 44.2402 4.69588 43.9704 4.69588C43.6869 4.69588 43.4616 4.75762 43.2947 4.8811C43.1301 5.00457 43.0192 5.15549 42.962 5.33384L41.7067 5.19665C41.7867 4.87652 41.9296 4.60442 42.1354 4.38034C42.3412 4.15396 42.5996 3.98247 42.9106 3.86585C43.2238 3.74695 43.5771 3.6875 43.9704 3.6875C44.2448 3.6875 44.5112 3.71951 44.7696 3.78354C45.0302 3.84756 45.2646 3.94931 45.4727 4.0888C45.683 4.22828 45.85 4.41349 45.9734 4.64444C46.0969 4.87309 46.1587 5.1532 46.1587 5.48476V9.02439H44.869V8.29726H44.8279C44.7478 8.45274 44.6381 8.59337 44.4986 8.71913C44.3614 8.84489 44.1911 8.94436 43.9875 9.01753C43.7863 9.0907 43.5519 9.12729 43.2844 9.12729ZM43.6548 8.16692C43.8881 8.16692 44.0916 8.12119 44.2654 8.02973C44.4391 7.93598 44.5741 7.81136 44.6701 7.65587C44.7661 7.50038 44.8141 7.32774 44.8141 7.13796V6.54802C44.773 6.57774 44.709 6.60633 44.6221 6.63377C44.5375 6.65892 44.4414 6.68178 44.334 6.70236C44.2288 6.72066 44.1236 6.7378 44.0184 6.75381C43.9132 6.76982 43.8195 6.78354 43.7372 6.79497C43.5588 6.82012 43.401 6.86128 43.2638 6.91844C43.1266 6.97332 43.0192 7.04992 42.9414 7.14825C42.8637 7.24428 42.8248 7.36662 42.8248 7.51524C42.8248 7.7279 42.9026 7.89024 43.058 8.00229C43.2158 8.11204 43.4148 8.16692 43.6548 8.16692Z" fill="#202223"/>
<path d="M37.1508 11C36.9748 11 36.8101 10.9863 36.6569 10.9588C36.506 10.9314 36.3826 10.8983 36.2865 10.8594L36.5952 9.83042C36.7713 9.88301 36.929 9.90931 37.0685 9.90931C37.2103 9.91159 37.3338 9.87386 37.439 9.79612C37.5441 9.71838 37.631 9.58918 37.6996 9.40854L37.7957 9.15473L35.8955 3.7561H37.3223L38.4748 7.67988H38.5297L39.689 3.7561H41.1226L39.0441 9.62806C38.9458 9.90931 38.8143 10.1528 38.6497 10.3586C38.4851 10.5644 38.2793 10.7222 38.0323 10.8319C37.7877 10.944 37.4938 11 37.1508 11Z" fill="#202223"/>
<path d="M32.9374 9.12729C32.4137 9.12729 31.961 9.0141 31.5791 8.78773C31.1973 8.55907 30.9011 8.24124 30.6908 7.83422C30.4827 7.42721 30.3787 6.95274 30.3787 6.41082C30.3787 5.86662 30.4827 5.38986 30.6908 4.98056C30.9011 4.57126 31.1973 4.25343 31.5791 4.02706C31.961 3.80069 32.4137 3.6875 32.9374 3.6875C33.461 3.6875 33.9137 3.80069 34.2956 4.02706C34.6797 4.25343 34.9758 4.57126 35.1839 4.98056C35.392 5.38986 35.496 5.86662 35.496 6.41082C35.496 6.95274 35.392 7.42721 35.1839 7.83422C34.9758 8.24124 34.6797 8.55907 34.2956 8.78773C33.9137 9.0141 33.461 9.12729 32.9374 9.12729ZM32.9442 8.06402C33.2049 8.06402 33.4221 7.99085 33.5959 7.84451C33.772 7.69817 33.9034 7.50038 33.9903 7.25114C34.0795 6.99962 34.1241 6.71723 34.1241 6.40396C34.1241 6.08841 34.0795 5.80602 33.9903 5.55678C33.9034 5.30526 33.772 5.10633 33.5959 4.95998C33.4221 4.81136 33.2049 4.73704 32.9442 4.73704C32.679 4.73704 32.4572 4.81136 32.2788 4.95998C32.1027 5.10633 31.9701 5.30526 31.881 5.55678C31.7941 5.80602 31.7506 6.08841 31.7506 6.40396C31.7506 6.71723 31.7941 6.99962 31.881 7.25114C31.9701 7.50038 32.1027 7.69817 32.2788 7.84451C32.4572 7.99085 32.679 8.06402 32.9442 8.06402Z" fill="#202223"/>
<path d="M29.3746 2V9.02439H28.0232V2H29.3746Z" fill="#202223"/>
<path d="M24.4673 9.12729C23.9436 9.12729 23.4909 9.0141 23.109 8.78773C22.7272 8.55907 22.4311 8.24124 22.2207 7.83422C22.0126 7.42721 21.9086 6.95274 21.9086 6.41082C21.9086 5.86662 22.0126 5.38986 22.2207 4.98056C22.4311 4.57126 22.7272 4.25343 23.109 4.02706C23.4909 3.80069 23.9436 3.6875 24.4673 3.6875C24.9909 3.6875 25.4436 3.80069 25.8255 4.02706C26.2096 4.25343 26.5057 4.57126 26.7138 4.98056C26.9219 5.38986 27.0259 5.86662 27.0259 6.41082C27.0259 6.95274 26.9219 7.42721 26.7138 7.83422C26.5057 8.24124 26.2096 8.55907 25.8255 8.78773C25.4436 9.0141 24.9909 9.12729 24.4673 9.12729ZM24.4741 8.06402C24.7348 8.06402 24.952 7.99085 25.1258 7.84451C25.3019 7.69817 25.4333 7.50038 25.5202 7.25114C25.6094 6.99962 25.654 6.71723 25.654 6.40396C25.654 6.08841 25.6094 5.80602 25.5202 5.55678C25.4333 5.30526 25.3019 5.10633 25.1258 4.95998C24.952 4.81136 24.7348 4.73704 24.4741 4.73704C24.2089 4.73704 23.9871 4.81136 23.8087 4.95998C23.6327 5.10633 23.5 5.30526 23.4109 5.55678C23.324 5.80602 23.2805 6.08841 23.2805 6.40396C23.2805 6.71723 23.324 6.99962 23.4109 7.25114C23.5 7.50038 23.6327 7.69817 23.8087 7.84451C23.9871 7.99085 24.2089 8.06402 24.4741 8.06402Z" fill="#202223"/>
<path d="M16.6986 9.02439V2H18.0774V7.87881H21.13V9.02439H16.6986Z" fill="#202223"/>
<defs>
<linearGradient id="paint0_linear_211_356" x1="6.69861" y1="0.5" x2="6.69861" y2="12.5" gradientUnits="userSpaceOnUse">
<stop stop-color="white" stop-opacity="0"/>
<stop offset="1" stop-color="white" stop-opacity="0.4"/>
</linearGradient>
</defs>
</svg>
