<svg width="80" height="80" viewBox="0 0 80 80" fill="none" xmlns="http://www.w3.org/2000/svg">
<g opacity="0.4">
<path d="M60.9414 51.729L55.8195 39.1963H25.0882L19.9663 51.729" stroke="#000000" stroke-width="2.28571" stroke-linecap="round" stroke-linejoin="round"/>
<path d="M48.7729 54.8809V53.738C48.4589 53.738 48.1588 53.8672 47.9429 54.0952C47.7271 54.3231 47.6145 54.6299 47.6317 54.9434L48.7729 54.8809ZM60.9424 54.8809H62.0853C62.0853 54.2497 61.5736 53.738 60.9424 53.738V54.8809ZM19.9673 54.8809V53.738C19.3361 53.738 18.8244 54.2497 18.8244 54.8809H19.9673ZM32.5876 54.8809L33.7287 54.9434C33.7459 54.6299 33.6333 54.3231 33.4175 54.0952C33.2016 53.8672 32.9015 53.738 32.5876 53.738V54.8809ZM47.6423 55.3314C47.6423 59.1765 44.5253 62.2935 40.6802 62.2935V64.5792C45.7876 64.5792 49.928 60.4388 49.928 55.3314H47.6423ZM47.6317 54.9434C47.6388 55.0717 47.6423 55.2011 47.6423 55.3314H49.928C49.928 55.1594 49.9233 54.9883 49.914 54.8183L47.6317 54.9434ZM48.7729 56.0237H60.9424V53.738H48.7729V56.0237ZM59.7996 54.8809V69.027H62.0853V54.8809H59.7996ZM59.7996 69.027C59.7996 70.2817 58.7825 71.2988 57.5278 71.2988V73.5845C60.0448 73.5845 62.0853 71.544 62.0853 69.027H59.7996ZM57.5278 71.2988H23.3819V73.5845H57.5278V71.2988ZM23.3819 71.2988C22.1272 71.2988 21.1101 70.2817 21.1101 69.027H18.8244C18.8244 71.544 20.8649 73.5845 23.3819 73.5845V71.2988ZM21.1101 69.027V54.8809H18.8244V69.027H21.1101ZM19.9673 56.0237H32.5876V53.738H19.9673V56.0237ZM33.7181 55.3314C33.7181 55.2011 33.7217 55.0717 33.7287 54.9434L31.4464 54.8183C31.4371 54.9883 31.4324 55.1593 31.4324 55.3314H33.7181ZM40.6802 62.2935C36.8351 62.2935 33.7181 59.1765 33.7181 55.3314H31.4324C31.4324 60.4388 35.5728 64.5792 40.6802 64.5792V62.2935Z" fill="#000000"/>
<path d="M37.5314 25.9658L27.2231 23.9042L54.5399 8.44189L52.4783 33.697L40.1084 26.4813" stroke="#000000" stroke-width="2.28571" stroke-linecap="round" stroke-linejoin="round"/>
<path d="M50.9315 13.5962L40.1079 26.4815V34.728L43.2004 31.6356" stroke="#000000" stroke-width="2.28571" stroke-linecap="round" stroke-linejoin="round"/>
<path d="M37.0148 30.0894C33.9224 33.01 27.9256 40.7088 32.3761 43.49C36.4999 46.0671 43.7156 41.4284 49.3851 42.4592C55.0547 43.49 52.9926 49.1595 44.7461 52.252" stroke="#000000" stroke-width="2.28571" stroke-linecap="round" stroke-linejoin="round" stroke-dasharray="4 4"/>
</g>
</svg>
