<svg width="32" height="32" viewBox="0 0 32 32" fill="none" xmlns="http://www.w3.org/2000/svg">
<path d="M25.736 5H5.864C5.3861 5 5 5.3861 5 5.864V25.736C5 26.2139 5.3861 26.6 5.864 26.6H25.736C26.2139 26.6 26.6 26.2139 26.6 25.736V5.864C26.6 5.3861 26.2139 5 25.736 5ZM23.2412 11.3045H21.5159C20.1632 11.3045 19.9013 11.9471 19.9013 12.8921V14.9738H23.1305L22.7093 18.2327H19.9013V26.6H16.5344V18.2354H13.7183V14.9738H16.5344V12.5708C16.5344 9.7817 18.2381 8.2616 20.7275 8.2616C21.9209 8.2616 22.9442 8.3507 23.2439 8.3912V11.3045H23.2412Z" fill="#000000"/>
</svg>
