<svg width="32" height="32" viewBox="0 0 32 32" fill="none" xmlns="http://www.w3.org/2000/svg">
<path fill-rule="evenodd" clip-rule="evenodd" d="M6.214 7C4.99124 7 4 7.99124 4 9.214V23.686C4 24.9088 4.99124 25.9 6.214 25.9H25.006C26.2288 25.9 27.22 24.9088 27.22 23.686V9.214C27.22 7.99124 26.2288 7 25.006 7H6.214ZM5.62 9.214C5.62 8.88594 5.88594 8.62 6.214 8.62H25.006C25.3341 8.62 25.6 8.88594 25.6 9.214V23.686C25.6 24.0141 25.3341 24.28 25.006 24.28H6.214C5.88594 24.28 5.62 24.0141 5.62 23.686V9.214ZM8.45814 11.638C8.07165 11.4128 7.57572 11.5434 7.35044 11.9299C7.12516 12.3164 7.25584 12.8123 7.64233 13.0376L14.7031 17.1533C15.3921 17.5549 16.2439 17.5549 16.933 17.1533L23.9937 13.0376C24.3802 12.8123 24.5109 12.3164 24.2856 11.9299C24.0603 11.5434 23.5644 11.4128 23.1779 11.638L16.1171 15.7537C15.9323 15.8614 15.7037 15.8614 15.5189 15.7537L8.45814 11.638Z" fill="#000000"/>
</svg>
