<svg width="16" height="16" viewBox="0 0 16 16" fill="none" xmlns="http://www.w3.org/2000/svg">
<path fill-rule="evenodd" clip-rule="evenodd" d="M5.94715 2.34283C6.24004 2.04994 6.24004 1.57506 5.94715 1.28217C5.65426 0.989277 5.17938 0.989277 4.88649 1.28217L1.96967 4.19899C1.67678 4.49188 1.67678 4.96676 1.96967 5.25965L4.88649 8.17647C5.17938 8.46936 5.65426 8.46936 5.94715 8.17647C6.24004 7.88358 6.24004 7.4087 5.94715 7.11581L4.14384 5.3125H8.68746C10.9311 5.3125 12.75 7.13135 12.75 9.37501C12.75 11.6187 10.9311 13.4375 8.68746 13.4375H3.18745C2.77324 13.4375 2.43745 13.7733 2.43745 14.1875C2.43745 14.6017 2.77324 14.9375 3.18745 14.9375H8.68746C11.7595 14.9375 14.25 12.4471 14.25 9.37501C14.25 6.30292 11.7596 3.8125 8.68746 3.8125H4.47748L5.94715 2.34283Z" fill="#000000"/>
</svg>
