<svg width="20" height="20" viewBox="0 0 20 20" fill="none" xmlns="http://www.w3.org/2000/svg">
<path fill-rule="evenodd" clip-rule="evenodd" d="M10 2.25C5.71979 2.25 2.25 5.71979 2.25 10C2.25 14.2802 5.71979 17.75 10 17.75C14.2802 17.75 17.75 14.2802 17.75 10C17.75 9.58579 17.4142 9.25 17 9.25C16.5858 9.25 16.25 9.58579 16.25 10C16.25 13.4518 13.4518 16.25 10 16.25C6.54822 16.25 3.75 13.4518 3.75 10C3.75 6.54822 6.54822 3.75 10 3.75C10.4142 3.75 10.75 3.41421 10.75 3C10.75 2.58579 10.4142 2.25 10 2.25ZM11.875 3C11.875 2.58579 12.2108 2.25 12.625 2.25H17C17.1017 2.25 17.1987 2.27024 17.2871 2.30691C17.3755 2.34351 17.4584 2.39776 17.5303 2.46967C17.6768 2.61612 17.75 2.80806 17.75 3V7.375C17.75 7.78921 17.4142 8.125 17 8.125C16.5858 8.125 16.25 7.78921 16.25 7.375V4.81066L10.5303 10.5303C10.2374 10.8232 9.76256 10.8232 9.46967 10.5303C9.17678 10.2374 9.17678 9.76256 9.46967 9.46967L15.1893 3.75H12.625C12.2108 3.75 11.875 3.41421 11.875 3Z" fill="#000000"/>
</svg>
