<svg width="100" height="100" viewBox="0 0 100 100" fill="none" xmlns="http://www.w3.org/2000/svg">
<path d="M49.9996 2.23242L64.4119 18.9736H35.5873L49.9996 2.23242Z" fill="url(#paint0_linear_86834_1260)"/>
<path d="M50.0007 97.7676L35.5883 81.0264L64.413 81.0264L50.0007 97.7676Z" fill="url(#paint1_linear_86834_1260)"/>
<g filter="url(#filter0_f_86834_1260)">
<path d="M49.604 6.51807L51.2738 11.5572L56.3507 13.2145L51.2738 14.8718L49.604 19.911L47.9343 14.8718L42.8573 13.2145L47.9343 11.5572L49.604 6.51807Z" fill="white"/>
<path d="M49.604 6.66946L51.2286 11.5722L51.2361 11.595L51.259 11.6025L56.1973 13.2145L51.259 14.8266L51.2361 14.834L51.2286 14.8568L49.604 19.7596L47.9795 14.8568L47.9719 14.834L47.9491 14.8266L43.0108 13.2145L47.9491 11.6025L47.9719 11.595L47.9795 11.5722L49.604 6.66946Z" stroke="#3E74FF" stroke-width="0.0952384"/>
</g>
<path d="M91.679 73.8846L69.8658 77.9024L84.2781 53.1255L91.679 73.8846Z" fill="url(#paint2_linear_86834_1260)"/>
<path d="M8.32109 26.1159L30.1343 22.0981L15.722 46.875L8.32109 26.1159Z" fill="url(#paint3_linear_86834_1260)"/>
<path d="M91.6786 26.116L84.2777 46.8751L69.8654 22.0981L91.6786 26.116Z" fill="url(#paint4_linear_86834_1260)"/>
<path d="M8.32174 73.8845L15.7227 53.1254L30.135 77.9024L8.32174 73.8845Z" fill="url(#paint5_linear_86834_1260)"/>
<path d="M87.094 49.5541C87.094 69.6386 70.6896 85.9234 50.45 85.9234C30.2104 85.9234 13.806 69.6386 13.806 49.5541C13.806 29.4696 30.2104 13.1849 50.45 13.1849C70.6896 13.1849 87.094 29.4696 87.094 49.5541Z" fill="url(#paint6_linear_86834_1260)" stroke="url(#paint7_linear_86834_1260)" stroke-width="0.476192"/>
<path d="M13.9043 81.7689C14.742 79.2269 20.1873 76.2693 23.2123 75.1426L27.9375 83.4997L40.5674 86.2855C38.9943 86.2855 25.6014 92.5197 19.8033 95.5712V86.1895C16.9221 84.1188 13.9043 81.7689 13.9043 81.7689Z" fill="#6897DD"/>
<path d="M86.8767 81.7689C86.039 79.2269 80.5937 76.2693 77.5687 75.1426L72.8435 83.4997L59.2781 86.2855C60.8512 86.2855 75.1796 92.5197 80.9777 95.5712V86.1895C83.859 84.1188 86.8767 81.7689 86.8767 81.7689Z" fill="#6897DD"/>
<path d="M34.954 79.7861L40.5672 86.2861L27.9374 83.5004L34.954 79.7861Z" fill="#44618C"/>
<path d="M65.3599 79.7861L59.2788 86.2861L72.8442 83.5004L65.3599 79.7861Z" fill="#44618C"/>
<g filter="url(#filter1_i_86834_1260)">
<ellipse cx="50.4498" cy="49.5542" rx="32.3843" ry="32.143" fill="url(#paint8_linear_86834_1260)"/>
</g>
<g filter="url(#filter2_ii_86834_1260)">
<ellipse cx="50.4499" cy="49.5535" rx="26.9869" ry="26.7859" fill="url(#paint9_linear_86834_1260)"/>
</g>
<g filter="url(#filter3_d_86834_1260)">
<path d="M50.5001 29L56.7659 40.8759L69.9968 43.1652L60.6384 52.7941L62.5497 66.0848L50.5001 60.16L38.4505 66.0848L40.3619 52.7941L31.0035 43.1652L44.2343 40.8759L50.5001 29Z" fill="url(#paint10_linear_86834_1260)"/>
</g>
<path d="M50.5001 48.4211V29L56.758 40.8684L50.5001 48.4211Z" fill="url(#paint11_linear_86834_1260)"/>
<path d="M50.5004 48.4209L69.9969 43.1665L60.6425 52.7907L50.5004 48.4209Z" fill="url(#paint12_linear_86834_1260)"/>
<path d="M50.5002 48.421L30.9929 43.1665L44.2423 40.8684L50.5002 48.421Z" fill="url(#paint13_linear_86834_1260)"/>
<path d="M50.5002 48.421L62.3687 66.2236L50.5002 60.1599L50.5002 48.421Z" fill="url(#paint14_linear_86834_1260)"/>
<path d="M38.308 66.763L50.5001 48.4209L40.358 52.7906L38.308 66.763Z" fill="url(#paint15_linear_86834_1260)"/>
<g filter="url(#filter4_d_86834_1260)">
<path d="M20.4526 71.6404L27.937 83.5C48.0512 72.8214 67.2299 80.7143 72.8432 83.5L80.3276 71.6404C78.1874 69.1867 69.2186 64.2247 50.4648 64.0066C31.7109 63.7885 22.6426 69.0049 20.4526 71.6404Z" fill="url(#paint16_linear_86834_1260)"/>
</g>
<path d="M36.0564 26.3389L36.7242 28.3545L38.755 29.0175L36.7242 29.6804L36.0564 31.696L35.3885 29.6804L33.3577 29.0175L35.3885 28.3545L36.0564 26.3389Z" fill="white"/>
<path d="M27.9606 17.4111L29.5191 22.1144L34.2576 23.6612L29.5191 25.208L27.9606 29.9112L26.4022 25.208L21.6637 23.6612L26.4022 22.1144L27.9606 17.4111Z" fill="white"/>
<defs>
<filter id="filter0_f_86834_1260" x="40.4763" y="4.13711" width="18.2553" height="18.155" filterUnits="userSpaceOnUse" color-interpolation-filters="sRGB">
<feFlood flood-opacity="0" result="BackgroundImageFix"/>
<feBlend mode="normal" in="SourceGraphic" in2="BackgroundImageFix" result="shape"/>
<feGaussianBlur stdDeviation="1.19048" result="effect1_foregroundBlur_86834_1260"/>
</filter>
<filter id="filter1_i_86834_1260" x="18.0656" y="16.4587" width="64.7686" height="65.2385" filterUnits="userSpaceOnUse" color-interpolation-filters="sRGB">
<feFlood flood-opacity="0" result="BackgroundImageFix"/>
<feBlend mode="normal" in="SourceGraphic" in2="BackgroundImageFix" result="shape"/>
<feColorMatrix in="SourceAlpha" type="matrix" values="0 0 0 0 0 0 0 0 0 0 0 0 0 0 0 0 0 0 127 0" result="hardAlpha"/>
<feOffset dy="-0.952384"/>
<feGaussianBlur stdDeviation="0.952384"/>
<feComposite in2="hardAlpha" operator="arithmetic" k2="-1" k3="1"/>
<feColorMatrix type="matrix" values="0 0 0 0 0 0 0 0 0 0.172667 0 0 0 0 0.616667 0 0 0 0.15 0"/>
<feBlend mode="normal" in2="shape" result="effect1_innerShadow_86834_1260"/>
</filter>
<filter id="filter2_ii_86834_1260" x="23.463" y="21.8152" width="53.9738" height="55.4765" filterUnits="userSpaceOnUse" color-interpolation-filters="sRGB">
<feFlood flood-opacity="0" result="BackgroundImageFix"/>
<feBlend mode="normal" in="SourceGraphic" in2="BackgroundImageFix" result="shape"/>
<feColorMatrix in="SourceAlpha" type="matrix" values="0 0 0 0 0 0 0 0 0 0 0 0 0 0 0 0 0 0 127 0" result="hardAlpha"/>
<feOffset dy="0.952384"/>
<feGaussianBlur stdDeviation="2.38096"/>
<feComposite in2="hardAlpha" operator="arithmetic" k2="-1" k3="1"/>
<feColorMatrix type="matrix" values="0 0 0 0 0.132326 0 0 0 0 0.249968 0 0 0 0 0.429167 0 0 0 1 0"/>
<feBlend mode="normal" in2="shape" result="effect1_innerShadow_86834_1260"/>
<feColorMatrix in="SourceAlpha" type="matrix" values="0 0 0 0 0 0 0 0 0 0 0 0 0 0 0 0 0 0 127 0" result="hardAlpha"/>
<feOffset dy="-0.952384"/>
<feGaussianBlur stdDeviation="2.38096"/>
<feComposite in2="hardAlpha" operator="arithmetic" k2="-1" k3="1"/>
<feColorMatrix type="matrix" values="0 0 0 0 0.459931 0 0 0 0 0.557137 0 0 0 0 0.745833 0 0 0 1 0"/>
<feBlend mode="normal" in2="effect1_innerShadow_86834_1260" result="effect2_innerShadow_86834_1260"/>
</filter>
<filter id="filter3_d_86834_1260" x="29.0035" y="28" width="42.9933" height="41.085" filterUnits="userSpaceOnUse" color-interpolation-filters="sRGB">
<feFlood flood-opacity="0" result="BackgroundImageFix"/>
<feColorMatrix in="SourceAlpha" type="matrix" values="0 0 0 0 0 0 0 0 0 0 0 0 0 0 0 0 0 0 127 0" result="hardAlpha"/>
<feOffset dy="1"/>
<feGaussianBlur stdDeviation="1"/>
<feComposite in2="hardAlpha" operator="out"/>
<feColorMatrix type="matrix" values="0 0 0 0 0.231076 0 0 0 0 0.258386 0 0 0 0 0.504167 0 0 0 1 0"/>
<feBlend mode="normal" in2="BackgroundImageFix" result="effect1_dropShadow_86834_1260"/>
<feBlend mode="normal" in="SourceGraphic" in2="effect1_dropShadow_86834_1260" result="shape"/>
</filter>
<filter id="filter4_d_86834_1260" x="10.5479" y="59.0476" width="79.6845" height="39.3095" filterUnits="userSpaceOnUse" color-interpolation-filters="sRGB">
<feFlood flood-opacity="0" result="BackgroundImageFix"/>
<feColorMatrix in="SourceAlpha" type="matrix" values="0 0 0 0 0 0 0 0 0 0 0 0 0 0 0 0 0 0 127 0" result="hardAlpha"/>
<feOffset dy="4.95238"/>
<feGaussianBlur stdDeviation="4.95238"/>
<feComposite in2="hardAlpha" operator="out"/>
<feColorMatrix type="matrix" values="0 0 0 0 0 0 0 0 0 0 0 0 0 0 0 0 0 0 0.3 0"/>
<feBlend mode="normal" in2="BackgroundImageFix" result="effect1_dropShadow_86834_1260"/>
<feBlend mode="normal" in="SourceGraphic" in2="effect1_dropShadow_86834_1260" result="shape"/>
</filter>
<linearGradient id="paint0_linear_86834_1260" x1="44.0085" y1="8.92889" x2="55.9907" y2="8.92889" gradientUnits="userSpaceOnUse">
<stop offset="0.488759" stop-color="#E3EBFF"/>
<stop offset="0.488859" stop-color="#D1E5EE"/>
<stop offset="0.488959" stop-color="#B3C2D9"/>
</linearGradient>
<linearGradient id="paint1_linear_86834_1260" x1="55.9917" y1="91.0711" x2="44.0096" y2="91.0711" gradientUnits="userSpaceOnUse">
<stop offset="0.488759" stop-color="#E3EBFF"/>
<stop offset="0.488859" stop-color="#D1E5EE"/>
<stop offset="0.488959" stop-color="#B3C2D9"/>
</linearGradient>
<linearGradient id="paint2_linear_86834_1260" x1="88.8317" y1="65.3865" x2="82.9076" y2="75.7245" gradientUnits="userSpaceOnUse">
<stop offset="0.488759" stop-color="#E3EBFF"/>
<stop offset="0.488859" stop-color="#D1E5EE"/>
<stop offset="0.488959" stop-color="#B3C2D9"/>
</linearGradient>
<linearGradient id="paint3_linear_86834_1260" x1="11.1684" y1="34.614" x2="17.0925" y2="24.276" gradientUnits="userSpaceOnUse">
<stop offset="0.488759" stop-color="#E3EBFF"/>
<stop offset="0.488859" stop-color="#D1E5EE"/>
<stop offset="0.488959" stop-color="#B3C2D9"/>
</linearGradient>
<linearGradient id="paint4_linear_86834_1260" x1="82.8402" y1="24.3144" x2="88.7644" y2="34.6524" gradientUnits="userSpaceOnUse">
<stop offset="0.488759" stop-color="#E3EBFF"/>
<stop offset="0.488859" stop-color="#D1E5EE"/>
<stop offset="0.488959" stop-color="#B3C2D9"/>
</linearGradient>
<linearGradient id="paint5_linear_86834_1260" x1="17.1601" y1="75.686" x2="11.236" y2="65.3481" gradientUnits="userSpaceOnUse">
<stop offset="0.488759" stop-color="#E3EBFF"/>
<stop offset="0.488859" stop-color="#D1E5EE"/>
<stop offset="0.488959" stop-color="#B3C2D9"/>
</linearGradient>
<linearGradient id="paint6_linear_86834_1260" x1="26.8076" y1="22.3333" x2="75.5764" y2="77.1375" gradientUnits="userSpaceOnUse">
<stop stop-color="#D5E3FF"/>
<stop offset="0.520833" stop-color="#F0F5FF"/>
<stop offset="1" stop-color="#D0DFFE"/>
</linearGradient>
<linearGradient id="paint7_linear_86834_1260" x1="50.45" y1="12.9468" x2="50.45" y2="86.1615" gradientUnits="userSpaceOnUse">
<stop stop-color="white" stop-opacity="0.5"/>
<stop offset="1" stop-color="white" stop-opacity="0"/>
</linearGradient>
<linearGradient id="paint8_linear_86834_1260" x1="29.7599" y1="25.0005" x2="70.7735" y2="74.8557" gradientUnits="userSpaceOnUse">
<stop stop-color="#B1CCFF"/>
<stop offset="1" stop-color="#D5E3FF"/>
</linearGradient>
<linearGradient id="paint9_linear_86834_1260" x1="32.5909" y1="27.4945" x2="54.5408" y2="76.4624" gradientUnits="userSpaceOnUse">
<stop stop-color="#A8C0FF"/>
<stop offset="0.484375" stop-color="#5179B6"/>
<stop offset="1" stop-color="#3C557A"/>
</linearGradient>
<linearGradient id="paint10_linear_86834_1260" x1="48.8817" y1="24.6842" x2="52.658" y2="70" gradientUnits="userSpaceOnUse">
<stop stop-color="#63A3FF"/>
<stop offset="0.519819" stop-color="#ABCDFF"/>
<stop offset="1" stop-color="#63A3FF"/>
</linearGradient>
<linearGradient id="paint11_linear_86834_1260" x1="50.5001" y1="40.8684" x2="56.9738" y2="40.8684" gradientUnits="userSpaceOnUse">
<stop stop-color="#6694DA"/>
<stop offset="1" stop-color="#88B8FF"/>
</linearGradient>
<linearGradient id="paint12_linear_86834_1260" x1="56.974" y1="46.2631" x2="57.5135" y2="52.7368" gradientUnits="userSpaceOnUse">
<stop stop-color="#6694DA"/>
<stop offset="1" stop-color="#88B8FF"/>
</linearGradient>
<linearGradient id="paint13_linear_86834_1260" x1="42.4611" y1="48.0896" x2="46.2641" y2="42.8508" gradientUnits="userSpaceOnUse">
<stop stop-color="#6694DA"/>
<stop offset="1" stop-color="#88B8FF"/>
</linearGradient>
<linearGradient id="paint14_linear_86834_1260" x1="54.8443" y1="54.9177" x2="48.5912" y2="56.5932" gradientUnits="userSpaceOnUse">
<stop stop-color="#6694DA"/>
<stop offset="1" stop-color="#88B8FF"/>
</linearGradient>
<linearGradient id="paint15_linear_86834_1260" x1="43.2131" y1="59.0509" x2="36.96" y2="57.3754" gradientUnits="userSpaceOnUse">
<stop stop-color="#6694DA"/>
<stop offset="1" stop-color="#88B8FF"/>
</linearGradient>
<linearGradient id="paint16_linear_86834_1260" x1="23.6563" y1="75.2735" x2="77.5648" y2="74.6727" gradientUnits="userSpaceOnUse">
<stop stop-color="#9FC6FF"/>
<stop offset="1" stop-color="#6796DC"/>
</linearGradient>
</defs>
</svg>
