<svg width="100" height="100" viewBox="0 0 100 100" fill="none" xmlns="http://www.w3.org/2000/svg">
<path d="M36.8017 40.5C36.0017 39.7 37.135 26.8333 37.8017 20.5C37.9558 19 50.8017 18.5 53.8017 19C56.8017 19.5 63.8017 21.5 65.3017 23.5C66.8017 25.5 64.8017 39.5 63.8017 41C62.8017 42.5 56.8017 48 53.3017 49C49.8017 50 47.8017 50 47.3017 49.5C46.8017 49 37.8017 41.5 36.8017 40.5Z" fill="#EDE7FF"/>
<path d="M47.2623 51.4599C47.0445 50.6989 53.9112 28.3975 55.2375 22.9473C55.55 21.6561 61.2302 22.2748 62.4559 22.9554C63.6816 23.636 66.4053 25.9484 66.7319 27.8098C67.0586 29.6712 63.8974 41.676 63.2163 42.8978C62.5352 44.1196 59.0208 48.4083 57.3319 48.9905C55.643 49.5727 54.7713 49.4087 54.6352 48.9331C54.4991 48.4575 47.5346 52.4111 47.2623 51.4599Z" fill="#9FA6F6"/>
<path fill-rule="evenodd" clip-rule="evenodd" d="M50.1299 54.2063C48.9926 54.0868 46.9952 60.2175 45.4689 60.7396C43.9416 61.2572 38.743 59.2242 37.905 60.832C37.0671 62.4399 41.7802 65.5276 42.2006 66.9688C42.621 68.4101 38.8638 75.5951 40.0224 75.858C41.181 76.1208 46.591 72.3617 48.2038 72.5313C49.8167 72.7008 54.1518 77.8542 55.1292 77.4458C56.1065 77.0373 54.7281 69.9905 55.2082 69.0156C55.6901 68.0393 60.8155 64.5628 60.953 63.2545C61.0905 61.9462 54.444 62.2442 53.3398 61.5654C52.2355 60.8866 51.2688 54.3245 50.13 54.2048L50.1299 54.2063Z" fill="white"/>
<path fill-rule="evenodd" clip-rule="evenodd" d="M41.3022 73.6271C41.7961 75.8558 50.6349 79.0753 53.0447 76.1507C55.2007 73.5346 60.4595 65.7141 58.3592 64.612C56.2588 63.5099 40.7872 71.2961 41.3022 73.6271Z" fill="#FFDAA5"/>
<path fill-rule="evenodd" clip-rule="evenodd" d="M51.0457 56.2017C47.89 54.6026 47.7505 62.1959 46.1282 62.708C44.5059 63.2201 38.9597 61.1461 38.0783 62.7493C37.1968 64.3526 42.2355 67.4745 42.6934 68.9197C43.1499 70.3633 39.1991 77.5295 40.4342 77.8004C41.6693 78.0712 47.4018 74.3461 49.1182 74.5264C50.8346 74.7068 55.4833 79.8933 56.5222 79.4913C57.5609 79.0908 56.043 72.0278 56.5487 71.0556C57.0546 70.0818 62.486 66.6374 62.6235 65.3292C62.7611 64.0209 55.6899 64.2743 54.5092 63.5874C53.3314 62.9008 53.889 56.1024 51.0444 56.2L51.0457 56.2017Z" stroke="black" stroke-width="2.01"/>
<path d="M49.9177 54.5324C49.4389 54.4942 48.9566 54.2942 48.6511 53.9866C48.2223 53.5566 48.1663 52.8925 48.4915 52.2034C48.8075 51.5391 49.5617 51.0654 50.2405 51.1007C50.7901 51.1311 51.2011 51.4653 51.4 52.0183C51.5663 52.4914 51.654 53.2045 51.3892 53.7916C51.2187 54.1728 50.8722 54.4278 50.4209 54.5106C50.2617 54.5376 50.091 54.5468 49.9177 54.5324ZM50.2197 51.8901C50.2124 51.8885 50.2079 51.8913 50.2006 51.8898C49.8406 51.8696 49.3801 52.1728 49.2039 52.5451C49.1188 52.7262 48.9503 53.1692 49.2109 53.4364C49.4122 53.6409 49.8889 53.8129 50.2768 53.7394C50.5717 53.688 50.6447 53.5273 50.6676 53.4747C50.806 53.171 50.8015 52.6945 50.6547 52.2908C50.5719 52.0351 50.4312 51.905 50.2197 51.8901Z" fill="black"/>
<path d="M46.991 50.359L46.991 50.3589C46.8626 50.2473 46.7401 50.1428 46.6173 50.0463L46.6141 50.0438L46.6141 50.0437C46.2612 49.7571 45.9129 49.4587 45.5728 49.1675C45.4886 49.0954 45.4048 49.0236 45.3216 48.9526L45.3205 48.9517C44.8654 48.5585 44.3918 48.1549 43.9215 47.7754L43.9214 47.7753C41.7239 46.001 39.7426 44.3895 37.7863 42.6406C35.7852 40.861 35.6978 38.4114 35.8253 36.5512L35.8253 36.5514L36.0747 36.5682L35.8253 36.5511L46.991 50.359ZM46.991 50.359L46.9941 50.3615M46.991 50.359L46.9941 50.3615M46.9941 50.3615C47.0107 50.3755 47.0274 50.3896 47.0442 50.4037C47.3569 50.6671 47.6913 50.9487 48.0601 51.1808L46.9941 50.3615ZM65.1667 25.8016L65.1667 25.8009C65.1739 24.8395 65.1438 24.0395 64.8312 23.3561C64.2743 22.1411 62.8903 21.4734 61.5128 20.96C57.6899 19.537 53.6425 18.8153 49.4764 18.8146C46.5679 18.8185 43.5716 19.2033 40.5841 19.9641C40.4792 19.9922 40.3672 20.0171 40.2618 20.0406C40.2117 20.0518 40.1631 20.0626 40.1174 20.0733L40.1169 20.0734L40.1028 20.0767C39.6825 20.1741 39.283 20.2666 38.9368 20.4141C38.5907 20.5614 38.3213 20.7543 38.1512 21.0378L38.1501 21.0397L38.15 21.0397C37.929 21.4008 37.8359 21.8497 37.7729 22.2301C37.5555 23.5748 37.5718 24.9804 37.588 26.3738C37.5885 26.4206 37.5891 26.4674 37.5896 26.5142C37.5896 26.5143 37.5896 26.5145 37.5896 26.5146L37.5901 26.5482C37.6012 27.3367 37.6129 28.1621 37.583 28.972L37.583 28.9723C37.5057 31.0094 37.3652 33.0638 37.2294 35.0499C37.2226 35.1487 37.2159 35.2473 37.2092 35.3457L65.1667 25.8016ZM65.1667 25.8016C65.1488 29.5721 64.9806 32.6168 64.6515 35.3792C64.6008 35.7927 64.5575 36.2073 64.5188 36.6182C64.2818 38.9671 64.0592 41.0805 62.4283 42.7304C61.0065 44.1687 59.1196 45.2203 57.2513 46.2616M65.1667 25.8016L57.2513 46.2616M46.1685 47.9726C45.7095 47.5741 45.2277 47.1615 44.7403 46.7703C42.5528 45.0019 40.5875 43.3989 38.6527 41.6768L38.6527 41.6767C37.4462 40.6037 36.9574 39.0774 37.1218 36.6384C37.1218 36.6384 37.1218 36.6384 37.1218 36.6384L37.2092 35.3459L47.533 49.447C47.4466 49.3739 47.362 49.3024 47.2767 49.2339L47.4349 49.0404C47.4346 49.0401 47.4343 49.0399 47.434 49.0396C47.0096 48.6926 46.5806 48.329 46.1685 47.9726ZM46.1685 47.9726C46.1686 47.9727 46.1686 47.9728 46.1687 47.9729L46.0048 48.1616M46.1685 47.9726C46.1684 47.9726 46.1684 47.9726 46.1684 47.9725L46.0048 48.1616M46.0048 48.1616C45.5462 47.7635 45.0672 47.3533 44.5834 46.965M46.0048 48.1616L44.5834 46.965M44.5834 46.965C42.3958 45.1965 40.4263 43.5901 38.4865 41.8636C37.1996 40.719 36.7052 39.1012 36.8724 36.6216L44.5834 46.965ZM57.2513 46.2616L57.2127 46.2832L57.2513 46.2616ZM36.2895 26.533L36.5395 26.5288L36.2895 26.5329C36.2895 26.5329 36.2895 26.533 36.2895 26.533ZM39.8196 18.8168L39.8183 18.8171L65.9937 22.8173C65.2165 21.1227 63.3786 20.2809 61.9546 19.7515C57.9867 18.2691 53.7833 17.524 49.4662 17.5263L49.466 17.5263C46.4445 17.5306 43.3474 17.9277 40.2562 18.7151L40.2558 18.7152C40.1143 18.7515 39.9694 18.7836 39.8196 18.8168ZM65.7937 36.7819L65.7975 36.7444L55.1867 47.6781C55.1452 47.7004 55.1036 47.7227 55.0619 47.7451C54.3414 48.1317 53.5974 48.531 52.8805 48.9634L52.7517 48.7492C52.7516 48.7492 52.7515 48.7493 52.7513 48.7494C52.4575 48.9259 52.1544 49.1344 51.872 49.329C51.8086 49.3722 51.7474 49.4145 51.6871 49.4562C51.57 49.5372 51.4567 49.6157 51.3381 49.6921C51.0321 49.8895 50.9659 50.2904 51.1538 50.5816C51.3528 50.8903 51.753 50.9595 52.0461 50.7704C52.1741 50.6879 52.3023 50.5994 52.4265 50.5136C52.4867 50.472 52.5459 50.4311 52.6038 50.3918L52.6052 50.3909L52.6281 50.375C52.9093 50.1814 53.1656 50.0049 53.4191 49.8534L53.4198 49.8529C54.1587 49.4077 54.9305 48.9914 55.681 48.5895L55.6816 48.5891C55.7774 48.5375 55.8741 48.4855 55.9714 48.4332C56.3569 48.2261 56.7525 48.0136 57.1421 47.7928C57.2564 47.7284 57.3716 47.6651 57.4881 47.601L57.4894 47.6002C57.6052 47.5365 57.7223 47.4722 57.8388 47.4066L57.8577 47.396C59.7677 46.3336 61.7792 45.2147 63.3429 43.6361L63.343 43.6361C65.3018 41.6568 65.5571 39.1268 65.7937 36.7819ZM37.2504 20.5002L37.0373 20.3696C37.0372 20.3698 37.0371 20.37 37.037 20.3701C37.0369 20.3703 37.0368 20.3705 37.0366 20.3707L37.2504 20.5002Z" fill="black" stroke="black" stroke-width="0.5"/>
<path d="M39.5448 43.8368C39.5277 44.0912 39.6646 44.3192 39.873 44.4347L39.8575 44.5069L40.154 44.5194C40.5117 44.5344 40.8088 44.2608 40.8286 43.909L40.8286 43.9088C41.282 35.6645 41.8815 27.2946 42.6173 19.0387C42.6492 18.6861 42.3856 18.3742 42.0362 18.3415C41.6835 18.3051 41.3682 18.5763 41.3366 18.9244L41.3366 18.9247C40.5971 27.2006 39.9957 35.583 39.5448 43.8368Z" fill="black" stroke="black" stroke-width="0.5"/>
<path d="M44.6367 17.8715L44.6367 17.8714L44.6334 17.8715C44.2805 17.8756 43.9913 18.1605 43.9906 18.5147C43.9857 20.1752 43.8484 21.8354 43.7151 23.4471L43.7144 23.455L41.8705 45.7429C41.8705 45.7432 41.8704 45.7436 41.8704 45.744C41.839 46.0972 42.1042 46.4098 42.4599 46.4377C42.8125 46.4687 43.1239 46.2043 43.1557 45.8544L43.1558 45.8525L44.9999 23.5626L44.9999 23.5626C45.0042 23.51 45.0086 23.4572 45.013 23.4042C45.1379 21.8924 45.2792 20.1812 45.2803 18.5173L45.2802 18.5142C45.2761 18.1612 44.991 17.872 44.6367 17.8715Z" fill="black" stroke="black" stroke-width="0.5"/>
<path d="M58.8618 46.6932L58.95 46.7029L58.9646 46.6935C59.2714 46.6771 59.5334 46.4455 59.5719 46.1317L59.5719 46.1317L59.5722 46.1288C60.5191 37.5673 61.324 28.8639 61.964 20.2668C61.9912 19.9073 61.7221 19.6072 61.3761 19.5758L61.3761 19.5758L61.3724 19.5755C61.018 19.5487 60.7083 19.8085 60.6811 20.1671L60.6811 20.1674C60.0403 28.7463 59.2347 37.4315 58.293 45.9839C58.2495 46.3392 58.5113 46.6546 58.8618 46.6932Z" fill="black" stroke="black" stroke-width="0.5"/>
<path d="M56.2954 48.1402L56.2954 48.1402C56.6517 48.1672 56.9553 47.9014 56.9849 47.5585L56.985 47.5574L58.8461 24.7115L58.8542 24.6405L58.8543 24.6406L58.8549 24.6328L58.8561 24.6187C58.9949 22.9295 59.1369 21.2012 59.4257 19.5293C59.4884 19.1775 59.2517 18.8464 58.9045 18.7838C58.5414 18.718 58.2196 18.9607 58.1576 19.305L58.1572 19.307C57.8672 20.9992 57.7232 22.7284 57.5847 24.393L57.5742 24.5186L57.5661 24.5898L57.566 24.5898L57.5653 24.5977L55.7041 47.4452C55.7041 47.4457 55.704 47.4462 55.704 47.4466C55.6727 47.8004 55.9389 48.1132 56.2954 48.1402Z" fill="black" stroke="black" stroke-width="0.5"/>
<path d="M52.0723 54.5182C52.439 53.7077 52.4354 52.4989 52.0574 51.4432C51.7923 50.6995 51.2973 50.2743 50.6232 50.2169M52.0723 54.5182L51.845 54.414C51.845 54.4142 51.8449 54.4143 51.8448 54.4145M52.0723 54.5182C51.797 55.1184 51.2319 55.3377 50.8087 55.4151M52.0723 54.5182L51.8445 54.4152C51.8446 54.4149 51.8447 54.4147 51.8448 54.4145M51.8448 54.4145C52.1782 53.6769 52.1838 52.5378 51.822 51.5274L51.8219 51.5271C51.5835 50.8583 51.1623 50.5161 50.6085 50.4666M51.8448 54.4145C51.6191 54.9059 51.1527 55.0981 50.7637 55.1692M50.6085 50.4666C50.612 50.4668 50.6157 50.4669 50.6194 50.4669L50.6232 50.2169M50.6085 50.4666C50.5926 50.466 50.5795 50.4646 50.5727 50.4639L50.5713 50.4638C50.5677 50.4634 50.5658 50.4632 50.5649 50.4632M50.6085 50.4666C50.6063 50.4664 50.6042 50.4662 50.602 50.4661L50.6232 50.2169M50.6232 50.2169C50.6137 50.2168 50.6052 50.2159 50.5968 50.2151C50.5883 50.2142 50.5799 50.2133 50.5703 50.2132L50.8087 55.4151M50.8087 55.4151L50.7637 55.1692M50.8087 55.4151L50.7638 55.1692C50.7638 55.1692 50.7638 55.1692 50.7637 55.1692M50.7637 55.1692C50.3175 55.2505 49.7957 55.2094 49.3073 55.0688C48.8176 54.9277 48.3849 54.6933 48.1053 54.4103M48.1053 54.4103C47.7635 54.0634 47.6816 53.6235 47.7221 53.1869C47.7628 52.7467 47.9268 52.3364 48.0421 52.0974L48.0424 52.0968C48.2714 51.6188 48.6663 51.1945 49.1281 50.8967C49.5911 50.5981 50.1024 50.4385 50.557 50.4628L50.557 50.463L50.5649 50.4632M48.1053 54.4103C48.1052 54.4103 48.1052 54.4102 48.1052 54.4102L47.9274 54.5859L48.1054 54.4104C48.1054 54.4104 48.1053 54.4103 48.1053 54.4103ZM50.5649 50.4632C50.5645 50.4631 50.5643 50.4631 50.5643 50.4631C50.5643 50.4631 50.5653 50.4632 50.5665 50.4632L50.5649 50.4632ZM49.9243 56.4863L49.9243 56.4864L49.9271 56.4866C50.2875 56.5121 50.6474 56.5008 50.9998 56.4418L50.9998 56.4419L51.0038 56.4411C51.9352 56.2696 52.6619 55.7476 53.0229 54.95L53.0232 54.9493C53.5981 53.67 53.4057 52.122 53.0423 51.103L53.0422 51.1027C52.6286 49.9463 51.7732 49.2388 50.6289 49.1834C49.1556 49.1025 47.5608 50.1296 46.8846 51.5484L46.8846 51.5485C46.1974 52.9909 46.268 54.3863 47.1957 55.3211C47.845 55.9774 48.9071 56.4031 49.9243 56.4863Z" fill="black" stroke="black" stroke-width="0.5"/>
<path d="M64.3072 24.8569L64.2891 24.8549C64.1315 24.837 63.98 24.7388 63.9131 24.569L63.9105 24.5624L63.9106 24.5624C63.77 24.1734 63.643 23.827 63.4183 23.5709L64.3072 24.8569ZM64.3072 24.8569L64.3254 24.8563M64.3072 24.8569L64.3254 24.8563M64.3254 24.8563C64.3659 24.855 64.3973 24.8516 64.421 24.849L64.4225 24.8488L64.4558 24.8452L64.487 24.8329C64.7124 24.7441 64.8255 24.4978 64.7476 24.2686L64.7476 24.2686L64.7463 24.265C64.6074 23.8762 64.4305 23.3824 64.0923 22.9888L64.0923 22.9888L64.0911 22.9874C63.8748 22.7393 63.6153 22.554 63.376 22.3877C63.1109 22.2031 62.8045 22.0019 62.4524 21.8791L62.4524 21.879M64.3254 24.8563L62.4524 21.879M62.4524 21.879L62.4477 21.8775L62.4524 21.879ZM62.8685 23.1187C62.6151 22.9436 62.3987 22.8008 62.1659 22.7243C62.1659 22.7243 62.1658 22.7243 62.1658 22.7242L62.2438 22.4867L62.8685 23.1187ZM62.8685 23.1187C63.0865 23.2699 63.2748 23.4075 63.4183 23.5709L62.8685 23.1187Z" fill="black" stroke="black" stroke-width="0.5"/>
<path d="M63.7694 35.3631L63.7559 35.3602L63.7485 35.3586L63.7446 35.3577C63.5205 35.3147 63.3413 35.1035 63.3844 34.8499C63.7562 32.3314 63.9547 29.7678 63.9745 27.2191L64.2245 27.2211M63.7694 35.3631L64.266 34.9789C64.6446 32.4221 64.8498 29.8122 64.8657 27.2227L64.8657 27.2216C64.8661 26.9753 64.6651 26.7759 64.4205 26.7756C64.1742 26.7752 63.9749 26.9762 63.9745 27.2207L64.2245 27.2211M63.7694 35.3631L63.7832 35.3645M63.7694 35.3631L63.7832 35.3645M64.2245 27.2211C64.2247 27.1137 64.3128 27.0254 64.4201 27.0256C64.5275 27.0257 64.6158 27.1138 64.6157 27.2212L63.6312 34.8896C64.0051 32.3586 64.2046 29.7824 64.2245 27.2211ZM63.7832 35.3645C64.0268 35.3894 64.2313 35.2135 64.2659 34.9792L63.7832 35.3645Z" fill="black" stroke="black" stroke-width="0.5"/>
</svg>
