<svg t="1735980830936" class="icon" viewBox="0 0 1024 1024" version="1.1" xmlns="http://www.w3.org/2000/svg" p-id="4265" xmlns:xlink="http://www.w3.org/1999/xlink" width="200" height="200">
  <path d="M512 34.909091c-262.981818 0-477.090909 214.109091-477.090909 477.090909s214.109091 477.090909 477.090909 477.090909 477.090909-214.109091 477.090909-477.090909-214.109091-477.090909-477.090909-477.090909z m0 884.363636c-224.581818 0-407.272727-182.690909-407.272727-407.272727s182.690909-407.272727 407.272727-407.272727 407.272727 182.690909 407.272727 407.272727-182.690909 407.272727-407.272727 407.272727z" p-id="4266" fill="#000000"></path>
  <path d="M736.581818 343.272727l-286.254545 287.418182-169.890909-152.436364c-13.963636-12.8-36.072727-11.636364-48.872728 2.327273s-11.636364 36.072727 2.327273 48.872727l195.490909 174.545455c6.981818 5.818182 15.127273 9.309091 23.272727 9.309091 9.309091 0 17.454545-3.490909 24.436364-10.472727l309.527273-310.690909c13.963636-13.963636 13.963636-36.072727 0-48.872728s-36.072727-12.8-50.036364 0z" p-id="4267" fill="#000000"></path>
</svg>
