<svg width="20" height="20" viewBox="0 0 20 20" fill="none" xmlns="http://www.w3.org/2000/svg">
<path fill-rule="evenodd" clip-rule="evenodd" d="M2.75 10C2.75 5.99594 5.99594 2.75 10 2.75C14.0041 2.75 17.25 5.99594 17.25 10C17.25 14.0041 14.0041 17.25 10 17.25C5.99594 17.25 2.75 14.0041 2.75 10ZM10 1.25C5.16751 1.25 1.25 5.16751 1.25 10C1.25 14.8325 5.16751 18.75 10 18.75C14.8325 18.75 18.75 14.8325 18.75 10C18.75 5.16751 14.8325 1.25 10 1.25ZM7.02386 10.2053C6.73097 9.91237 6.25609 9.91237 5.9632 10.2053C5.67031 10.4982 5.67031 10.973 5.9632 11.2659L8.37588 13.6786C8.66878 13.9715 9.14365 13.9715 9.43654 13.6786L14.7258 8.38936C15.0187 8.09647 15.0187 7.62159 14.7258 7.3287C14.4329 7.03581 13.958 7.03581 13.6651 7.3287L8.90621 12.0876L7.02386 10.2053Z" fill="#000000"/>
</svg>
