<svg width="20" height="21" viewBox="0 0 20 21" fill="none" xmlns="http://www.w3.org/2000/svg">
<path fill-rule="evenodd" clip-rule="evenodd" d="M10.0227 1.22754C10.0227 0.813325 9.68692 0.477539 9.27271 0.477539C8.85849 0.477539 8.52271 0.813325 8.52271 1.22754V3.97134C8.52271 4.38555 8.85849 4.72134 9.27271 4.72134C9.68692 4.72134 10.0227 4.38555 10.0227 3.97134V1.22754ZM4.53033 2.46967C4.23744 2.17678 3.76256 2.17678 3.46967 2.46967C3.17678 2.76256 3.17678 3.23744 3.46967 3.53033L5.46967 5.53033C5.76256 5.82322 6.23744 5.82322 6.53033 5.53033C6.82322 5.23744 6.82322 4.76256 6.53033 4.46967L4.53033 2.46967ZM9.07138 7.29356C8.74871 7.01698 8.25012 7.24623 8.25012 7.67132V18.3344C8.25012 18.7912 8.81394 19.0065 9.11839 18.6662L9.1184 18.6662L11.5914 15.9023L11.5914 15.9023C11.9871 15.4599 12.5452 15.1969 13.1382 15.1732L16.7702 15.0279C17.2219 15.0099 17.4175 14.4474 17.0742 14.153L17.0741 14.153L9.07139 7.29357L9.07138 7.29356ZM10.0476 6.15468C8.75185 5.04403 6.75012 5.96476 6.75012 7.67132V18.3344C6.75012 20.1679 9.01361 21.0329 10.2363 19.6664L10.2363 19.6663L12.7092 16.9024L12.7093 16.9024C12.8343 16.7627 13.0107 16.6795 13.1982 16.672L16.8302 16.5267C18.6441 16.4542 19.4285 14.1955 18.0504 13.0142L18.0504 13.0141L10.0476 6.1547L10.0476 6.15468ZM1.25 8.50049C1.25 8.08627 1.58579 7.75049 2 7.75049H4.74C5.15421 7.75049 5.49 8.08627 5.49 8.50049C5.49 8.9147 5.15421 9.25049 4.74 9.25049H2C1.58579 9.25049 1.25 8.9147 1.25 8.50049ZM15.5303 2.46967C15.2374 2.17678 14.7626 2.17678 14.4697 2.46967L12.4697 4.46967C12.1768 4.76256 12.1768 5.23744 12.4697 5.53033C12.7626 5.82322 13.2374 5.82322 13.5303 5.53033L15.5303 3.53033C15.8232 3.23744 15.8232 2.76256 15.5303 2.46967Z" fill="#000000"/>
</svg>
