<svg width="40" height="40" viewBox="0 0 40 40" fill="none" xmlns="http://www.w3.org/2000/svg">
<path opacity="0.12" d="M28.6794 21.4819C28.6794 28.3773 29.5262 31.8549 22.7111 31.8549C17.4896 31.8549 5.39316 35.0303 8.56857 17.0448C8.56857 10.1495 14.1435 11.109 19.3649 11.109C24.5864 11.109 28.6794 14.5866 28.6794 21.4819Z" fill="#007BFE"/>
<path opacity="0.35" d="M16.7847 14.711C16.8302 13.8913 17.5081 13.25 18.329 13.25C19.0299 13.25 19.6436 13.7212 19.7943 14.4057C19.9841 15.2676 20.2074 16.4467 20.2408 17.3482C20.275 18.2718 20.1448 19.3368 20.0111 20.1496C19.8853 20.9142 19.2115 21.4464 18.4366 21.4464C17.5537 21.4464 16.8229 20.7599 16.7678 19.8787L16.6248 17.5893L16.7847 14.711Z" fill="#007BFE"/>
<path opacity="0.35" d="M16.9646 24.3203C17.0357 23.5123 17.7124 22.8926 18.5235 22.8926C19.1526 22.8926 19.7254 23.268 19.9181 23.8668C20.0663 24.3274 20.21 24.8699 20.2354 25.3033C20.2598 25.7187 20.1946 26.1827 20.1068 26.5918C19.9595 27.2789 19.3207 27.714 18.618 27.714C17.7509 27.714 17.0252 27.0566 16.9397 26.1937L16.8834 25.6246C16.8715 25.5052 16.8709 25.385 16.8814 25.2655L16.9646 24.3203Z" fill="#007BFE"/>
<path d="M8.74963 25.625C8.74963 28.1103 10.7644 30.125 13.2496 30.125H26.7496C29.2349 30.125 31.2496 28.1103 31.2496 25.625V24.5C31.2496 23.8787 30.7321 23.3934 30.145 23.1901C28.8235 22.7326 27.8746 21.4771 27.8746 20C27.8746 18.5229 28.8235 17.2674 30.145 16.8099C30.7321 16.6066 31.2496 16.1213 31.2496 15.5V14.375C31.2496 11.8897 29.2349 9.875 26.7496 9.875H13.2496C10.7644 9.875 8.74963 11.8897 8.74963 14.375V15.5C8.74963 16.1213 9.26714 16.6066 9.85427 16.8099C11.1757 17.2674 12.1246 18.5229 12.1246 20C12.1246 21.4771 11.1757 22.7326 9.85426 23.1901C9.26714 23.3934 8.74963 23.8787 8.74963 24.5V25.625Z" stroke="#000000" stroke-width="1.5" stroke-linecap="round" stroke-linejoin="round"/>
<path d="M17.1078 15.4995L17.1078 13.2495" stroke="#007BFE" stroke-width="1.5" stroke-linecap="round" stroke-linejoin="round"/>
<path d="M17.1078 21.2852L17.1078 19.0352" stroke="#007BFE" stroke-width="1.5" stroke-linecap="round" stroke-linejoin="round"/>
<path d="M17.1078 27.0708L17.1078 24.8208" stroke="#007BFE" stroke-width="1.5" stroke-linecap="round" stroke-linejoin="round"/>
</svg>
