<svg width="40" height="40" viewBox="0 0 40 40" fill="none" xmlns="http://www.w3.org/2000/svg">
<path opacity="0.12" d="M25.8866 8.21647C25.8866 10.038 24.343 11.069 19.8787 11.069C15.4143 11.069 9.71973 10.038 9.71973 8.21647C9.71973 6.39492 15.4143 5.14111 19.8787 5.14111C24.343 5.14111 25.8866 6.39492 25.8866 8.21647Z" fill="#007BFE"/>
<path opacity="0.35" d="M33.5188 24.9661C33.5188 28.5219 32.5545 30.5343 27.7852 30.5343C23.5247 30.5343 16.6438 32.1615 16.6438 28.6057C16.6438 25.05 23.5247 18.9629 27.7852 18.9629C32.0457 18.9629 33.5188 21.4104 33.5188 24.9661Z" fill="#007BFE"/>
<path d="M7.73242 30.5938L32.9324 30.5937" stroke="#000000" stroke-width="1.5" stroke-linecap="round"/>
<path d="M15.0015 17.04L15.0015 11.5173" stroke="#000000" stroke-width="1.5" stroke-linecap="round"/>
<path d="M20.5245 17.04L20.5245 11.5173" stroke="#000000" stroke-width="1.5" stroke-linecap="round"/>
<path d="M26.0469 17.04L26.0469 11.5173" stroke="#000000" stroke-width="1.5" stroke-linecap="round"/>
<path fill-rule="evenodd" clip-rule="evenodd" d="M8.88228 21.7741C8.88228 19.1508 11.0089 17.0241 13.6323 17.0241H27.1096C29.7329 17.0241 31.8595 19.1508 31.8595 21.7741V30.5344H30.3595V21.7741C30.3595 19.9792 28.9045 18.5241 27.1096 18.5241H13.6323C11.8373 18.5241 10.3823 19.9792 10.3823 21.7741V30.5344H8.88228V21.7741Z" fill="#000000"/>
<path d="M10.093 25.9455L12.1027 24.8647C12.274 24.7726 12.4787 24.7671 12.6547 24.8499L14.7216 25.8226C14.8871 25.9005 15.0787 25.9005 15.2442 25.8226L17.3443 24.8343C17.5013 24.7604 17.6822 24.7565 17.8423 24.8234L20.288 25.8465C20.4395 25.9099 20.6101 25.9099 20.7616 25.8465L23.2073 24.8234C23.3674 24.7565 23.5484 24.7604 23.7054 24.8343L25.8055 25.8226C25.9709 25.9005 26.1625 25.9005 26.328 25.8226L28.395 24.8499C28.5709 24.7671 28.7757 24.7726 28.9469 24.8647L30.9567 25.9455" stroke="#000000" stroke-width="1.44643" stroke-linecap="round"/>
<path d="M15.0015 9.06299L15.0015 7.83572" stroke="#007BFE" stroke-width="1.5" stroke-linecap="round"/>
<path d="M20.5245 9.06299L20.5245 7.83572" stroke="#007BFE" stroke-width="1.5" stroke-linecap="round"/>
<path d="M26.0469 9.06299L26.0469 7.83572" stroke="#007BFE" stroke-width="1.5" stroke-linecap="round"/>
</svg>
