<svg width="40" height="40" viewBox="0 0 40 40" fill="none" xmlns="http://www.w3.org/2000/svg">
<path d="M6.25 20C6.25 18.6193 7.36929 17.5 8.75 17.5H30C31.3807 17.5 32.5 18.6193 32.5 20V30H6.25V20Z" fill="#EEF1FB"/>
<path opacity="0.5" d="M26.875 7.31673C26.875 9.42932 25.0848 10.625 19.9071 10.625C14.7294 10.625 8.125 9.42932 8.125 7.31673C8.125 5.20414 14.7294 3.75 19.9071 3.75C25.0848 3.75 26.875 5.20414 26.875 7.31673Z" fill="#007BFE"/>
<path opacity="0.5" d="M30 26.9925C30 28.913 29.2242 30 26.9806 30C24.7369 30 21.875 28.913 21.875 26.9925C21.875 25.0719 24.7369 23.75 26.9806 23.75C29.2242 23.75 30 25.0719 30 26.9925Z" fill="#007BFE"/>
<path d="M5 33.4856H36.3139" stroke="#000000" stroke-width="1.5625" stroke-linecap="round"/>
<path d="M14.252 17.5503L14.252 11.1452" stroke="#000000" stroke-width="1.5625" stroke-linecap="round"/>
<path d="M20.6572 17.5503L20.6572 11.1452" stroke="#000000" stroke-width="1.5625" stroke-linecap="round"/>
<path d="M27.0625 17.5503L27.0625 11.1452" stroke="#000000" stroke-width="1.5625" stroke-linecap="round"/>
<path fill-rule="evenodd" clip-rule="evenodd" d="M10.8711 17.6194C8.86746 17.6194 7.24316 19.2437 7.24316 21.2474V33.125H8.80566V21.2474C8.80566 20.1066 9.73041 19.1819 10.8711 19.1819H30.0865C31.2272 19.1819 32.152 20.1066 32.152 21.2474V33.125H33.7145V21.2474C33.7145 19.2437 32.0902 17.6194 30.0865 17.6194H10.8711Z" fill="#000000"/>
<path d="M8.55859 27.8789L10.8894 26.6254C11.088 26.5186 11.3255 26.5122 11.5295 26.6082L13.9268 27.7363C14.1187 27.8266 14.3409 27.8266 14.5328 27.7363L16.9684 26.5902C17.1505 26.5045 17.3604 26.4999 17.5461 26.5776L20.3825 27.764C20.5582 27.8375 20.7561 27.8375 20.9318 27.764L23.7682 26.5776C23.9539 26.4999 24.1638 26.5045 24.3459 26.5902L26.7815 27.7363C26.9734 27.8266 27.1956 27.8266 27.3876 27.7363L29.7848 26.6082C29.9888 26.5122 30.2263 26.5186 30.4249 26.6254L32.7557 27.8789" stroke="#000000" stroke-width="1.5625" stroke-linecap="round"/>
<path d="M14.252 8.29834L14.252 6.87498" stroke="#007BFE" stroke-width="1.7792" stroke-linecap="round"/>
<path d="M20.6572 8.29834L20.6572 6.87498" stroke="#007BFE" stroke-width="1.7792" stroke-linecap="round"/>
<path d="M27.0625 8.29834L27.0625 6.87498" stroke="#007BFE" stroke-width="1.7792" stroke-linecap="round"/>
</svg>
