<svg width="40" height="40" viewBox="0 0 40 40" fill="none" xmlns="http://www.w3.org/2000/svg">
<g clip-path="url(#clip0_88558_852)">
<path opacity="0.1" d="M31.4371 21.0581C33.3545 31.81 29.3472 33.8463 20.7858 33.8463C12.2245 33.8463 8.85675 36.4018 7.32247 24.9013C5.83708 13.7673 14.1485 14.1945 20.7858 13.0108C27.423 11.8272 30.4656 15.6107 31.4371 21.0581Z" fill="#007BFE"/>
<path opacity="0.35" d="M30.1992 10.395C32.3284 12.8444 34.1563 14.0515 31.9713 15.9509C29.7862 17.8503 24.935 20.3203 22.8058 17.8709C20.6766 15.4215 19.1579 13.1702 21.3429 11.2708C23.5279 9.37135 28.07 7.94564 30.1992 10.395Z" fill="#007BFE"/>
<path d="M7.48767 15.0254H10.0796L18.1952 18.576C19.4417 19.1213 20.0149 20.5701 19.4789 21.8206V21.8206C18.9401 23.0779 17.4841 23.6603 16.2269 23.1215L13.9675 22.1532" stroke="#000000" stroke-width="1.5" stroke-linecap="round" stroke-linejoin="round"/>
<path d="M7.82308 26.0178C7.4526 25.8326 7.00209 25.9828 6.81685 26.3532C6.63161 26.7237 6.78178 27.1742 7.15226 27.3595L7.82308 26.0178ZM19.4867 22.13L18.8159 21.7946L18.145 23.1362L18.8159 23.4716L19.4867 22.13ZM26.1707 26.1427H28.223V24.6427H26.1707V26.1427ZM28.223 29.8265H17.7109V31.3265H28.223V29.8265ZM13.4097 28.8112L7.82308 26.0178L7.15226 27.3595L12.7389 30.1528L13.4097 28.8112ZM23.0287 23.901L19.4867 22.13L18.8159 23.4716L22.3579 25.2426L23.0287 23.901ZM17.7109 29.8265C16.2178 29.8265 14.7452 29.4789 13.4097 28.8112L12.7389 30.1528C14.2827 30.9247 15.9849 31.3265 17.7109 31.3265V29.8265ZM30.0649 27.9846C30.0649 29.0019 29.2402 29.8265 28.223 29.8265V31.3265C30.0687 31.3265 31.5649 29.8303 31.5649 27.9846H30.0649ZM28.223 26.1427C29.2402 26.1427 30.0649 26.9673 30.0649 27.9846H31.5649C31.5649 26.1389 30.0687 24.6427 28.223 24.6427V26.1427ZM26.1707 24.6427C25.08 24.6427 24.0043 24.3887 23.0287 23.901L22.3579 25.2426C23.5417 25.8345 24.8471 26.1427 26.1707 26.1427V24.6427Z" fill="#000000"/>
<circle cx="27.52" cy="16.3213" r="4.47998" stroke="#007BFE" stroke-width="1.5"/>
</g>
<defs>
<clipPath id="clip0_88558_852">
<rect width="30" height="30" fill="white" transform="translate(5 5)"/>
</clipPath>
</defs>
</svg>
