<svg width="40" height="40" viewBox="0 0 40 40" fill="none" xmlns="http://www.w3.org/2000/svg">
<path d="M15.625 14.9812C15.625 19.7826 14.2525 22.5 10.2829 22.5C6.31339 22.5 1.25 19.7826 1.25 14.9812C1.25 10.1799 6.31339 6.875 10.2829 6.875C14.2525 6.875 15.625 10.1799 15.625 14.9812Z" fill="#EEF1FB"/>
<g clip-path="url(#clip0_85470_526)">
<path d="M19.5993 6.12704C20.0502 4.39885 21.8553 3.39946 23.5593 3.93456L34.3614 7.32671C35.6332 7.7261 36.5117 8.88833 36.5489 10.2209L37.1289 30.9806C37.2133 34.0016 34.8955 36.5494 31.8801 36.7503L15.5764 37.8367C13.4481 37.9785 11.8064 35.9935 12.3449 33.9296L19.5993 6.12704Z" fill="#EEF1FB"/>
<path d="M20 21.7507C20 19.8412 21.6974 18.3782 23.586 18.6599L27.9613 19.3125C29.3842 19.5247 30.4784 20.681 30.6118 22.1135L30.7278 23.3592C31.0161 26.4553 28.7376 29.198 25.6412 29.4822L23.4106 29.6869C21.5796 29.855 20 28.4137 20 26.575V21.7507Z" fill="#97AEFD"/>
<path d="M30.625 4.375H23.75C19.7229 4.375 16.4583 7.63959 16.4583 11.6667V16.0417H9.375V22.7083H16.4583V34.375H23.5417V22.7083H30.625V16.0417H23.5417V12.5C23.5417 11.6946 24.1946 11.0417 25 11.0417H30.625V4.375Z" stroke="#000000" stroke-width="1.5625" stroke-linecap="round" stroke-linejoin="round"/>
</g>
<defs>
<clipPath id="clip0_85470_526">
<rect width="35" height="35" fill="white" transform="translate(2.5 2.5)"/>
</clipPath>
</defs>
</svg>
