<svg width="40" height="40" viewBox="0 0 40 40" fill="none" xmlns="http://www.w3.org/2000/svg">
<path opacity="0.12" d="M12.8733 11.8552C13.2659 10.3504 14.8376 9.48027 16.3213 9.94619L23.7571 12.2813C24.8645 12.629 25.6294 13.641 25.6618 14.8012L26.0695 29.3941C26.143 32.0245 24.1249 34.2429 21.4993 34.4178L10.4962 35.151C8.64303 35.2745 7.21353 33.5462 7.68243 31.7491L12.8733 11.8552Z" fill="#007BFE"/>
<path d="M21.3764 28.9476C20.9622 28.9476 20.6264 29.2834 20.6264 29.6976C20.6264 30.1118 20.9622 30.4476 21.3764 30.4476V28.9476ZM17.4863 30.4476C17.9005 30.4476 18.2363 30.1118 18.2363 29.6976C18.2363 29.2834 17.9005 28.9476 17.4863 28.9476V30.4476ZM10.0466 9.05225H23.9535V7.55225H10.0466V9.05225ZM23.9535 9.05225C25.6072 9.05225 26.9477 10.3928 26.9477 12.0464H28.4477C28.4477 9.56436 26.4356 7.55225 23.9535 7.55225V9.05225ZM26.9477 12.0464V25.9534H28.4477V12.0464H26.9477ZM26.9477 25.9534C26.9477 27.6071 25.6072 28.9476 23.9535 28.9476V30.4476C26.4356 30.4476 28.4477 28.4355 28.4477 25.9534H26.9477ZM10.0466 28.9476C8.39291 28.9476 7.05237 27.6071 7.05237 25.9534H5.55237C5.55237 28.4355 7.56448 30.4476 10.0466 30.4476V28.9476ZM7.05237 25.9534V12.0464H5.55237V25.9534H7.05237ZM7.05237 12.0464C7.05237 10.3928 8.39291 9.05225 10.0466 9.05225V7.55225C7.56448 7.55225 5.55237 9.56436 5.55237 12.0464H7.05237ZM23.9535 28.9476H21.3764V30.4476H23.9535V28.9476ZM17.4863 28.9476H10.0466V30.4476H17.4863V28.9476Z" fill="#000000"/>
<path d="M17.6686 29.6978V21.6745H14.8605V18.1978H17.6686V15.6571C17.6686 13.2935 19.5641 11.5117 22.0814 11.5117H24.3547V14.9885H22.0814C21.8608 14.9885 21.1454 15.0353 21.1454 15.6571V18.1978H24.4884L23.9535 21.6745H21.1454V29.6978" stroke="#000000" stroke-width="1.5" stroke-linecap="round" stroke-linejoin="round"/>
<path opacity="0.35" d="M25.1279 6.46843C25.1279 4.80583 26.6059 3.53197 28.2503 3.77724L32.0599 4.34545C33.2988 4.53025 34.2516 5.53708 34.3677 6.78437L34.4687 7.86901C34.7197 10.5648 32.7359 12.9529 30.0397 13.2003L28.0976 13.3786C26.5033 13.5249 25.1279 12.27 25.1279 10.669V6.46843Z" fill="#007BFE"/>
<path fill-rule="evenodd" clip-rule="evenodd" d="M36.4062 3.54567V3.96019C36.4062 4.23042 36.2099 4.46062 35.9431 4.50329C34.8714 4.67465 33.8959 5.22236 33.1916 6.04812C32.6317 6.7046 32.2724 7.50263 32.1485 8.34756L32.1629 8.3278L32.1636 8.32682C33.027 7.1432 34.3217 6.34723 35.7676 6.11125C35.9269 6.08526 36.0895 6.13051 36.2124 6.23501C36.3354 6.33951 36.4062 6.49272 36.4062 6.65407V6.93672L37.9669 5.24119L36.4062 3.54567ZM35.759 2.08648C35.8951 2.01845 36.0474 1.98965 36.1989 2.00331C36.3504 2.01697 36.4951 2.07255 36.6168 2.16382C36.6437 2.184 36.6687 2.2066 36.6915 2.23134L38.896 4.62636C38.9751 4.69596 39.0401 4.7803 39.0874 4.87487C39.1443 4.98861 39.1739 5.11403 39.1739 5.24119C39.1739 5.36836 39.1443 5.49378 39.0874 5.60751C39.0401 5.70208 38.9751 5.78642 38.896 5.85602L36.6915 8.25104C36.6687 8.27578 36.6437 8.29838 36.6168 8.31856C36.4951 8.40983 36.3504 8.46541 36.1989 8.47908C36.0474 8.49274 35.8951 8.46393 35.759 8.39591C35.623 8.32788 35.5085 8.2233 35.4286 8.0939C35.3486 7.9645 35.3062 7.81539 35.3062 7.66327V7.34995C34.407 7.63677 33.6156 8.20302 33.0527 8.97458C33.0525 8.97473 33.0528 8.97442 33.0527 8.97458L32.4825 9.75989L32.4815 9.76126C32.4052 9.86561 32.3054 9.95044 32.1901 10.0088C32.0866 10.0612 31.9732 10.0909 31.8576 10.0962C31.7918 10.1024 31.7255 10.101 31.6599 10.0918C31.6281 10.0874 31.5967 10.0801 31.5662 10.0702C31.3951 10.0147 31.2471 9.90437 31.1449 9.75633C31.046 9.61299 30.9954 9.44198 31.0003 9.26818V9.00886C31.0004 7.66195 31.4806 6.35912 32.3546 5.33431C33.1261 4.42981 34.1597 3.79412 35.3062 3.5111V2.81912C35.3062 2.667 35.3486 2.51789 35.4286 2.38848C35.5085 2.25908 35.623 2.15451 35.759 2.08648Z" fill="#007BFE"/>
</svg>
