<svg width="40" height="40" viewBox="0 0 40 40" fill="none" xmlns="http://www.w3.org/2000/svg">
<path opacity="0.12" d="M33 27.7068C33 31.0869 30.613 33 23.7095 33C16.8059 33 8 31.0869 8 27.7068C8 24.3266 16.8059 22 23.7095 22C30.613 22 33 24.3266 33 27.7068Z" fill="#007BFE"/>
<path opacity="0.35" d="M20.6234 11.5156C20.6234 13.5979 19.8956 14.7764 17.7904 14.7764C15.6853 14.7764 13 13.5979 13 11.5156C13 9.43328 15.6853 8 17.7904 8C19.8956 8 20.6234 9.43328 20.6234 11.5156Z" fill="#007BFE"/>
<path d="M28.0126 29.0352L31.1054 23.9685C31.8383 22.7677 31.3423 21.1823 30.0633 20.6381L21.0159 16.7882C20.4631 16.553 19.8412 16.553 19.2884 16.7882L10.241 20.6381C8.96203 21.1823 8.46594 22.7677 9.19889 23.9685L12.2917 29.0352" stroke="#000000" stroke-width="1.5" stroke-linecap="square"/>
<path d="M26.9283 18.8706V10.9649C26.9283 9.71735 25.917 8.70605 24.6695 8.70605H15.6343C14.3868 8.70605 13.3755 9.71735 13.3755 10.9649V18.8706" stroke="#000000" stroke-width="1.5"/>
<path d="M22.281 12.0942H18.0222" stroke="#007BFE" stroke-width="1.5" stroke-linecap="round" stroke-linejoin="round"/>
<path d="M9.9873 31.2942L11.7181 30.1403C12.7175 29.474 14.0233 29.4889 15.0074 30.1777V30.1777C15.9729 30.8536 17.2504 30.8817 18.2448 30.249L18.454 30.1158C19.4861 29.4591 20.8182 29.4796 21.8361 30.1582V30.1582C22.862 30.8421 24.2083 30.8487 25.2341 30.1648V30.1648C26.26 29.4809 27.5965 29.4809 28.6223 30.1648L30.3164 31.2942" stroke="#000000" stroke-width="1.5" stroke-linecap="round" stroke-linejoin="round"/>
</svg>
