<svg width="40" height="40" viewBox="0 0 40 40" fill="none" xmlns="http://www.w3.org/2000/svg">
<path d="M20.293 12.4616H24.7951C26.0384 12.4616 27.0462 11.4538 27.0462 10.2105C27.0462 8.96731 26.0384 7.95947 24.7951 7.95947C22.3087 7.95947 20.293 9.97515 20.293 12.4616ZM20.293 12.4616H15.7909C14.5476 12.4616 13.5398 11.4538 13.5398 10.2105C13.5398 8.96731 14.5476 7.95947 15.7909 7.95947C18.2773 7.95947 20.293 9.97515 20.293 12.4616Z" stroke="#007BFE" stroke-width="1.5" stroke-linecap="round"/>
<path opacity="0.12" d="M22.8493 26.1113C22.8493 30.0526 21.3895 32.2832 17.1676 32.2832C12.9457 32.2832 7.24187 34.0468 7.56038 25.7907C7.86873 17.7977 12.9457 19.1366 17.1676 19.1366C21.3895 19.1366 22.8493 22.1701 22.8493 26.1113Z" fill="#007BFE"/>
<path opacity="0.35" d="M31.0621 12.2043C31.1957 14.0239 32.0481 15.1507 28.2761 15.4277C24.5042 15.7046 17.5687 15.4705 17.4351 13.651C17.3015 11.8315 17.6215 10.2887 21.3935 10.0117C25.1655 9.7348 30.9285 10.3848 31.0621 12.2043Z" fill="#007BFE"/>
<path d="M11.2879 18.0891H29.2965M11.2879 18.0891C10.0447 18.0891 9.03687 17.0813 9.03687 15.838V14.7125C9.03687 13.4693 10.0447 12.4614 11.2879 12.4614H29.2965C30.5397 12.4614 31.5476 13.4693 31.5476 14.7125V15.838C31.5476 17.0813 30.5397 18.0891 29.2965 18.0891M11.2879 18.0891L11.2879 28.2189C11.2879 29.4622 12.2958 30.47 13.539 30.47H27.0454C28.2887 30.47 29.2965 29.4622 29.2965 28.2189V18.0891M20.2922 12.4614H24.7944M20.2922 12.4614H15.7901M20.2922 12.4614V30.47" stroke="#000000" stroke-width="1.5" stroke-linecap="round"/>
</svg>
