<svg width="40" height="40" viewBox="0 0 40 40" fill="none" xmlns="http://www.w3.org/2000/svg">
<path d="M6.64583 12.1699C6.90648 10.9819 8.02729 10.2247 9.23661 10.3542L36.1948 13.2397C37.5677 13.3866 38.5615 14.6187 38.4145 15.9916L36.2737 35.9919C36.1523 37.1267 35.2825 38.031 34.1466 38.1412C28.7512 38.6647 13.5041 39.4495 8.15516 32.3686C4.01687 26.8903 5.68526 16.5477 6.64583 12.1699Z" fill="#EEF1FB"/>
<rect x="5.41699" y="5.41675" width="29.1667" height="29.1667" rx="5.83333" stroke="#000000" stroke-width="1.5625"/>
<circle cx="28.7503" cy="11.2501" r="1.45833" fill="#000000"/>
<circle cx="19.9997" cy="19.9999" r="7.29167" stroke="#000000" stroke-width="1.5625"/>
<path opacity="0.5" d="M25.625 20.188C25.625 23.2608 24.5509 25 21.4443 25C18.3377 25 14.375 23.2608 14.375 20.188C14.375 17.1151 18.3377 15 21.4443 15C24.5509 15 25.625 17.1151 25.625 20.188Z" fill="#007BFE"/>
</svg>
