<svg width="40" height="40" viewBox="0 0 40 40" fill="none" xmlns="http://www.w3.org/2000/svg">
<path opacity="0.12" d="M6.18485 9.0222C6.38593 8.10577 7.25055 7.52166 8.18346 7.62151L28.9798 9.84748C30.0388 9.96084 30.8055 10.9113 30.6921 11.9704L29.0407 27.3992C28.947 28.2746 28.276 28.9722 27.3997 29.0572C23.2375 29.4611 11.4755 30.0665 7.3492 24.6041C4.1568 20.378 5.44385 12.3994 6.18485 9.0222Z" fill="#007BFE"/>
<path d="M32.4827 9.19629L32.4827 3.86296" stroke="#007BFE" stroke-width="1.5" stroke-linecap="round"/>
<path d="M29.8157 6.41895L35.149 6.41895" stroke="#007BFE" stroke-width="1.5" stroke-linecap="round"/>
<path opacity="0.35" d="M25.2678 18.2165C25.2678 20.587 24.4392 21.9286 22.0427 21.9286C19.6461 21.9286 16.5892 20.587 16.5892 18.2165C16.5892 15.846 19.6461 14.2144 22.0427 14.2144C24.4392 14.2144 25.2678 15.846 25.2678 18.2165Z" fill="#007BFE"/>
<rect x="7.74963" y="8.75024" width="22.5" height="22.5" rx="5.78571" stroke="#000000" stroke-width="1.5"/>
<circle cx="25.7496" cy="13.2502" r="1.125" fill="#007BFE"/>
<circle cx="19.0004" cy="19.9998" r="5.625" stroke="#000000" stroke-width="1.5"/>
</svg>
