<svg width="40" height="40" viewBox="0 0 40 40" fill="none" xmlns="http://www.w3.org/2000/svg">
<g clip-path="url(#clip0_85756_682)">
<path d="M9.95451 20.8177C9.53631 19.9679 9.56648 18.966 10.0351 18.1428L19.7516 1.07374C20.737 -0.657312 23.1468 -0.874172 24.4254 0.653129L37.7718 16.5952C38.98 18.0383 38.487 20.2351 36.778 21.0236L17.5304 29.9042C16.1229 30.5536 14.4542 29.9622 13.7698 28.5713L9.95451 20.8177Z" fill="#EEF1FB"/>
<path d="M6.92133 25.5059C6.29454 24.4528 6.05697 23.2132 6.25 22.0029V22.0029C6.61336 19.7246 9.53205 18.9958 10.9238 20.8357L13.7413 24.5605C14.9792 26.197 14.1398 28.566 12.1477 29.0579L11.491 29.2201C10.2694 29.5218 8.99425 28.9889 8.35073 27.9076L6.92133 25.5059Z" fill="#007BFE"/>
<path d="M23.4501 26.2745L26.8793 32.214C27.5409 33.3599 27.1483 34.8252 26.0024 35.4868C24.8564 36.1484 23.3912 35.7557 22.7296 34.6098L18.4913 27.2689M13.7677 28.2424L30.7282 24.3587C32.8232 23.879 33.8562 21.509 32.7816 19.6477L25.9262 7.77374C24.8516 5.91245 22.2825 5.62207 20.8196 7.19655L8.97603 19.9429L13.7677 28.2424ZM9.37538 20.6345L13.3684 27.5507C14.03 28.6966 13.6374 30.1619 12.4915 30.8235C11.3456 31.4851 9.88033 31.0924 9.21873 29.9465L5.22568 23.0304C4.56409 21.8844 4.9567 20.4192 6.10261 19.7576C7.24852 19.096 8.71379 19.4886 9.37538 20.6345Z" stroke="#000000" stroke-width="1.66667" stroke-linecap="round" stroke-linejoin="round"/>
<path d="M31.9795 8.61947L32.5785 6.22363" stroke="#007BFE" stroke-width="1.87174" stroke-linecap="round"/>
<path d="M37.2887 14.6093L34.9144 13.9301" stroke="#007BFE" stroke-width="1.87174" stroke-linecap="round"/>
</g>
<defs>
<clipPath id="clip0_85756_682">
<rect width="40" height="40" fill="white"/>
</clipPath>
</defs>
</svg>
