<svg width="40" height="40" viewBox="0 0 40 40" fill="none" xmlns="http://www.w3.org/2000/svg">
<path opacity="0.12" d="M31 24.5867C31 28.8477 27.4183 31 23 31C18.5817 31 14 30.8417 14 26.5807C14 22.3196 17.7484 18 22.1667 18C26.5849 18 31 20.3256 31 24.5867Z" fill="#007BFE"/>
<path opacity="0.35" d="M33.0938 14.7895C33.0938 17.4782 32.1539 19 29.4356 19C26.7173 19 23.25 17.4782 23.25 14.7895C23.25 12.1007 26.7173 10.25 29.4356 10.25C32.1539 10.25 33.0938 12.1007 33.0938 14.7895Z" fill="#007BFE"/>
<path d="M30 15C30 16.6569 28.6569 18 27 18C25.3431 18 24 16.6569 24 15C24 13.3431 25.3431 12 27 12C28.6569 12 30 13.3431 30 15Z" stroke="#007BFE" stroke-width="1.5" stroke-linecap="round"/>
<path d="M13.5003 16.7502L17.5966 19.481C19.0522 20.4514 20.9485 20.4514 22.404 19.481L22.9353 19.1269M21.9532 11.3335H13.5003C11.1071 11.3335 9.16699 13.2736 9.16699 15.6668V26.5002C9.16699 28.8934 11.1071 30.8335 13.5003 30.8335H26.5003C28.8936 30.8335 30.8337 28.8934 30.8337 26.5002V20.2139" stroke="#000000" stroke-width="1.5" stroke-linecap="round"/>
</svg>
