<svg width="40" height="40" viewBox="0 0 40 40" fill="none" xmlns="http://www.w3.org/2000/svg">
<path d="M37.5 25C37.5 32.6822 30.7843 36.5625 22.5 36.5625C14.2157 36.5625 5.625 36.2771 5.625 28.5949C5.625 20.9128 12.6532 13.125 20.9375 13.125C29.2218 13.125 37.5 17.3178 37.5 25Z" fill="#EEF1FB"/>
<path opacity="0.5" d="M36.25 10.188C36.25 13.2608 35.1759 15 32.0693 15C28.9627 15 25 13.2608 25 10.188C25 7.11511 28.9627 5 32.0693 5C35.1759 5 36.25 7.11511 36.25 10.188Z" fill="#007BFE"/>
<path d="M11.2503 15.6249L16.7646 19.3011C18.724 20.6074 21.2767 20.6074 23.2361 19.3011L23.9512 18.8243M22.6293 8.33325H11.2503C8.02866 8.33325 5.41699 10.9449 5.41699 14.1666V28.7499C5.41699 31.9716 8.02866 34.5833 11.2503 34.5833H28.7503C31.972 34.5833 34.5837 31.9716 34.5837 28.7499V20.2877M34.5837 12.7083C34.5837 15.1245 32.6249 17.0833 30.2087 17.0833C27.7924 17.0833 25.8337 15.1245 25.8337 12.7083C25.8337 10.292 27.7924 8.33325 30.2087 8.33325C32.6249 8.33325 34.5837 10.292 34.5837 12.7083Z" stroke="#000000" stroke-width="1.5625" stroke-linecap="round"/>
</svg>
