<svg width="40" height="40" viewBox="0 0 40 40" fill="none" xmlns="http://www.w3.org/2000/svg">
<g clip-path="url(#clip0_88558_938)">
<path opacity="0.12" d="M26 25.3008C26 30.2173 24.1859 33 18.9392 33C13.6925 33 7 30.2173 7 25.3008C7 20.3842 13.6925 17 18.9392 17C24.1859 17 26 20.3842 26 25.3008Z" fill="#007BFE"/>
<path opacity="0.35" d="M30 29.6316C30 31.7826 28.2091 32.5 26 32.5C23.7909 32.5 22 31.7826 22 29.6316C22 27.4806 24.8179 26 27.027 26C29.2362 26 30 27.4806 30 29.6316Z" fill="#007BFE"/>
<path d="M24.911 12.6328C24.911 9.92046 22.7122 7.72168 19.9999 7.72168C17.2875 7.72168 15.0887 9.92046 15.0887 12.6328" stroke="#000000" stroke-width="1.5" stroke-linecap="round" stroke-linejoin="round"/>
<path d="M10.8674 16.9348C11.1746 14.4771 13.2638 12.6328 15.7406 12.6328H24.2586C26.7354 12.6328 28.8246 14.4771 29.1318 16.9348L30.3595 26.757C30.7259 29.6882 28.4404 32.2773 25.4864 32.2773H14.5128C11.5588 32.2773 9.2732 29.6882 9.6396 26.757L10.8674 16.9348Z" stroke="#000000" stroke-width="1.5" stroke-linejoin="round"/>
<path d="M16.3165 23.9106C19.2094 25.5563 20.7949 25.539 23.6832 23.9106" stroke="#007BFE" stroke-width="1.5" stroke-linecap="round" stroke-linejoin="round"/>
</g>
<defs>
<clipPath id="clip0_88558_938">
<rect width="26" height="26" fill="white" transform="translate(7 7)"/>
</clipPath>
</defs>
</svg>
