<svg width="40" height="40" viewBox="0 0 40 40" fill="none" xmlns="http://www.w3.org/2000/svg">
<path d="M31.25 19.8449C31.25 27.5271 28.3856 31.875 20.1014 31.875C11.8171 31.875 1.25 27.5271 1.25 19.8449C1.25 12.1628 11.8171 6.875 20.1014 6.875C28.3856 6.875 31.25 12.1628 31.25 19.8449Z" fill="#EEF1FB"/>
<path opacity="0.5" d="M25.625 21.438C25.625 24.5108 24.5509 26.25 21.4443 26.25C18.3377 26.25 14.375 24.5108 14.375 21.438C14.375 18.3651 18.3377 16.25 21.4443 16.25C24.5509 16.25 25.625 18.3651 25.625 21.438Z" fill="#007BFE"/>
<path d="M25.8337 11.2501C25.8337 8.02842 23.222 5.41675 20.0003 5.41675C16.7787 5.41675 14.167 8.02842 14.167 11.2501" stroke="#000000" stroke-width="1.5625" stroke-linecap="round" stroke-linejoin="round"/>
<path d="M9.15268 16.3598C9.51757 13.4406 11.9991 11.25 14.941 11.25H25.0585C28.0004 11.25 30.4819 13.4406 30.8468 16.3598L32.3051 28.0265C32.7403 31.5081 30.0256 34.5833 26.5168 34.5833H13.4826C9.97389 34.5833 7.25914 31.5081 7.69434 28.0265L9.15268 16.3598Z" stroke="#000000" stroke-width="1.5625" stroke-linejoin="round"/>
<path d="M15.625 25.8333C19.061 27.7879 20.9444 27.7674 24.375 25.8333" stroke="#007BFE" stroke-width="1.5625" stroke-linecap="round" stroke-linejoin="round"/>
</svg>
