<svg width="40" height="40" viewBox="0 0 40 40" fill="none" xmlns="http://www.w3.org/2000/svg">
<rect opacity="0.12" x="7.67529" y="10.6772" width="19.7076" height="16.7086" rx="1.90416" transform="rotate(-15 7.67529 10.6772)" fill="#007BFE"/>
<ellipse opacity="0.35" cx="22.3751" cy="24.3394" rx="4.33929" ry="3.375" fill="#007BFE"/>
<path d="M22.3746 16.625L15.6246 23.375M12.2496 30.125C9.76435 30.125 7.74963 28.1103 7.74963 25.625V24.5C7.74963 23.8787 8.26714 23.3934 8.85426 23.1901C10.1757 22.7326 11.1246 21.4771 11.1246 20C11.1246 18.5229 10.1757 17.2674 8.85427 16.8099C8.26714 16.6066 7.74963 16.1213 7.74963 15.5V14.375C7.74963 11.8897 9.76435 9.875 12.2496 9.875H25.7496C28.2349 9.875 30.2496 11.8897 30.2496 14.375V15.5C30.2496 16.1213 29.7321 16.6066 29.145 16.8099C27.8235 17.2674 26.8746 18.5229 26.8746 20C26.8746 21.4771 27.8235 22.7326 29.145 23.1901C29.7321 23.3934 30.2496 23.8787 30.2496 24.5V25.625C30.2496 28.1103 28.2349 30.125 25.7496 30.125H12.2496Z" stroke="#000000" stroke-width="1.5" stroke-linecap="round" stroke-linejoin="round"/>
<path d="M15.625 23.375L22.375 16.625" stroke="#007BFE" stroke-width="1.44643" stroke-linecap="round" stroke-linejoin="round"/>
<circle cx="23.0981" cy="23.1338" r="1.20536" fill="#007BFE"/>
<circle cx="15.3836" cy="16.3838" r="1.20536" fill="#007BFE"/>
</svg>
