<svg width="40" height="40" viewBox="0 0 40 40" fill="none" xmlns="http://www.w3.org/2000/svg">
<g clip-path="url(#clip0_85553_557)">
<path d="M35.6916 21.9037C38.0457 35.1042 33.1258 37.6043 22.6146 37.6043C12.1035 37.6042 7.96884 40.7417 6.08516 26.6221C4.26148 12.9524 14.4658 13.4769 22.6146 12.0237C30.7634 10.5705 34.4989 15.2157 35.6916 21.9037Z" fill="#EEF1FB"/>
<path opacity="0.5" d="M33.9338 5.34007C37.072 8.95021 39.7662 10.7293 36.5456 13.5289C33.3251 16.3284 26.1749 19.9689 23.0366 16.3587C19.8984 12.7486 17.6599 9.43039 20.8805 6.63083C24.101 3.83128 30.7955 1.72994 33.9338 5.34007Z" fill="#007BFE"/>
<path fill-rule="evenodd" clip-rule="evenodd" d="M3.88867 13.889C3.88867 13.4288 4.26177 13.0557 4.72201 13.0557H7.77756C7.89253 13.0557 8.00625 13.0795 8.11158 13.1255L17.6789 17.3112C19.5678 18.1376 20.4364 20.333 19.6242 22.228C18.8077 24.1332 16.6014 25.0158 14.6962 24.1993L12.0326 23.0577C11.6096 22.8764 11.4136 22.3865 11.5949 21.9635C11.7762 21.5405 12.2661 21.3445 12.6892 21.5258L15.3527 22.6673C16.4118 23.1213 17.6384 22.6306 18.0923 21.5715C18.5438 20.518 18.0609 19.2976 17.0109 18.8382L7.60325 14.7223H4.72201C4.26177 14.7223 3.88867 14.3492 3.88867 13.889Z" fill="#000000"/>
<path fill-rule="evenodd" clip-rule="evenodd" d="M18.0995 21.9375L23.0205 24.398C24.1776 24.9765 25.4535 25.2778 26.7473 25.2778H29.1666C31.3144 25.2778 33.0555 27.0189 33.0555 29.1666C33.0555 31.3144 31.3144 33.0555 29.1666 33.0555H16.7741C14.7473 33.0555 12.7483 32.5836 10.9355 31.6772L4.34951 28.3842C3.93786 28.1784 3.77101 27.6778 3.97683 27.2662C4.18266 26.8545 4.68322 26.6877 5.09487 26.8935L11.6809 30.1865C13.2623 30.9772 15.0061 31.3889 16.7741 31.3889H29.1666C30.3939 31.3889 31.3889 30.3939 31.3889 29.1666C31.3889 27.9393 30.3939 26.9444 29.1666 26.9444H26.7473C25.1948 26.9444 23.6637 26.583 22.2751 25.8887L17.3542 23.4282L18.0995 21.9375Z" fill="#000000"/>
<path fill-rule="evenodd" clip-rule="evenodd" d="M29.1669 8.59613C26.2438 8.59613 23.8742 10.9657 23.8742 13.8888C23.8742 16.8118 26.2438 19.1814 29.1669 19.1814C32.0899 19.1814 34.4595 16.8118 34.4595 13.8888C34.4595 10.9657 32.0899 8.59613 29.1669 8.59613ZM22.2373 13.8888C22.2373 10.0617 25.3398 6.95923 29.1669 6.95923C32.994 6.95923 36.0964 10.0617 36.0964 13.8888C36.0964 17.7159 32.994 20.8184 29.1669 20.8184C25.3398 20.8184 22.2373 17.7159 22.2373 13.8888Z" fill="#007BFE"/>
</g>
<defs>
<clipPath id="clip0_85553_557">
<rect width="36.6667" height="36.6667" fill="white" transform="translate(1.66699 1.66675)"/>
</clipPath>
</defs>
</svg>
