<svg width="40" height="40" viewBox="0 0 40 40" fill="none" xmlns="http://www.w3.org/2000/svg">
<path opacity="0.1" d="M26.2785 23.4958C26.2785 29.8976 24.2894 33.5208 18.5364 33.5208C12.7834 33.5208 5.44519 29.8976 5.44519 23.4958C5.44519 17.094 12.7834 12.6875 18.5364 12.6875C24.2894 12.6875 26.2785 17.094 26.2785 23.4958Z" fill="#007BFE"/>
<path opacity="0.35" d="M19.649 15.9944C19.5661 15.5825 19.7767 15.1687 20.1639 15.0056C22.416 14.0573 29.7717 11.2534 31.2394 14.4122C32.1321 16.3337 30.4219 18.9595 29.0953 20.5815C28.2877 21.5689 27.0264 22.0143 25.7536 21.9297L24.2411 21.8291C22.1958 21.6932 20.4954 20.2037 20.0913 18.1942L19.649 15.9944Z" fill="#007BFE"/>
<path d="M29.9822 17.8021V27.6497C29.9822 29.9669 28.1038 31.8453 25.7866 31.8453H14.1777C11.8606 31.8453 9.98218 29.9669 9.98218 27.6497V13.8186C9.98218 11.5015 11.8606 9.62305 14.1777 9.62305H21.5893" stroke="#000000" stroke-width="1.5" stroke-linecap="round" stroke-linejoin="round"/>
<path d="M15.7445 15.438H19.9818" stroke="#000000" stroke-width="1.5" stroke-linecap="round"/>
<path d="M15.7445 20.7344H24.2191" stroke="#000000" stroke-width="1.5" stroke-linecap="round"/>
<path d="M15.7445 26.0312H24.2191" stroke="#000000" stroke-width="1.5" stroke-linecap="round"/>
<path d="M26.3385 10.1411V16.497" stroke="#007BFE" stroke-width="1.5" stroke-linecap="round"/>
<path d="M29.5157 13.3193L23.1598 13.3193" stroke="#007BFE" stroke-width="1.5" stroke-linecap="round"/>
</svg>
