<svg width="40" height="40" viewBox="0 0 40 40" fill="none" xmlns="http://www.w3.org/2000/svg">
<path opacity="0.12" d="M27.9267 19.5946C27.9267 26.8329 25.8898 30.9296 19.9988 30.9296C14.1078 30.9296 6.59338 26.8329 6.59338 19.5946C6.59338 12.3563 14.1078 7.37402 19.9988 7.37402C25.8898 7.37402 27.9267 12.3563 27.9267 19.5946Z" fill="#007BFE"/>
<path opacity="0.35" d="M30.5933 12.6093C30.5933 10.2875 29.8294 8.9735 27.6203 8.9735C25.4111 8.9735 22.5933 10.2875 22.5933 12.6093C22.5933 14.931 25.4111 16.5291 27.6203 16.5291C29.8294 16.5291 30.5933 14.931 30.5933 12.6093Z" fill="#007BFE"/>
<path d="M22.1492 9.86304H13.8529C11.5619 9.86304 9.70471 11.7202 9.70471 14.0112V26.4556C9.70471 28.7466 11.5619 30.6038 13.8529 30.6038H26.2973C28.5883 30.6038 30.4455 28.7466 30.4455 26.4556V18.1593M30.4455 22.3075L27.3976 20.113C25.8138 18.9727 23.6494 19.0906 22.1988 20.3961L17.9513 24.2189C16.5007 25.5244 14.3363 25.6422 12.7526 24.5019L9.70471 22.3075M19.038 16.6038C19.038 18.0356 17.8773 19.1964 16.4455 19.1964C15.0136 19.1964 13.8529 18.0356 13.8529 16.6038C13.8529 15.1719 15.0136 14.0112 16.4455 14.0112C17.8773 14.0112 19.038 15.1719 19.038 16.6038Z" stroke="#000000" stroke-width="1.5" stroke-linecap="round"/>
<path d="M27.4827 15.1963L27.4827 9.86296" stroke="#007BFE" stroke-width="1.5" stroke-linecap="round"/>
<path d="M24.8157 12.4189H30.149" stroke="#007BFE" stroke-width="1.5" stroke-linecap="round"/>
</svg>
