<svg width="40" height="40" viewBox="0 0 40 40" fill="none" xmlns="http://www.w3.org/2000/svg">
<path d="M31.25 24.0602C31.25 34.239 28.3856 40 20.1014 40C11.8171 40 1.25 34.239 1.25 24.0602C1.25 13.8813 11.8171 6.875 20.1014 6.875C28.3856 6.875 31.25 13.8813 31.25 24.0602Z" fill="#EEF1FB"/>
<path opacity="0.5" d="M35 9.48778C35 6.22287 33.9259 4.375 30.8193 4.375C27.7127 4.375 23.75 6.22287 23.75 9.48778C23.75 12.7527 27.7127 15 30.8193 15C33.9259 15 35 12.7527 35 9.48778Z" fill="#007BFE"/>
<path d="M23.125 5.62524H11.4583C8.23667 5.62524 5.625 8.23692 5.625 11.4586V28.9586C5.625 32.1802 8.23667 34.7919 11.4583 34.7919H28.9583C32.18 34.7919 34.7917 32.1802 34.7917 28.9586V17.2919M34.7917 23.1252L30.5056 20.0393C28.2785 18.4357 25.2348 18.6015 23.1949 20.4374L17.2218 25.8131C15.1819 27.649 12.1382 27.8148 9.91105 26.2112L5.625 23.1252M18.75 15.1044C18.75 17.1179 17.1177 18.7502 15.1042 18.7502C13.0906 18.7502 11.4583 17.1179 11.4583 15.1044C11.4583 13.0909 13.0906 11.4586 15.1042 11.4586C17.1177 11.4586 18.75 13.0909 18.75 15.1044Z" stroke="#000000" stroke-width="1.5625" stroke-linecap="round"/>
<path d="M30.625 13.125L30.625 5.625" stroke="#007BFE" stroke-width="1.5625" stroke-linecap="round"/>
<path d="M26.875 9.21948L34.375 9.21948" stroke="#007BFE" stroke-width="1.5625" stroke-linecap="round"/>
</svg>
