<svg width="40" height="40" viewBox="0 0 40 40" fill="none" xmlns="http://www.w3.org/2000/svg">
<path d="M31.875 19.7556C31.875 31.0868 29.0106 37.5 20.7264 37.5C12.4421 37.5 1.875 31.0868 1.875 19.7556C1.875 8.42446 12.4421 0.625 20.7264 0.625C29.0106 0.625 31.875 8.42446 31.875 19.7556Z" fill="#EEF1FB"/>
<path d="M22.5874 6.69432C22.5356 6.1419 22.85 5.62436 23.3738 5.44119C26.1575 4.46756 34.7423 1.86489 36.5625 6.0749C37.6428 8.57363 35.6845 11.9558 34.051 14.1544C32.9505 15.6356 31.1248 16.3115 29.2842 16.18L28.7205 16.1398C25.6722 15.922 23.2284 13.5318 22.9431 10.489L22.5874 6.69432Z" fill="#97AEFD"/>
<path d="M33.125 16.1517V28.7501C33.125 31.9717 30.5133 34.5834 27.2917 34.5834H12.7083C9.48667 34.5834 6.875 31.9717 6.875 28.7501V11.2501C6.875 8.02842 9.48667 5.41675 12.7083 5.41675H22.1094" stroke="#000000" stroke-width="1.5625" stroke-linecap="round" stroke-linejoin="round"/>
<path d="M14.167 12.7083H20.0003" stroke="#000000" stroke-width="1.5625" stroke-linecap="round"/>
<path d="M14.167 20H25.8337" stroke="#000000" stroke-width="1.5625" stroke-linecap="round"/>
<path d="M14.167 27.2917H25.8337" stroke="#000000" stroke-width="1.5625" stroke-linecap="round"/>
<path d="M28.75 5.41675V14.1667" stroke="#007BFE" stroke-width="1.5625" stroke-linecap="round"/>
<path d="M33.125 9.79175L24.375 9.79175" stroke="#007BFE" stroke-width="1.5625" stroke-linecap="round"/>
</svg>
