<svg width="40" height="40" viewBox="0 0 40 40" fill="none" xmlns="http://www.w3.org/2000/svg">
<g clip-path="url(#clip0_85756_721)">
<g clip-path="url(#clip1_85756_721)">
<path d="M34.6477 25.8196C36.1129 34.0358 30.7586 36.0006 19.7265 36.8013C8.69426 37.6019 4.11563 39.9124 3.21416 31.0758C2.34139 22.521 13.0116 22.0772 21.675 20.5322C30.3385 18.9872 33.9053 21.6569 34.6477 25.8196Z" fill="#EEF1FB"/>
<path opacity="0.5" d="M34.5463 11.3925C37.7733 15.1048 40.5437 16.9343 37.2321 19.813C33.9204 22.6918 26.5678 26.4353 23.3408 22.723C20.1138 19.0107 17.812 15.5986 21.1236 12.7198C24.4353 9.84103 31.3193 7.68023 34.5463 11.3925Z" fill="#007BFE"/>
<ellipse cx="16.8056" cy="28.7846" rx="11.1806" ry="5.59028" stroke="#000000" stroke-width="1.66667" stroke-linejoin="round"/>
<circle cx="16.8059" cy="12.0141" r="6.38889" stroke="#000000" stroke-width="1.66667" stroke-linejoin="round"/>
<path d="M34.3752 18.4028H27.9863" stroke="#007BFE" stroke-width="1.66667" stroke-linecap="round"/>
<path d="M31.1807 15.2085L31.1807 21.5974" stroke="#007BFE" stroke-width="1.66667" stroke-linecap="round"/>
</g>
</g>
<defs>
<clipPath id="clip0_85756_721">
<rect width="40" height="40" fill="white"/>
</clipPath>
<clipPath id="clip1_85756_721">
<rect width="38.3333" height="38.3333" fill="white" transform="translate(0.833008 0.833252)"/>
</clipPath>
</defs>
</svg>
