<svg width="40" height="40" viewBox="0 0 40 40" fill="none" xmlns="http://www.w3.org/2000/svg">
<path d="M31.875 24.2669C31.875 32.7173 29.0106 37.5 20.7264 37.5C12.4421 37.5 1.875 32.7173 1.875 24.2669C1.875 15.8165 12.4421 10 20.7264 10C29.0106 10 31.875 15.8165 31.875 24.2669Z" fill="#EEF1FB"/>
<g clip-path="url(#clip0_85475_1158)">
<path d="M19.437 5.78885C19.2365 4.69742 20.0226 3.67163 21.1286 3.58134L32.3474 2.66551C33.4395 2.57637 34.375 3.43861 34.375 4.5343V17.1875C34.375 18.223 33.5355 19.0625 32.5 19.0625H23.437C22.5321 19.0625 21.7563 18.4162 21.5928 17.5262L19.437 5.78885Z" fill="#EEF1FB"/>
<path d="M16.7188 35C22.1553 35 26.5625 30.5228 26.5625 25V13.6622C28.0104 14.513 29.6914 15 31.4844 15H33.125V10H31.4844C28.7661 10 26.5625 7.76142 26.5625 5H21.6406V25C21.6406 27.7614 19.437 30 16.7188 30C14.0005 30 11.7969 27.7614 11.7969 25C11.7969 22.2386 14.0005 20 16.7188 20V15C11.2822 15 6.875 19.4772 6.875 25C6.875 30.5228 11.2822 35 16.7188 35Z" stroke="#000000" stroke-width="1.5625" stroke-linecap="round" stroke-linejoin="round"/>
</g>
<defs>
<clipPath id="clip0_85475_1158">
<rect width="35" height="35" fill="white" transform="translate(2.5 2.5)"/>
</clipPath>
</defs>
</svg>
