<svg width="40" height="40" viewBox="0 0 40 40" fill="none" xmlns="http://www.w3.org/2000/svg">
<path opacity="0.12" d="M27.516 24.3802C27.516 30.0842 25.5825 33.3125 19.9907 33.3125C14.3988 33.3125 7.26599 30.0842 7.26599 24.3802C7.26599 18.6762 14.3988 14.75 19.9907 14.75C25.5825 14.75 27.516 18.6762 27.516 24.3802Z" fill="#007BFE"/>
<path opacity="0.35" d="M34.0004 9.66917C34.0004 12.4347 33.0456 14 30.2841 14C27.5227 14 24.0004 12.4347 24.0004 9.66917C24.0004 6.9036 27.5227 5 30.2841 5C33.0456 5 34.0004 6.9036 34.0004 9.66917Z" fill="#007BFE"/>
<path fill-rule="evenodd" clip-rule="evenodd" d="M34.4066 3.54567V3.96019C34.4066 4.23042 34.2103 4.46062 33.9434 4.50329C32.8718 4.67465 31.8962 5.22236 31.192 6.04812C30.6321 6.7046 30.2728 7.50263 30.1489 8.34756L30.1633 8.3278L30.164 8.32682C31.0273 7.1432 32.3221 6.34723 33.768 6.11125C33.9272 6.08526 34.0899 6.13051 34.2128 6.23501C34.3357 6.33951 34.4066 6.49272 34.4066 6.65407V6.93672L35.9673 5.24119L34.4066 3.54567ZM33.7594 2.08648C33.8955 2.01845 34.0478 1.98965 34.1993 2.00331C34.3508 2.01697 34.4955 2.07255 34.6172 2.16382C34.6441 2.184 34.6691 2.2066 34.6919 2.23134L36.8964 4.62636C36.9754 4.69596 37.0405 4.7803 37.0878 4.87487C37.1447 4.98861 37.1743 5.11403 37.1743 5.24119C37.1743 5.36836 37.1447 5.49378 37.0878 5.60751C37.0405 5.70208 36.9754 5.78642 36.8964 5.85602L34.6919 8.25104C34.6691 8.27578 34.6441 8.29838 34.6172 8.31856C34.4955 8.40983 34.3508 8.46541 34.1993 8.47908C34.0478 8.49274 33.8954 8.46393 33.7594 8.39591C33.6233 8.32788 33.5089 8.2233 33.4289 8.0939C33.349 7.9645 33.3066 7.81539 33.3066 7.66327V7.34995C32.4073 7.63677 31.616 8.20302 31.053 8.97458C31.0529 8.97473 31.0531 8.97442 31.053 8.97458L30.4829 9.75989L30.4819 9.76126C30.4056 9.86561 30.3057 9.95044 30.1904 10.0088C30.0869 10.0612 29.9736 10.0909 29.858 10.0962C29.7922 10.1024 29.7258 10.101 29.6603 10.0918C29.6285 10.0874 29.5971 10.0801 29.5665 10.0702C29.3955 10.0147 29.2474 9.90437 29.1453 9.75633C29.0464 9.61299 28.9958 9.44198 29.0007 9.26818V9.00886C29.0008 7.66195 29.481 6.35912 30.355 5.33431C31.1264 4.42981 32.1601 3.79412 33.3066 3.5111V2.81912C33.3066 2.667 33.349 2.51789 33.4289 2.38848C33.5089 2.25908 33.6233 2.15451 33.7594 2.08648Z" fill="#007BFE"/>
<path fill-rule="evenodd" clip-rule="evenodd" d="M19.25 8C19.25 7.58579 19.5858 7.25 20 7.25H24.5833C24.9975 7.25 25.3333 7.58579 25.3333 8C25.3333 9.50289 25.9304 10.9442 26.9931 12.0069C28.0558 13.0696 29.4971 13.6667 31 13.6667C31.4142 13.6667 31.75 14.0025 31.75 14.4167V19C31.75 19.414 31.4145 19.7497 31.0005 19.75C29.0115 19.7514 27.0627 19.2475 25.3333 18.2959V22.6663C25.3333 22.6662 25.3333 22.6664 25.3333 22.6663C25.334 24.2913 24.8712 25.8831 23.9992 27.2542C23.1271 28.6255 21.882 29.7195 20.4099 30.4079C18.9378 31.0963 17.2999 31.3504 15.6884 31.1405C14.0769 30.9306 12.5588 30.2654 11.3122 29.2229C10.0655 28.1804 9.14215 26.8039 8.65042 25.255C8.15869 23.7061 8.11901 22.0491 8.53605 20.4784C8.95309 18.9078 9.80953 17.4887 11.0048 16.3877C12.2002 15.2867 13.6847 14.5496 15.2843 14.2628C15.5029 14.2236 15.7276 14.2833 15.8979 14.4258C16.0683 14.5683 16.1667 14.779 16.1667 15.001V19.7677C16.1667 20.0574 15.9998 20.3212 15.7381 20.4453C15.3406 20.6339 15.001 20.9256 14.7547 21.2902C14.5084 21.6547 14.3644 22.0786 14.3378 22.5177C14.3112 22.9569 14.4029 23.3951 14.6034 23.7867C14.8039 24.1783 15.1058 24.5089 15.4776 24.7441C15.8494 24.9793 16.2775 25.1103 16.7172 25.1237C17.1569 25.137 17.5922 25.0321 17.9775 24.8199C18.3629 24.6076 18.6843 24.2959 18.9081 23.9172C19.1319 23.5384 19.25 23.1066 19.25 22.6667C19.25 22.6666 19.25 22.6667 19.25 22.6667V8ZM20.75 8.75V22.6667C20.75 23.375 20.5598 24.0705 20.1994 24.6803C19.839 25.2901 19.3216 25.7921 18.7011 26.1338C18.0806 26.4755 17.3798 26.6444 16.6718 26.623C15.9637 26.6015 15.2744 26.3905 14.6757 26.0118C14.0771 25.6331 13.591 25.1008 13.2682 24.4702C12.9454 23.8397 12.7977 23.1341 12.8406 22.427C12.8834 21.7199 13.1152 21.0373 13.5118 20.4504C13.8166 19.9992 14.2102 19.6173 14.6667 19.3269V15.957C13.6866 16.2673 12.7826 16.7896 12.0211 17.491C11.0357 18.3986 10.3296 19.5685 9.98582 20.8634C9.64202 22.1582 9.67472 23.5242 10.0801 24.8011C10.4855 26.078 11.2467 27.2128 12.2744 28.0722C13.3021 28.9317 14.5537 29.4801 15.8822 29.6531C17.2106 29.8261 18.5609 29.6166 19.7745 29.0491C20.9881 28.4816 22.0146 27.5797 22.7335 26.4493C23.4524 25.3188 23.834 24.0067 23.8333 22.667V16.9375C23.8333 16.6562 23.9907 16.3986 24.241 16.2702C24.4912 16.1418 24.7923 16.1642 25.0208 16.3283C26.5595 17.4331 28.3704 18.0865 30.25 18.2231V15.1273C28.6249 14.9564 27.0985 14.2336 25.9324 13.0676C24.7664 11.9015 24.0436 10.3751 23.8727 8.75H20.75Z" fill="#000000"/>
</svg>
