<svg width="40" height="40" viewBox="0 0 40 40" fill="none" xmlns="http://www.w3.org/2000/svg">
<g clip-path="url(#clip0_85470_525)">
<rect x="4.375" y="16.1987" width="26.88" height="24.375" rx="5" transform="rotate(-11.1785 4.375 16.1987)" fill="#EEF1FB"/>
<g clip-path="url(#clip1_85470_525)">
<path d="M7.81834 7.86181L31.9348 10.9579C34.8437 11.3313 34.8437 15.5437 31.9348 15.9172L7.81833 19.0132C6.32352 19.2051 5 18.0406 5 16.5335V10.3415C5 8.83438 6.32352 7.66991 7.81834 7.86181Z" fill="#EEF1FB"/>
<path d="M14.167 5.41675V9.79175" stroke="#000000" stroke-width="1.66667" stroke-linecap="round" stroke-linejoin="round"/>
<path d="M25.833 5.41675V9.79175" stroke="#000000" stroke-width="1.66667" stroke-linecap="round" stroke-linejoin="round"/>
<path d="M6.875 13.4376C6.875 10.2159 9.48667 7.60425 12.7083 7.60425H27.2917C30.5133 7.60425 33.125 10.2159 33.125 13.4376V28.7501C33.125 31.9717 30.5133 34.5834 27.2917 34.5834H12.7083C9.48667 34.5834 6.875 31.9717 6.875 28.7501V13.4376Z" stroke="#000000" stroke-width="1.66667" stroke-linejoin="round"/>
<path d="M15.625 24.3749L18.1812 26.4199C18.7906 26.9074 19.6758 26.8288 20.1897 26.2414L24.375 21.4583" stroke="#007BFE" stroke-width="1.5625" stroke-linecap="round" stroke-linejoin="round"/>
<path d="M6.875 15.625H33.125" stroke="#000000" stroke-width="1.66667" stroke-linecap="round" stroke-linejoin="round"/>
</g>
</g>
<defs>
<clipPath id="clip0_85470_525">
<rect width="40" height="40" fill="white"/>
</clipPath>
<clipPath id="clip1_85470_525">
<rect width="35" height="35" fill="white" transform="translate(2.5 2.5)"/>
</clipPath>
</defs>
</svg>
