<svg width="40" height="40" viewBox="0 0 40 40" fill="none" xmlns="http://www.w3.org/2000/svg">
<path opacity="0.12" d="M18.8821 31.6029C12.0655 33.4294 7.69342 32.545 6.20689 26.9971C4.72035 21.4493 6.68222 13.3389 13.4988 11.5124C20.3154 9.68593 26.9036 15.5053 28.3902 21.0532C29.8767 26.601 25.6987 29.7764 18.8821 31.6029Z" fill="#007BFE"/>
<path opacity="0.35" d="M24.4349 20.6157C24.4349 23.5925 23.3944 25.2773 20.3848 25.2773C17.3753 25.2773 13.5365 23.5925 13.5365 20.6157C13.5365 17.6389 17.3753 15.5898 20.3848 15.5898C23.3944 15.5898 24.4349 17.6389 24.4349 20.6157Z" fill="#007BFE"/>
<path d="M29.9509 15.0627L29.9509 9.23682M29.9509 9.23682L24.125 9.23682M29.9509 9.23682L18.3474 20.8403" stroke="#007BFE" stroke-width="1.5" stroke-linecap="round" stroke-linejoin="round"/>
<path d="M19.5457 10.8018H12.179C9.96981 10.8018 8.17896 12.5926 8.17896 14.8018V27.0093C8.17896 29.2184 9.96982 31.0093 12.179 31.0093H24.3865C26.5956 31.0093 28.3865 29.2184 28.3865 27.0093V19.6425" stroke="#000000" stroke-width="1.5" stroke-linecap="round" stroke-linejoin="round"/>
</svg>
