<svg width="40" height="40" viewBox="0 0 40 40" fill="none" xmlns="http://www.w3.org/2000/svg">
<path opacity="0.12" d="M21.3762 12.5629C24.6014 17.7172 30.4245 24.6988 26.8876 26.9119C23.3508 29.125 19.3161 31.8198 16.0909 26.6655C13.0778 21.2568 8.39572 16.8925 11.9325 14.6793C15.4693 12.4662 18.151 7.40856 21.3762 12.5629Z" fill="#007BFE"/>
<path opacity="0.35" d="M32 12.1504C32 14.6087 31.1407 16 28.6554 16C26.1701 16 23 14.6087 23 12.1504C23 9.69209 26.1701 8 28.6554 8C31.1407 8 32 9.69209 32 12.1504Z" fill="#007BFE"/>
<path fill-rule="evenodd" clip-rule="evenodd" d="M32.4062 2.54567V2.96019C32.4062 3.23042 32.2099 3.46062 31.9431 3.50329C30.8714 3.67465 29.8959 4.22236 29.1916 5.04812C28.6317 5.7046 28.2724 6.50263 28.1485 7.34756L28.1629 7.3278L28.1636 7.32682C29.027 6.1432 30.3217 5.34723 31.7676 5.11125C31.9269 5.08526 32.0895 5.13051 32.2124 5.23501C32.3354 5.33951 32.4062 5.49272 32.4062 5.65407V5.93672L33.9669 4.24119L32.4062 2.54567ZM31.759 1.08648C31.8951 1.01845 32.0474 0.989649 32.1989 1.00331C32.3504 1.01697 32.4951 1.07255 32.6168 1.16382C32.6437 1.184 32.6687 1.2066 32.6915 1.23134L34.896 3.62636C34.9751 3.69596 35.0401 3.7803 35.0874 3.87487C35.1443 3.98861 35.1739 4.11403 35.1739 4.24119C35.1739 4.36836 35.1443 4.49378 35.0874 4.60751C35.0401 4.70208 34.9751 4.78642 34.896 4.85602L32.6915 7.25104C32.6687 7.27578 32.6437 7.29838 32.6168 7.31856C32.4951 7.40983 32.3504 7.46541 32.1989 7.47908C32.0474 7.49274 31.8951 7.46393 31.759 7.39591C31.623 7.32788 31.5085 7.2233 31.4286 7.0939C31.3486 6.9645 31.3062 6.81539 31.3062 6.66327V6.34995C30.407 6.63677 29.6156 7.20302 29.0527 7.97458C29.0525 7.97473 29.0528 7.97442 29.0527 7.97458L28.4825 8.75989L28.4815 8.76126C28.4052 8.86561 28.3054 8.95044 28.1901 9.00881C28.0866 9.06121 27.9732 9.09095 27.8576 9.09624C27.7918 9.10245 27.7255 9.10097 27.6599 9.09181C27.6281 9.08736 27.5967 9.08014 27.5662 9.07022C27.3951 9.01468 27.2471 8.90437 27.1449 8.75633C27.046 8.61299 26.9954 8.44198 27.0003 8.26818V8.00886C27.0004 6.66195 27.4806 5.35912 28.3546 4.33431C29.1261 3.42981 30.1597 2.79412 31.3062 2.5111V1.81912C31.3062 1.667 31.3486 1.51789 31.4286 1.38848C31.5085 1.25908 31.623 1.15451 31.759 1.08648Z" fill="#007BFE"/>
<path d="M10.7004 29.5539L18.6682 21.5861M18.6682 21.5861L10.7004 10.5537H15.9782L21.7327 18.5215M18.6682 21.5861L24.4227 29.5539H29.7004L21.7327 18.5215M29.7004 10.5537L21.7327 18.5215" stroke="#000000" stroke-width="1.5" stroke-linecap="round" stroke-linejoin="round"/>
</svg>
