<svg width="40" height="40" viewBox="0 0 40 40" fill="none" xmlns="http://www.w3.org/2000/svg">
<path d="M34.375 27.1805C34.375 32.1739 31.5106 35 23.2264 35C14.9421 35 4.375 32.1739 4.375 27.1805C4.375 22.187 14.9421 18.75 23.2264 18.75C31.5106 18.75 34.375 22.187 34.375 27.1805Z" fill="#EEF1FB"/>
<g clip-path="url(#clip0_85470_522)">
<rect x="1.875" y="4.17456" width="28.75" height="24.375" rx="2.5" transform="rotate(-8.34894 1.875 4.17456)" fill="#EEF1FB"/>
<rect x="5.625" y="6.875" width="29.1667" height="26.25" rx="5.83333" stroke="#000000" stroke-width="1.5625"/>
<path d="M19.1554 17.8471L23.7149 19.9097C25.6744 20.7961 25.6744 23.5789 23.7149 24.4653L19.1554 26.5279C17.5006 27.2765 15.625 26.0664 15.625 24.2501V20.1249C15.625 18.3086 17.5006 17.0985 19.1554 17.8471Z" fill="#97AEFD"/>
<path d="M16.4855 15.4303L23.4329 18.904C24.5078 19.4414 24.5078 20.9753 23.4329 21.5127L16.4855 24.9864C15.5159 25.4712 14.375 24.7661 14.375 23.682V16.7346C14.375 15.6505 15.5159 14.9454 16.4855 15.4303Z" stroke="#007BFE" stroke-width="1.5625" stroke-linecap="round"/>
</g>
<defs>
<clipPath id="clip0_85470_522">
<rect width="35" height="35" fill="white" transform="translate(2.5 2.5)"/>
</clipPath>
</defs>
</svg>
