<svg width="40" height="40" viewBox="0 0 40 40" fill="none" xmlns="http://www.w3.org/2000/svg">
<path opacity="0.35" d="M26.7307 22.9907C26.7307 25.3545 25.3536 26.6923 21.3708 26.6923C17.3879 26.6923 12.3076 25.3545 12.3076 22.9907C12.3076 20.627 17.3879 19 21.3708 19C25.3536 19 26.7307 20.627 26.7307 22.9907Z" fill="#007BFE"/>
<rect opacity="0.12" x="5.49231" y="8.71606" width="19.6514" height="16.661" rx="1.89873" transform="rotate(-8.34894 5.49231 8.71606)" fill="#007BFE"/>
<rect x="8.56604" y="9.83325" width="22.5" height="20" rx="4" stroke="#000000" stroke-width="1.5"/>
<path d="M17.1627 16.5522L22.4392 19.1904C23.2556 19.5986 23.2556 20.7636 22.4392 21.1718L17.1627 23.81C16.4263 24.1782 15.5598 23.6427 15.5598 22.8194V17.5429C15.5598 16.7195 16.4263 16.184 17.1627 16.5522Z" stroke="#007BFE" stroke-width="1.5" stroke-linecap="round"/>
</svg>
