<svg width="40" height="40" viewBox="0 0 40 40" fill="none" xmlns="http://www.w3.org/2000/svg">
<path fill-rule="evenodd" clip-rule="evenodd" d="M7.7572 18.3789C7.7572 16.8601 8.98842 15.6289 10.5072 15.6289H30.5072C32.026 15.6289 33.2572 16.8601 33.2572 18.3789V27.9702C33.2572 29.489 32.026 30.7202 30.5072 30.7202H10.5072C8.98842 30.7202 7.7572 29.489 7.7572 27.9702V18.3789ZM10.5072 17.1289C9.81685 17.1289 9.2572 17.6885 9.2572 18.3789V27.9702C9.2572 28.6606 9.81685 29.2202 10.5072 29.2202H30.5072C31.1976 29.2202 31.7572 28.6606 31.7572 27.9702V18.3789C31.7572 17.6885 31.1976 17.1289 30.5072 17.1289H10.5072Z" fill="#000000"/>
<path d="M21.4016 23.2847C21.4016 23.9948 20.826 24.5705 20.1159 24.5705C19.4058 24.5705 18.8302 23.9948 18.8302 23.2847C18.8302 22.5747 19.4058 21.999 20.1159 21.999C20.826 21.999 21.4016 22.5747 21.4016 23.2847Z" fill="#007BFE"/>
<path fill-rule="evenodd" clip-rule="evenodd" d="M10.7946 14.2358C10.7946 13.8216 11.1303 13.4858 11.5446 13.4858H29.5446C29.9588 13.4858 30.2946 13.8216 30.2946 14.2358C30.2946 14.6501 29.9588 14.9858 29.5446 14.9858H11.5446C11.1303 14.9858 10.7946 14.6501 10.7946 14.2358Z" fill="#000000"/>
<path fill-rule="evenodd" clip-rule="evenodd" d="M14.223 12.0928C14.223 11.6786 14.5588 11.3428 14.973 11.3428H26.1159C26.5301 11.3428 26.8659 11.6786 26.8659 12.0928C26.8659 12.507 26.5301 12.8428 26.1159 12.8428H14.973C14.5588 12.8428 14.223 12.507 14.223 12.0928Z" fill="#000000"/>
<path fill-rule="evenodd" clip-rule="evenodd" d="M13.3668 18.9988C13.3668 18.5676 13.7143 18.2002 14.1648 18.2002H26.583C27.0335 18.2002 27.381 18.5676 27.381 18.9988C27.381 19.91 28.1198 20.6488 29.031 20.6488C29.606 20.6488 30.2946 21.083 30.2946 21.8611V25.0697C30.2946 25.8478 29.606 26.2821 29.031 26.2821C28.4621 26.2821 27.9599 26.5695 27.6622 27.0104C27.3032 27.542 26.633 28.2716 25.6551 28.2716H15.0927C14.1148 28.2716 13.4446 27.542 13.0856 27.0104C12.7879 26.5695 12.2858 26.2821 11.7168 26.2821C11.244 26.2821 10.7946 25.907 10.7946 25.3658V21.565C10.7946 21.0238 11.244 20.6488 11.7168 20.6488C12.628 20.6488 13.3668 19.91 13.3668 18.9988ZM12.2946 22.0959V24.835C13.1399 24.9919 13.8665 25.4863 14.3288 26.171C14.6236 26.6076 14.9023 26.7716 15.0927 26.7716H25.6551C25.8455 26.7716 26.1243 26.6076 26.419 26.171C26.9425 25.3958 27.8047 24.8644 28.7946 24.7909V22.14C27.4019 22.0366 26.2613 21.0278 25.9594 19.7002H14.7884C14.5115 20.9176 13.5295 21.8669 12.2946 22.0959Z" fill="#007BFE"/>
</svg>
