<svg width="40" height="40" viewBox="0 0 40 40" fill="none" xmlns="http://www.w3.org/2000/svg">
<path fill-rule="evenodd" clip-rule="evenodd" d="M7.7572 18.3787C7.7572 16.8599 8.98842 15.6287 10.5072 15.6287H30.5072C32.026 15.6287 33.2572 16.8599 33.2572 18.3787V27.97C33.2572 29.4888 32.026 30.72 30.5072 30.72H10.5072C8.98842 30.72 7.7572 29.4888 7.7572 27.97V18.3787ZM10.5072 17.1287C9.81685 17.1287 9.2572 17.6883 9.2572 18.3787V27.97C9.2572 28.6603 9.81685 29.22 10.5072 29.22H30.5072C31.1976 29.22 31.7572 28.6603 31.7572 27.97V18.3787C31.7572 17.6883 31.1976 17.1287 30.5072 17.1287H10.5072Z" fill="#000000"/>
<path d="M21.4016 23.2845C21.4016 23.9946 20.826 24.5702 20.1159 24.5702C19.4058 24.5702 18.8302 23.9946 18.8302 23.2845C18.8302 22.5744 19.4058 21.9988 20.1159 21.9988C20.826 21.9988 21.4016 22.5744 21.4016 23.2845Z" fill="#007BFE"/>
<path fill-rule="evenodd" clip-rule="evenodd" d="M10.7946 14.2358C10.7946 13.8216 11.1303 13.4858 11.5446 13.4858H29.5446C29.9588 13.4858 30.2946 13.8216 30.2946 14.2358C30.2946 14.6501 29.9588 14.9858 29.5446 14.9858H11.5446C11.1303 14.9858 10.7946 14.6501 10.7946 14.2358Z" fill="#000000"/>
<path fill-rule="evenodd" clip-rule="evenodd" d="M14.223 12.0928C14.223 11.6786 14.5588 11.3428 14.973 11.3428H26.1159C26.5301 11.3428 26.8659 11.6786 26.8659 12.0928C26.8659 12.507 26.5301 12.8428 26.1159 12.8428H14.973C14.5588 12.8428 14.223 12.507 14.223 12.0928Z" fill="#000000"/>
<path fill-rule="evenodd" clip-rule="evenodd" d="M13.3668 18.9985C13.3668 18.5673 13.7143 18.2 14.1648 18.2H26.583C27.0335 18.2 27.381 18.5673 27.381 18.9985C27.381 19.9098 28.1198 20.6485 29.031 20.6485C29.606 20.6485 30.2946 21.0828 30.2946 21.8609V25.0695C30.2946 25.8476 29.606 26.2819 29.031 26.2819C28.4621 26.2819 27.9599 26.5692 27.6622 27.0102C27.3032 27.5418 26.633 28.2714 25.6551 28.2714H15.0927C14.1148 28.2714 13.4446 27.5418 13.0856 27.0102C12.7879 26.5692 12.2858 26.2819 11.7168 26.2819C11.244 26.2819 10.7946 25.9068 10.7946 25.3656V21.5648C10.7946 21.0236 11.244 20.6485 11.7168 20.6485C12.628 20.6485 13.3668 19.9098 13.3668 18.9985ZM12.2946 22.0956V24.8348C13.1399 24.9916 13.8665 25.4861 14.3288 26.1708C14.6236 26.6073 14.9023 26.7714 15.0927 26.7714H25.6551C25.8455 26.7714 26.1243 26.6073 26.419 26.1708C26.9425 25.3955 27.8047 24.8642 28.7946 24.7906V22.1398C27.4019 22.0364 26.2613 21.0276 25.9594 19.7H14.7884C14.5115 20.9174 13.5295 21.8667 12.2946 22.0956Z" fill="#007BFE"/>
</svg>
