<svg width="40" height="40" viewBox="0 0 40 40" fill="none" xmlns="http://www.w3.org/2000/svg">
<path fill-rule="evenodd" clip-rule="evenodd" d="M20 10.3926C20.4142 10.3926 20.75 10.7284 20.75 11.1426V14.8569C20.75 15.2711 20.4142 15.6069 20 15.6069C19.5858 15.6069 19.25 15.2711 19.25 14.8569V11.1426C19.25 10.7284 19.5858 10.3926 20 10.3926Z" fill="#007BFE"/>
<path fill-rule="evenodd" clip-rule="evenodd" d="M23.7144 11.3213C24.1286 11.3213 24.4644 11.6571 24.4644 12.0713V14.857C24.4644 15.2712 24.1286 15.607 23.7144 15.607C23.3001 15.607 22.9644 15.2712 22.9644 14.857V12.0713C22.9644 11.6571 23.3001 11.3213 23.7144 11.3213Z" fill="#007BFE"/>
<path fill-rule="evenodd" clip-rule="evenodd" d="M16.2856 11.3213C16.6999 11.3213 17.0356 11.6571 17.0356 12.0713V14.857C17.0356 15.2712 16.6999 15.607 16.2856 15.607C15.8714 15.607 15.5356 15.2712 15.5356 14.857V12.0713C15.5356 11.6571 15.8714 11.3213 16.2856 11.3213Z" fill="#007BFE"/>
<path d="M20.6964 9.0541C20.6964 9.43873 20.3846 9.75054 20 9.75054C19.6154 9.75054 19.3036 9.43873 19.3036 9.0541C19.3036 8.66947 20 7.89258 20 7.89258C20 7.89258 20.6964 8.66947 20.6964 9.0541Z" fill="#007BFE"/>
<path d="M24.4108 9.98184C24.4108 10.3665 24.099 10.6783 23.7144 10.6783C23.3297 10.6783 23.0179 10.3665 23.0179 9.98184C23.0179 9.59721 23.7144 8.82031 23.7144 8.82031C23.7144 8.82031 24.4108 9.59721 24.4108 9.98184Z" fill="#007BFE"/>
<path d="M16.9822 9.98184C16.9822 10.3665 16.6704 10.6783 16.2858 10.6783C15.9012 10.6783 15.5894 10.3665 15.5894 9.98184C15.5894 9.59721 16.2858 8.82031 16.2858 8.82031C16.2858 8.82031 16.9822 9.59721 16.9822 9.98184Z" fill="#007BFE"/>
<path fill-rule="evenodd" clip-rule="evenodd" d="M10.8929 16.3569C10.8929 15.1143 11.9003 14.1069 13.1429 14.1069H26.8572C28.0999 14.1069 29.1072 15.1143 29.1072 16.3569V20.5C29.1072 20.9142 28.7714 21.25 28.3572 21.25C27.943 21.25 27.6072 20.9142 27.6072 20.5V16.3569C27.6072 15.9427 27.2714 15.6069 26.8572 15.6069H13.1429C12.7287 15.6069 12.3929 15.9427 12.3929 16.3569V20.5C12.3929 20.9142 12.0572 21.25 11.6429 21.25C11.2287 21.25 10.8929 20.9142 10.8929 20.5V16.3569Z" fill="#000000"/>
<path fill-rule="evenodd" clip-rule="evenodd" d="M8.10706 25.2144C8.10706 23.6956 9.33827 22.4644 10.8571 22.4644H29.1428C30.6616 22.4644 31.8928 23.6956 31.8928 25.2144V30.643C31.8928 31.0572 31.557 31.393 31.1428 31.393C30.7286 31.393 30.3928 31.0572 30.3928 30.643V25.2144C30.3928 24.524 29.8331 23.9644 29.1428 23.9644H10.8571C10.1667 23.9644 9.60706 24.524 9.60706 25.2144V30.643C9.60706 31.0572 9.27127 31.393 8.85706 31.393C8.44284 31.393 8.10706 31.0572 8.10706 30.643V25.2144Z" fill="#000000"/>
<path fill-rule="evenodd" clip-rule="evenodd" d="M13.2144 17.6426C13.2144 17.2284 13.5501 16.8926 13.9644 16.8926C14.4605 16.8926 14.9364 17.0897 15.2873 17.4406L16.6091 18.7624C16.8857 19.039 17.3432 19.0065 17.5779 18.6935L18.2858 17.7497C19.1429 16.6069 20.8572 16.6069 21.7144 17.7497L22.4222 18.6935C22.6569 19.0065 23.1144 19.039 23.3911 18.7624L24.7129 17.4406C25.0637 17.0897 25.5396 16.8926 26.0358 16.8926C26.45 16.8926 26.7858 17.2284 26.7858 17.6426C26.7858 18.0568 26.45 18.3926 26.0358 18.3926C25.9374 18.3926 25.8431 18.4317 25.7735 18.5012L24.4517 19.823C23.5296 20.7451 22.0046 20.6368 21.2222 19.5935L20.5144 18.6497C20.2572 18.3069 19.7429 18.3069 19.4858 18.6497L18.778 19.5935C17.9955 20.6368 16.4705 20.7451 15.5484 19.823L14.2266 18.5012C14.1571 18.4317 14.0627 18.3926 13.9644 18.3926C13.5501 18.3926 13.2144 18.0568 13.2144 17.6426Z" fill="#000000"/>
<path fill-rule="evenodd" clip-rule="evenodd" d="M10.8929 26C10.8929 25.5858 11.2287 25.25 11.6429 25.25C12.1575 25.25 12.6392 25.5024 12.9321 25.9255L13.9827 27.4431C14.2541 27.835 14.8427 27.8056 15.0737 27.3886L15.3398 26.9081C16.1555 25.4352 18.2732 25.4352 19.0889 26.9081L19.2234 27.1509C19.4682 27.5928 20.1035 27.5928 20.3482 27.1509L20.4827 26.9081C21.2984 25.4352 23.4161 25.4352 24.2318 26.9081L24.4979 27.3886C24.7289 27.8056 25.3175 27.835 25.5889 27.4431L26.3956 26.2778C26.8412 25.6341 27.5743 25.25 28.3572 25.25C28.7714 25.25 29.1072 25.5858 29.1072 26C29.1072 26.4142 28.7714 26.75 28.3572 26.75C28.0665 26.75 27.7943 26.8926 27.6288 27.1316L26.8222 28.2969C25.9177 29.6034 23.9556 29.5054 23.1857 28.1153L22.9196 27.6348C22.6749 27.193 22.0396 27.193 21.7949 27.6348L21.6604 27.8777C20.8446 29.3505 18.727 29.3505 17.9112 27.8777L17.7767 27.6348C17.532 27.193 16.8967 27.193 16.652 27.6348L16.3859 28.1154C15.616 29.5054 13.654 29.6034 12.7495 28.2969L11.6988 26.7793C11.6861 26.7609 11.6652 26.75 11.6429 26.75C11.2287 26.75 10.8929 26.4142 10.8929 26Z" fill="#000000"/>
<path fill-rule="evenodd" clip-rule="evenodd" d="M6.25 31.1069C6.25 30.6927 6.58579 30.3569 7 30.3569H33C33.4142 30.3569 33.75 30.6927 33.75 31.1069C33.75 31.5211 33.4142 31.8569 33 31.8569H7C6.58579 31.8569 6.25 31.5211 6.25 31.1069Z" fill="#000000"/>
</svg>
