<svg width="40" height="40" viewBox="0 0 40 40" fill="none" xmlns="http://www.w3.org/2000/svg">
<path fill-rule="evenodd" clip-rule="evenodd" d="M6.53824 25.6018C6.14683 25.7373 5.71968 25.5299 5.58416 25.1385C5.44864 24.747 5.65609 24.3199 6.04751 24.1843L6.29274 24.8927C6.04751 24.1843 6.04741 24.1844 6.04751 24.1843L6.067 24.1776L6.12109 24.1591C6.16828 24.143 6.23734 24.1196 6.32585 24.09C6.50284 24.0306 6.75773 23.9463 7.07107 23.8457C7.69727 23.6445 8.55927 23.3774 9.50085 23.1141C10.4409 22.8513 11.4689 22.59 12.425 22.4024C13.3662 22.2177 14.2939 22.0928 15.0104 22.1317C16.3787 22.206 18.0645 22.735 19.4482 23.3908C20.1458 23.7213 20.7956 24.0976 21.3104 24.4887C21.7935 24.8556 22.2753 25.3221 22.4587 25.8639C22.7408 26.6978 22.5342 27.438 22.0279 27.9852C21.5662 28.4843 20.8952 28.7859 20.2571 28.9608C19.7425 29.1019 19.1039 29.0922 18.5072 29.0356C17.8904 28.9772 17.232 28.8591 16.6371 28.7312C16.0398 28.6027 15.4932 28.4613 15.0965 28.3524C14.8978 28.2978 14.7359 28.251 14.623 28.2178C14.5665 28.2011 14.5222 28.1879 14.4917 28.1786L14.4564 28.1679L14.4468 28.1649L14.443 28.1637C14.4429 28.1637 14.4428 28.1637 14.6585 27.469L14.443 28.1637C14.0474 28.0409 13.8261 27.6207 13.9489 27.2251C14.0717 26.8295 14.4918 26.6084 14.8874 26.7311M14.8874 26.7311L14.8892 26.7316L14.8963 26.7338L14.9266 26.743C14.9536 26.7512 14.9942 26.7634 15.0468 26.7789C15.1521 26.8099 15.3051 26.8541 15.4939 26.906C15.8723 27.0099 16.3904 27.1438 16.9525 27.2647C17.5169 27.3861 18.1125 27.4915 18.6487 27.5423C19.2051 27.595 19.6189 27.5804 19.8605 27.5142C20.371 27.3743 20.7356 27.1733 20.9269 26.9666C21.0736 26.8079 21.1374 26.639 21.0378 26.3447C21.0072 26.2542 20.8442 26.0182 20.4031 25.6831C19.9936 25.3721 19.4398 25.0467 18.8058 24.7463C17.5263 24.1399 16.0368 23.6896 14.9291 23.6295C14.4075 23.6012 13.6316 23.6942 12.7138 23.8743C11.8109 24.0515 10.8244 24.3016 9.90472 24.5587C8.9866 24.8154 8.14365 25.0766 7.52983 25.2738C7.22316 25.3723 6.97427 25.4546 6.80248 25.5122C6.71659 25.541 6.65002 25.5636 6.60517 25.5789L6.5545 25.5962L6.53824 25.6018" fill="#000000"/>
<path fill-rule="evenodd" clip-rule="evenodd" d="M24.0913 26.4426C23.6939 26.5594 23.277 26.332 23.1601 25.9347C23.0433 25.5373 23.2707 25.1204 23.6681 25.0035L23.8444 25.603C23.6681 25.0035 23.668 25.0035 23.6681 25.0035L23.6845 24.9987L23.7297 24.9856C23.7691 24.9742 23.8267 24.9576 23.9005 24.9367C24.0482 24.8948 24.2609 24.8354 24.523 24.7645C25.0466 24.6229 25.7694 24.4352 26.5647 24.2512C28.1185 23.8915 30.0699 23.5157 31.3203 23.5835C32.3184 23.6377 33.1285 24.3031 33.5206 25.0696C33.9196 25.8494 33.9673 26.9334 33.1183 27.6951C32.1143 28.5957 29.5553 30.1464 26.7903 31.5482C24.0187 32.9534 20.885 34.2884 18.7018 34.6938C16.948 35.0195 15.4923 34.1385 14.3006 33.3983C14.2625 33.3746 14.2246 33.351 14.1869 33.3276C12.9561 32.5623 11.9594 31.9427 10.8104 31.971C10.0606 31.9894 9.07684 32.2428 8.23366 32.5171C7.82213 32.651 7.46195 32.7838 7.20496 32.8831C7.07668 32.9327 6.97467 32.9736 6.90545 33.0019C6.87085 33.0161 6.84449 33.027 6.82719 33.0342L6.80813 33.0423L6.8039 33.044C6.80385 33.0441 6.80394 33.044 6.8039 33.044M6.8039 33.044C6.42301 33.2067 5.98166 33.0301 5.81896 32.6492C5.65624 32.2683 5.83312 31.8276 6.21403 31.6649L6.50867 32.3546C6.21403 31.6649 6.21394 31.6649 6.21403 31.6649L6.21715 31.6636L6.22396 31.6607L6.24834 31.6504C6.26929 31.6417 6.29947 31.6291 6.33808 31.6134C6.41526 31.5818 6.52625 31.5373 6.66439 31.4839C6.94023 31.3773 7.32654 31.2348 7.7696 31.0907C8.6356 30.8089 9.79344 30.4956 10.7734 30.4714C12.3869 30.4317 13.7462 31.2823 14.8652 31.9824C14.942 32.0305 15.0176 32.0778 15.0921 32.1241C16.3447 32.9021 17.3213 33.4246 18.4279 33.2191C20.384 32.8558 23.3536 31.6088 26.112 30.2103C28.877 28.8085 31.2747 27.3337 32.1167 26.5785C32.3118 26.4034 32.3744 26.1224 32.1852 25.7528C31.9893 25.3698 31.6083 25.1014 31.239 25.0813C30.2337 25.0268 28.4852 25.3463 26.9029 25.7125C26.1302 25.8914 25.4259 26.0743 24.9145 26.2125C24.659 26.2816 24.4522 26.3394 24.3097 26.3798C24.2385 26.4 24.1833 26.4159 24.1463 26.4266L24.1045 26.4387L24.0913 26.4426" fill="#000000"/>
<path fill-rule="evenodd" clip-rule="evenodd" d="M27.0085 7.04486C27.3356 6.3965 28.2723 6.44994 28.5282 7.12513L29.0685 8.5514L30.6993 9.26791C31.3562 9.55677 31.3649 10.4882 30.7132 10.789C30.7132 10.789 30.7133 10.789 30.7132 10.789L29.2248 11.4759L28.5371 12.9921C28.2422 13.6419 27.3213 13.6443 27.024 12.9947L26.411 11.6553L24.7512 10.7717C24.1517 10.4524 24.165 9.58485 24.7769 9.28591C24.7768 9.28593 24.7769 9.28589 24.7769 9.28591L26.238 8.57197L27.0085 7.04486ZM29.2817 11.3503C29.2815 11.3508 29.2813 11.3512 29.2811 11.3517L29.2817 11.3503ZM27.7026 8.33315L28.0004 9.11938C28.0395 9.22264 28.099 9.31796 28.1749 9.39812M27.7026 8.33315L27.2541 9.22202C27.1724 9.38412 27.0396 9.51566 26.8766 9.59552L25.9479 10.0493L27.0856 10.655C27.2463 10.7409 27.3744 10.8771 27.4503 11.0428L27.7784 11.7596L28.1876 10.8574C28.1875 10.8577 28.1877 10.8572 28.1876 10.8574C28.27 10.6751 28.4157 10.5277 28.5973 10.4438L29.4728 10.0398L28.4444 9.58793C28.3431 9.54326 28.251 9.47852 28.1749 9.39812" fill="#000000"/>
<path d="M11.6297 18.589L12.6424 19.0334C12.7474 19.0795 12.7487 19.2292 12.6446 19.2771L11.723 19.702C11.694 19.7154 11.6708 19.7388 11.6577 19.7679L11.2326 20.7043C11.1855 20.808 11.0393 20.8083 10.9919 20.7047L10.6121 19.8757C10.5999 19.8492 10.5794 19.8275 10.5537 19.8137L9.54255 19.2759C9.44655 19.2249 9.44892 19.0855 9.54661 19.0379L10.4451 18.5993C10.4712 18.5865 10.4923 18.5656 10.5054 18.5397L10.9774 17.6051C11.0295 17.502 11.1781 17.51 11.2191 17.618L11.5589 18.5142C11.5652 18.5308 11.5746 18.5459 11.5868 18.5587C11.599 18.5715 11.6136 18.5818 11.6297 18.589Z" stroke="#000000" stroke-width="1.2" stroke-linecap="round" stroke-linejoin="round"/>
<path fill-rule="evenodd" clip-rule="evenodd" d="M22.0657 13.4072C20.0119 13.4072 18.3469 15.0722 18.3469 17.126C18.3469 19.1798 20.0119 20.8447 22.0657 20.8447C24.1195 20.8447 25.7844 19.1798 25.7844 17.126C25.7844 15.0722 24.1195 13.4072 22.0657 13.4072ZM16.8469 17.126C16.8469 14.2437 19.1834 11.9072 22.0657 11.9072C24.9479 11.9072 27.2844 14.2437 27.2844 17.126C27.2844 20.0082 24.9479 22.3447 22.0657 22.3447C19.1834 22.3447 16.8469 20.0082 16.8469 17.126Z" fill="#007BFE"/>
<path fill-rule="evenodd" clip-rule="evenodd" d="M16.7388 10.6723C15.0617 10.6486 13.683 11.9889 13.6594 13.666C13.6425 14.8571 14.3137 15.8991 15.3083 16.4111C15.4164 16.4667 15.5281 16.516 15.6432 16.5585C16.0317 16.702 16.2304 17.1333 16.0868 17.5219C15.9433 17.9104 15.5119 18.1091 15.1234 17.9655C14.951 17.9018 14.7835 17.828 14.6219 17.7448C13.1405 16.9823 12.1343 15.427 12.1595 13.6448C12.1949 11.1394 14.2546 9.13708 16.7599 9.17247C17.9213 9.18887 18.9761 9.64126 19.7681 10.3705C20.0728 10.651 20.0923 11.1255 19.8118 11.4302C19.5312 11.7349 19.0567 11.7545 18.752 11.4739C18.2211 10.9851 17.5169 10.6833 16.7388 10.6723Z" fill="#007BFE"/>
</svg>
