<svg width="40" height="40" viewBox="0 0 40 40" fill="none" xmlns="http://www.w3.org/2000/svg">
<path fill-rule="evenodd" clip-rule="evenodd" d="M9.5 13.5C9.5 11.9812 10.7312 10.75 12.25 10.75H25.25C26.7688 10.75 28 11.9812 28 13.5V26.5C28 28.0188 26.7688 29.25 25.25 29.25H23.375V23.25H25.25C25.6202 23.25 25.935 22.9799 25.9913 22.614L26.4913 19.364C26.5246 19.1478 26.4617 18.9277 26.3192 18.7617C26.1767 18.5956 25.9688 18.5 25.75 18.5H23.375V17.0095L23.383 17.0083C23.43 17.0015 23.4732 17 23.5 17H25.625C26.0392 17 26.375 16.6642 26.375 16.25V13C26.375 12.5858 26.0392 12.25 25.625 12.25H23.5C20.7774 12.25 18.625 14.2081 18.625 16.875V18.5H16.75C16.3358 18.5 16 18.8358 16 19.25V22.5C16 22.9142 16.3358 23.25 16.75 23.25H18.625V29.25H12.25C10.7312 29.25 9.5 28.0188 9.5 26.5V13.5ZM19.2898 30.7452C19.2618 30.7484 19.2334 30.75 19.2045 30.75H12.25C9.90279 30.75 8 28.8472 8 26.5V13.5C8 11.1528 9.90279 9.25 12.25 9.25H25.25C27.5972 9.25 29.5 11.1528 29.5 13.5V26.5C29.5 28.8472 27.5972 30.75 25.25 30.75H22.8409C22.8043 30.75 22.7682 30.7474 22.733 30.7423C22.6977 30.7474 22.6617 30.75 22.625 30.75C22.2108 30.75 21.875 30.4142 21.875 30V22.5C21.875 22.0858 22.2108 21.75 22.625 21.75H24.6066L24.8758 20H22.625C22.2108 20 21.875 19.6642 21.875 19.25V16.875C21.875 16.5749 21.9652 16.3002 22.1379 16.0753C22.3027 15.8606 22.5106 15.7328 22.687 15.6563C23.0232 15.5107 23.3665 15.5 23.5 15.5H24.875V13.75H23.5C21.5164 13.75 20.125 15.1232 20.125 16.875V19.25C20.125 19.6642 19.7892 20 19.375 20H17.5V21.75H19.375C19.7892 21.75 20.125 22.0858 20.125 22.5V30C20.125 30.4142 19.7892 30.75 19.375 30.75C19.3462 30.75 19.3177 30.7484 19.2898 30.7452Z" fill="#000000"/>
<path fill-rule="evenodd" clip-rule="evenodd" d="M35.8562 5.99562V6.41014C35.8562 6.68037 35.6599 6.91057 35.393 6.95324C34.3213 7.1246 33.3458 7.67231 32.6415 8.49807C32.0816 9.15455 31.7223 9.95258 31.5985 10.7975L31.6128 10.7778L31.6136 10.7768C32.4769 9.59315 33.7717 8.79718 35.2176 8.5612C35.3768 8.53521 35.5395 8.58046 35.6624 8.68496C35.7853 8.78946 35.8562 8.94267 35.8562 9.10402V9.38667L37.4168 7.69114L35.8562 5.99562ZM35.209 4.53643C35.345 4.4684 35.4974 4.4396 35.6489 4.45326C35.8004 4.46692 35.9451 4.5225 36.0668 4.61378C36.0937 4.63395 36.1187 4.65655 36.1414 4.68129L38.346 7.07631C38.425 7.14591 38.4901 7.23025 38.5374 7.32482C38.5942 7.43856 38.6238 7.56398 38.6238 7.69114C38.6238 7.81831 38.5942 7.94373 38.5374 8.05746C38.4901 8.15204 38.425 8.23637 38.346 8.30598L36.1414 10.701C36.1187 10.7257 36.0937 10.7483 36.0668 10.7685C35.9451 10.8598 35.8004 10.9154 35.6489 10.929C35.4973 10.9427 35.345 10.9139 35.209 10.8459C35.0729 10.7778 34.9585 10.6733 34.8785 10.5439C34.7985 10.4145 34.7562 10.2653 34.7562 10.1132V9.7999C33.8569 10.0867 33.0655 10.653 32.5026 11.4245C32.5025 11.4247 32.5027 11.4244 32.5026 11.4245L31.9324 12.2098L31.9315 12.2112C31.8552 12.3156 31.7553 12.4004 31.64 12.4588C31.5365 12.5112 31.4232 12.5409 31.3076 12.5462C31.2418 12.5524 31.1754 12.5509 31.1098 12.5418C31.078 12.5373 31.0467 12.5301 31.0161 12.5202C30.8451 12.4646 30.697 12.3543 30.5949 12.2063C30.496 12.0629 30.4454 11.8919 30.4503 11.7181V11.4588C30.4504 10.1119 30.9306 8.80907 31.8046 7.78426C32.576 6.87976 33.6097 6.24407 34.7562 5.96106V5.26907C34.7562 5.11695 34.7985 4.96784 34.8785 4.83843C34.9585 4.70903 35.0729 4.60446 35.209 4.53643Z" fill="#007BFE"/>
</svg>
