<svg width="40" height="40" viewBox="0 0 40 40" fill="none" xmlns="http://www.w3.org/2000/svg">
<path fill-rule="evenodd" clip-rule="evenodd" d="M8.28488 14.3488C8.28488 12.7947 9.54473 11.5349 11.0988 11.5349H24.4012C25.9553 11.5349 27.2151 12.7947 27.2151 14.3488V27.6512C27.2151 29.2053 25.9553 30.4651 24.4012 30.4651H22.4826V24.3256H24.4012C24.78 24.3256 25.1021 24.0492 25.1597 23.6748L25.6713 20.3493C25.7054 20.1279 25.6411 19.9028 25.4953 19.7329C25.3495 19.5629 25.1367 19.4651 24.9128 19.4651H22.4826V17.9399L22.4907 17.9387C22.5388 17.9318 22.5831 17.9302 22.6105 17.9302H24.7849C25.2087 17.9302 25.5523 17.5866 25.5523 17.1628V13.8372C25.5523 13.4134 25.2087 13.0698 24.7849 13.0698H22.6105C19.8245 13.0698 17.6221 15.0734 17.6221 17.8023V19.4651H15.7035C15.2796 19.4651 14.936 19.8087 14.936 20.2326V23.5581C14.936 23.982 15.2796 24.3256 15.7035 24.3256H17.6221V30.4651H11.0988C9.54473 30.4651 8.28488 29.2053 8.28488 27.6512V14.3488ZM18.3023 31.9951C18.2737 31.9983 18.2446 32 18.2151 32H11.0988C8.69704 32 6.75 30.053 6.75 27.6512V14.3488C6.75 11.947 8.69704 10 11.0988 10H24.4012C26.803 10 28.75 11.947 28.75 14.3488V27.6512C28.75 30.053 26.803 32 24.4012 32H21.936C21.8985 32 21.8617 31.9973 21.8256 31.9921C21.7895 31.9973 21.7526 32 21.7151 32C21.2913 32 20.9477 31.6564 20.9477 31.2326V23.5581C20.9477 23.1343 21.2913 22.7907 21.7151 22.7907H23.7428L24.0183 21H21.7151C21.2913 21 20.9477 20.6564 20.9477 20.2326V17.8023C20.9477 17.4952 21.04 17.2142 21.2167 16.9841C21.3854 16.7644 21.598 16.6335 21.7786 16.5553C22.1226 16.4063 22.4739 16.3953 22.6105 16.3953H24.0174V14.6047H22.6105C20.5807 14.6047 19.157 16.0098 19.157 17.8023V20.2326C19.157 20.6564 18.8134 21 18.3895 21H16.4709V22.7907H18.3895C18.8134 22.7907 19.157 23.1343 19.157 23.5581V31.2326C19.157 31.6564 18.8134 32 18.3895 32C18.36 32 18.3309 31.9983 18.3023 31.9951Z" fill="#000000"/>
<path fill-rule="evenodd" clip-rule="evenodd" d="M34.8562 5.99562V6.41014C34.8562 6.68037 34.6599 6.91057 34.393 6.95324C33.3213 7.1246 32.3458 7.67231 31.6415 8.49807C31.0816 9.15455 30.7223 9.95258 30.5985 10.7975L30.6128 10.7778L30.6136 10.7768C31.4769 9.59315 32.7717 8.79718 34.2176 8.5612C34.3768 8.53521 34.5395 8.58046 34.6624 8.68496C34.7853 8.78946 34.8562 8.94267 34.8562 9.10402V9.38667L36.4168 7.69114L34.8562 5.99562ZM34.209 4.53643C34.345 4.4684 34.4974 4.4396 34.6489 4.45326C34.8004 4.46692 34.9451 4.5225 35.0668 4.61378C35.0937 4.63395 35.1187 4.65655 35.1414 4.68129L37.346 7.07631C37.425 7.14591 37.4901 7.23025 37.5374 7.32482C37.5942 7.43856 37.6238 7.56398 37.6238 7.69114C37.6238 7.81831 37.5942 7.94373 37.5374 8.05746C37.4901 8.15204 37.425 8.23637 37.346 8.30598L35.1414 10.701C35.1187 10.7257 35.0937 10.7483 35.0668 10.7685C34.9451 10.8598 34.8004 10.9154 34.6489 10.929C34.4973 10.9427 34.345 10.9139 34.209 10.8459C34.0729 10.7778 33.9585 10.6733 33.8785 10.5439C33.7985 10.4145 33.7562 10.2653 33.7562 10.1132V9.7999C32.8569 10.0867 32.0655 10.653 31.5026 11.4245C31.5025 11.4247 31.5027 11.4244 31.5026 11.4245L30.9324 12.2098L30.9315 12.2112C30.8552 12.3156 30.7553 12.4004 30.64 12.4588C30.5365 12.5112 30.4232 12.5409 30.3076 12.5462C30.2418 12.5524 30.1754 12.5509 30.1098 12.5418C30.078 12.5373 30.0467 12.5301 30.0161 12.5202C29.8451 12.4646 29.697 12.3543 29.5949 12.2063C29.496 12.0629 29.4454 11.8919 29.4503 11.7181V11.4588C29.4504 10.1119 29.9306 8.80907 30.8046 7.78426C31.576 6.87976 32.6097 6.24407 33.7562 5.96106V5.26907C33.7562 5.11695 33.7985 4.96784 33.8785 4.83843C33.9585 4.70903 34.0729 4.60446 34.209 4.53643Z" fill="#007BFE"/>
</svg>
