<svg width="40" height="40" viewBox="0 0 40 40" fill="none" xmlns="http://www.w3.org/2000/svg">
<path fill-rule="evenodd" clip-rule="evenodd" d="M23.4123 12.5149C23.8102 12.5149 24.1327 12.8374 24.1327 13.2352L24.1327 15.6363C24.1327 16.0342 23.8102 16.3567 23.4123 16.3567C23.0145 16.3567 22.692 16.0342 22.692 15.6363L22.692 13.2352C22.692 12.8374 23.0145 12.5149 23.4123 12.5149Z" fill="#007BFE"/>
<path d="M23.8501 19.7863C23.3907 20.0516 22.8033 19.8942 22.5381 19.4348C22.2729 18.9754 22.4303 18.388 22.8897 18.1228C23.349 17.8576 23.9364 18.015 24.2017 18.4743C24.4669 18.9337 24.3095 19.5211 23.8501 19.7863Z" fill="#007BFE"/>
<path fill-rule="evenodd" clip-rule="evenodd" d="M10.1761 13.2319C10.2688 12.4034 10.9693 11.7769 11.803 11.7769H27.0392C27.8958 11.7769 28.6076 12.4371 28.6718 13.2913L29.5727 25.2813L29.8343 29.5449C29.8921 30.4867 29.1438 31.2823 28.2003 31.2823H12.6639C12.562 31.2823 12.4612 31.2607 12.3683 31.2189L10.634 30.4384L9.20899 30.8576C8.9776 30.9256 8.72751 30.8733 8.54274 30.7183C8.35797 30.5633 8.26305 30.3261 8.28988 30.0864L10.1761 13.2319ZM11.803 13.2175C11.703 13.2175 11.6189 13.2927 11.6078 13.3921L9.84212 29.1697L10.4833 28.9811C10.6483 28.9325 10.8252 28.9447 10.9821 29.0153L12.8185 29.8416H28.2003C28.3135 29.8416 28.4033 29.7462 28.3963 29.6332L28.135 25.3744L27.2351 13.3993C27.2274 13.2968 27.142 13.2175 27.0392 13.2175H11.803Z" fill="#000000"/>
<path fill-rule="evenodd" clip-rule="evenodd" d="M13.3841 12.4973V30.5621H11.9435V12.4973H13.3841Z" fill="#000000"/>
<path fill-rule="evenodd" clip-rule="evenodd" d="M20.0509 8.11644C18.5922 8.11644 17.4097 9.29896 17.4097 10.7577C17.4097 11.1555 17.0872 11.478 16.6893 11.478C16.2915 11.478 15.969 11.1555 15.969 10.7577C15.969 8.5033 17.7965 6.67578 20.0509 6.67578C22.3052 6.67578 24.1328 8.5033 24.1328 10.7577C24.1328 11.1555 23.8102 11.478 23.4124 11.478C23.0146 11.478 22.6921 11.1555 22.6921 10.7577C22.6921 9.29896 21.5096 8.11644 20.0509 8.11644Z" fill="#000000"/>
<path fill-rule="evenodd" clip-rule="evenodd" d="M30.4575 6.82814C30.8134 7.00605 30.9576 7.43873 30.7797 7.79456L29.8193 9.71543C29.6414 10.0713 29.2087 10.2155 28.8529 10.0376C28.4971 9.85969 28.3528 9.42701 28.5307 9.07118L29.4911 7.15031C29.669 6.79447 30.1017 6.65024 30.4575 6.82814Z" fill="#000000"/>
<path fill-rule="evenodd" clip-rule="evenodd" d="M33.1808 10.0317C33.3588 10.3875 33.2145 10.8202 32.8587 10.9981L30.9379 11.9586C30.5821 12.1365 30.1494 11.9923 29.9715 11.6365C29.7935 11.2807 29.9377 10.848 30.2936 10.6701L32.2144 9.70958C32.5702 9.53165 33.0029 9.67586 33.1808 10.0317Z" fill="#000000"/>
<path fill-rule="evenodd" clip-rule="evenodd" d="M34.2174 13.7153C34.2174 14.1131 33.8949 14.4357 33.497 14.4357L31.5761 14.4357C31.1783 14.4358 30.8558 14.1133 30.8558 13.7154C30.8558 13.3176 31.1783 12.9951 31.5761 12.9951L33.497 12.995C33.8948 12.995 34.2173 13.3175 34.2174 13.7153Z" fill="#000000"/>
<path fill-rule="evenodd" clip-rule="evenodd" d="M22.9625 15.5541C23.2255 15.3436 23.5994 15.3436 23.8624 15.5541L26.2635 17.475C26.4344 17.6117 26.5339 17.8186 26.5339 18.0375V24.7606C26.5339 25.1584 26.2114 25.4809 25.8136 25.4809H21.0113C20.6135 25.4809 20.291 25.1584 20.291 24.7606V18.0375C20.291 17.8186 20.3905 17.6117 20.5614 17.475L22.9625 15.5541ZM21.7317 18.3837V24.0402H25.0932V18.3837L23.4125 17.039L21.7317 18.3837Z" fill="#007BFE"/>
</svg>
