<svg width="40" height="40" viewBox="0 0 40 40" fill="none" xmlns="http://www.w3.org/2000/svg">
<path fill-rule="evenodd" clip-rule="evenodd" d="M29 26.75C28.0335 26.75 27.25 27.5335 27.25 28.5C27.25 29.4665 28.0335 30.25 29 30.25C29.9665 30.25 30.75 29.4665 30.75 28.5C30.75 27.5335 29.9665 26.75 29 26.75ZM25.75 28.5C25.75 26.7051 27.2051 25.25 29 25.25C30.7949 25.25 32.25 26.7051 32.25 28.5C32.25 30.2949 30.7949 31.75 29 31.75C27.2051 31.75 25.75 30.2949 25.75 28.5Z" fill="#000000"/>
<path fill-rule="evenodd" clip-rule="evenodd" d="M15.5 26.75C14.5335 26.75 13.75 27.5335 13.75 28.5C13.75 29.4665 14.5335 30.25 15.5 30.25C16.4665 30.25 17.25 29.4665 17.25 28.5C17.25 27.5335 16.4665 26.75 15.5 26.75ZM12.25 28.5C12.25 26.7051 13.7051 25.25 15.5 25.25C17.2949 25.25 18.75 26.7051 18.75 28.5C18.75 30.2949 17.2949 31.75 15.5 31.75C13.7051 31.75 12.25 30.2949 12.25 28.5Z" fill="#000000"/>
<path d="M19.2002 23C19.0153 23 18.8708 22.9466 18.7666 22.8398C18.6624 22.7305 18.6104 22.5781 18.6104 22.3828V17.9766C18.6104 17.7812 18.6624 17.6302 18.7666 17.5234C18.8708 17.4167 19.0153 17.3633 19.2002 17.3633H21.8799C22.0413 17.3633 22.1702 17.4062 22.2666 17.4922C22.3656 17.5781 22.415 17.6979 22.415 17.8516C22.415 18.0026 22.3656 18.1224 22.2666 18.2109C22.1676 18.2969 22.0387 18.3398 21.8799 18.3398H19.79V19.6953H21.7783C21.9268 19.6953 22.0452 19.7357 22.1338 19.8164C22.2249 19.8971 22.2705 20.0078 22.2705 20.1484C22.2705 20.2891 22.2249 20.3997 22.1338 20.4805C22.0452 20.5612 21.9268 20.6016 21.7783 20.6016H19.79V22.0234H21.8799C22.0387 22.0234 22.1676 22.0664 22.2666 22.1523C22.3656 22.2383 22.415 22.3581 22.415 22.5117C22.415 22.6628 22.3656 22.7826 22.2666 22.8711C22.1702 22.957 22.0413 23 21.8799 23H19.2002Z" fill="#007BFE"/>
<path d="M14.9342 23C14.7493 23 14.6048 22.9466 14.5006 22.8398C14.3964 22.7305 14.3444 22.5781 14.3444 22.3828V17.9766C14.3444 17.7812 14.3964 17.6302 14.5006 17.5234C14.6048 17.4167 14.7493 17.3633 14.9342 17.3633H17.6139C17.7753 17.3633 17.9043 17.4062 18.0006 17.4922C18.0996 17.5781 18.149 17.6979 18.149 17.8516C18.149 18.0026 18.0996 18.1224 18.0006 18.2109C17.9017 18.2969 17.7727 18.3398 17.6139 18.3398H15.524V19.6953H17.5123C17.6608 19.6953 17.7793 19.7357 17.8678 19.8164C17.9589 19.8971 18.0045 20.0078 18.0045 20.1484C18.0045 20.2891 17.9589 20.3997 17.8678 20.4805C17.7793 20.5612 17.6608 20.6016 17.5123 20.6016H15.524V22.0234H17.6139C17.7727 22.0234 17.9017 22.0664 18.0006 22.1523C18.0996 22.2383 18.149 22.3581 18.149 22.5117C18.149 22.6628 18.0996 22.7826 18.0006 22.8711C17.9043 22.957 17.7753 23 17.6139 23H14.9342Z" fill="#007BFE"/>
<path d="M10.1293 23.082C9.94698 23.082 9.80245 23.0286 9.69568 22.9219C9.59151 22.8125 9.53943 22.6615 9.53943 22.4688V17.9766C9.53943 17.7812 9.59151 17.6302 9.69568 17.5234C9.79985 17.4167 9.94438 17.3633 10.1293 17.3633H11.848C12.2803 17.3633 12.6475 17.4362 12.9496 17.582C13.2543 17.7253 13.486 17.931 13.6449 18.1992C13.8064 18.4674 13.8871 18.7878 13.8871 19.1602C13.8871 19.5117 13.8038 19.8281 13.6371 20.1094C13.4704 20.3906 13.2308 20.5977 12.9183 20.7305L13.7308 22.1367C13.7803 22.2201 13.8129 22.2917 13.8285 22.3516C13.8467 22.4089 13.8558 22.4727 13.8558 22.543C13.8558 22.6992 13.7998 22.8281 13.6879 22.9297C13.5759 23.0312 13.434 23.082 13.2621 23.082C13.1683 23.082 13.0876 23.069 13.0199 23.043C12.9548 23.0169 12.8949 22.9714 12.8402 22.9062C12.7855 22.8411 12.7256 22.7513 12.6605 22.6367L11.723 20.9375H10.7191V22.4688C10.7191 22.6615 10.667 22.8125 10.5629 22.9219C10.4587 23.0286 10.3142 23.082 10.1293 23.082ZM10.7191 20.082H11.7347C12.0316 20.082 12.2621 20.0026 12.4261 19.8438C12.5928 19.6849 12.6761 19.4648 12.6761 19.1836C12.6761 18.9102 12.5902 18.6927 12.4183 18.5312C12.2491 18.3672 12.0173 18.2852 11.723 18.2852H10.7191V20.082Z" fill="#007BFE"/>
<path d="M6.05859 23.0742C5.8737 23.0742 5.72917 23.0208 5.625 22.9141C5.52083 22.8047 5.46875 22.6536 5.46875 22.4609V17.9766C5.46875 17.7812 5.52083 17.6302 5.625 17.5234C5.72917 17.4167 5.8737 17.3633 6.05859 17.3633H8.69531C8.85677 17.3633 8.98568 17.4062 9.08203 17.4922C9.18099 17.5781 9.23047 17.6979 9.23047 17.8516C9.23047 18.0026 9.18099 18.1224 9.08203 18.2109C8.98307 18.2969 8.85417 18.3398 8.69531 18.3398H6.64844V19.8477H8.50391C8.65755 19.8477 8.77995 19.8893 8.87109 19.9727C8.96224 20.0534 9.00781 20.1667 9.00781 20.3125C9.00781 20.4583 8.96224 20.5729 8.87109 20.6562C8.77995 20.7396 8.65755 20.7812 8.50391 20.7812H6.64844V22.4609C6.64844 22.6536 6.59635 22.8047 6.49219 22.9141C6.38802 23.0208 6.24349 23.0742 6.05859 23.0742Z" fill="#007BFE"/>
<path fill-rule="evenodd" clip-rule="evenodd" d="M6.25 14C6.25 11.9289 7.92893 10.25 10 10.25H21C23.0711 10.25 24.75 11.9289 24.75 14V28C24.75 28.4142 24.4142 28.75 24 28.75H18.0649C17.6507 28.75 17.3149 28.4142 17.3149 28C17.3149 27.5858 17.6507 27.25 18.0649 27.25H23.25V14C23.25 12.7574 22.2426 11.75 21 11.75H10C8.75736 11.75 7.75 12.7574 7.75 14V15.25C7.75 15.6642 7.41421 16 7 16C6.58579 16 6.25 15.6642 6.25 15.25V14ZM7 24C7.41421 24 7.75 24.3358 7.75 24.75V27.25H13C13.4142 27.25 13.75 27.5858 13.75 28C13.75 28.4142 13.4142 28.75 13 28.75H7C6.58579 28.75 6.25 28.4142 6.25 28V24.75C6.25 24.3358 6.58579 24 7 24Z" fill="#000000"/>
<path fill-rule="evenodd" clip-rule="evenodd" d="M23.25 16C23.25 15.5858 23.5858 15.25 24 15.25H29.2191C30.5914 15.25 31.8541 15.9996 32.5112 17.2043L34.6584 21.1409C34.7185 21.251 34.75 21.3745 34.75 21.5V28C34.75 28.4142 34.4142 28.75 34 28.75H31.25V27.25H33.25V21.6912L31.1944 17.9226C30.8001 17.1997 30.0425 16.75 29.2191 16.75H24.75V27.25H26.75V28.75H24C23.5858 28.75 23.25 28.4142 23.25 28V16Z" fill="#000000"/>
<path fill-rule="evenodd" clip-rule="evenodd" d="M28.25 21.5C28.25 21.0858 28.5858 20.75 29 20.75H34C34.4142 20.75 34.75 21.0858 34.75 21.5C34.75 21.9142 34.4142 22.25 34 22.25H29C28.5858 22.25 28.25 21.9142 28.25 21.5Z" fill="#000000"/>
</svg>
