<svg width="40" height="40" viewBox="0 0 40 40" fill="none" xmlns="http://www.w3.org/2000/svg">
<path fill-rule="evenodd" clip-rule="evenodd" d="M11 10.25C8.92893 10.25 7.25 11.9289 7.25 14V15.25C7.25 15.6642 7.58579 16 8 16C8.41421 16 8.75 15.6642 8.75 15.25V14C8.75 12.7574 9.75736 11.75 11 11.75H22C23.2426 11.75 24.25 12.7574 24.25 14V16V27.25H19.5009C19.0111 26.0755 17.852 25.25 16.5 25.25C15.148 25.25 13.9889 26.0755 13.4991 27.25H8.75V24.75C8.75 24.3358 8.41421 24 8 24C7.58579 24 7.25 24.3358 7.25 24.75V28C7.25 28.4142 7.58579 28.75 8 28.75H13.2595C13.3871 30.4281 14.7892 31.75 16.5 31.75C18.2108 31.75 19.6129 30.4281 19.7405 28.75H25H26.7595C26.8871 30.4281 28.2892 31.75 30 31.75C31.7108 31.75 33.1129 30.4281 33.2405 28.75H35C35.4142 28.75 35.75 28.4142 35.75 28V21.5C35.75 21.4885 35.7497 21.477 35.7492 21.4656C35.7437 21.3434 35.7089 21.2288 35.6517 21.1286L33.5112 17.2043C32.8541 15.9996 31.5914 15.25 30.2191 15.25H25.75V14C25.75 11.9289 24.0711 10.25 22 10.25H11ZM33.7366 20.75L32.1944 17.9226C31.8001 17.1997 31.0425 16.75 30.2191 16.75H25.75V27.25H26.9991C27.4889 26.0755 28.648 25.25 30 25.25C31.352 25.25 32.5111 26.0755 33.0009 27.25H34.25V22.25H30C29.5858 22.25 29.25 21.9142 29.25 21.5C29.25 21.0858 29.5858 20.75 30 20.75H33.7366ZM16.5 26.75C15.5335 26.75 14.75 27.5335 14.75 28.5C14.75 29.4665 15.5335 30.25 16.5 30.25C17.4665 30.25 18.25 29.4665 18.25 28.5C18.25 27.5335 17.4665 26.75 16.5 26.75ZM30 26.75C29.0335 26.75 28.25 27.5335 28.25 28.5C28.25 29.4665 29.0335 30.25 30 30.25C30.9665 30.25 31.75 29.4665 31.75 28.5C31.75 27.5335 30.9665 26.75 30 26.75Z" fill="#000000"/>
<rect x="5" y="18" width="11.5" height="1.5" rx="0.75" fill="#007BFE"/>
<rect x="5" y="21" width="6" height="1.5" rx="0.75" fill="#007BFE"/>
</svg>
