<svg width="40" height="40" viewBox="0 0 40 40" fill="none" xmlns="http://www.w3.org/2000/svg">
<path fill-rule="evenodd" clip-rule="evenodd" d="M7.25 18C7.25 13.7198 10.7198 10.25 15 10.25H22C26.2802 10.25 29.75 13.7198 29.75 18V25C29.75 29.2802 26.2802 32.75 22 32.75H15C10.7198 32.75 7.25 29.2802 7.25 25V18ZM15 11.75C11.5482 11.75 8.75 14.5482 8.75 18V25C8.75 28.4518 11.5482 31.25 15 31.25H22C25.4518 31.25 28.25 28.4518 28.25 25V18C28.25 14.5482 25.4518 11.75 22 11.75H15Z" fill="#000000"/>
<path fill-rule="evenodd" clip-rule="evenodd" d="M13.25 21.5C13.25 18.6005 15.6005 16.25 18.5 16.25C21.3995 16.25 23.75 18.6005 23.75 21.5C23.75 24.3995 21.3995 26.75 18.5 26.75C15.6005 26.75 13.25 24.3995 13.25 21.5ZM18.5 17.75C16.4289 17.75 14.75 19.4289 14.75 21.5C14.75 23.5711 16.4289 25.25 18.5 25.25C20.5711 25.25 22.25 23.5711 22.25 21.5C22.25 19.4289 20.5711 17.75 18.5 17.75Z" fill="#000000"/>
<path d="M23.5 15.75C23.5 15.0596 24.0596 14.5 24.75 14.5C25.4404 14.5 26 15.0596 26 15.75C26 16.4404 25.4404 17 24.75 17C24.0596 17 23.5 16.4404 23.5 15.75Z" fill="#000000"/>
<path fill-rule="evenodd" clip-rule="evenodd" d="M28.1426 9.8C27.7008 9.8 27.3426 9.44183 27.3426 9C27.3426 8.55817 27.7008 8.2 28.1426 8.2L30.2001 8.2L30.2001 6.14253C30.2001 5.7007 30.5582 5.34253 31.0001 5.34253C31.4419 5.34253 31.8001 5.7007 31.8001 6.14253V8.2L33.8575 8.2C34.2994 8.2 34.6575 8.55817 34.6575 9C34.6575 9.44183 34.2994 9.8 33.8575 9.8H31.8001L31.8001 11.8575C31.8001 12.2993 31.4419 12.6575 31.0001 12.6575C30.5582 12.6575 30.2001 12.2993 30.2001 11.8575L30.2001 9.8H28.1426Z" fill="#007BFE"/>
</svg>
