<svg width="40" height="40" viewBox="0 0 40 40" fill="none" xmlns="http://www.w3.org/2000/svg">
<circle cx="20" cy="20" r="10.5" stroke="#000000" stroke-width="1.5"/>
<ellipse cx="19.9999" cy="20" rx="4.2" ry="10.5" stroke="#000000" stroke-width="1.5"/>
<path d="M14.1632 13.7398C13.7506 13.7033 13.3866 14.0082 13.3501 14.4208C13.3136 14.8334 13.6185 15.1975 14.0311 15.234L14.1632 13.7398ZM28.6952 13.6655C26.8117 13.8701 24.0893 14.0001 21.0501 14.0001V15.5001C24.1231 15.5001 26.903 15.369 28.8572 15.1567L28.6952 13.6655ZM21.0501 14.0001C18.3997 14.0001 15.988 13.9012 14.1632 13.7398L14.0311 15.234C15.9101 15.4002 18.3673 15.5001 21.0501 15.5001V14.0001Z" fill="#000000"/>
<path d="M14.1632 26.2602C13.7506 26.2967 13.3866 25.9918 13.3501 25.5792C13.3136 25.1666 13.6185 24.8025 14.0311 24.766L14.1632 26.2602ZM28.6952 26.3345C26.8117 26.1299 24.0893 25.9999 21.0501 25.9999V24.4999C24.1231 24.4999 26.903 24.631 28.8572 24.8433L28.6952 26.3345ZM21.0501 25.9999C18.3997 25.9999 15.988 26.0988 14.1632 26.2602L14.0311 24.766C15.9101 24.5998 18.3673 24.4999 21.0501 24.4999V25.9999Z" fill="#000000"/>
<path d="M11.6 19.25C11.1858 19.25 10.85 19.5858 10.85 20C10.85 20.4142 11.1858 20.75 11.6 20.75V19.25ZM30.5 19.25H11.6V20.75H30.5V19.25Z" fill="#000000"/>
</svg>
