<svg width="40" height="40" viewBox="0 0 40 40" fill="none" xmlns="http://www.w3.org/2000/svg">
<path fill-rule="evenodd" clip-rule="evenodd" d="M19.7851 16.4775C19.5534 16.8129 19.2898 17.3663 19.0066 18.1796C18.9033 18.4763 18.626 18.6772 18.3119 18.6829C17.4841 18.6979 16.9027 18.7776 16.5301 18.8946C16.3086 18.9641 16.2164 19.0278 16.1822 19.0581C16.1907 19.1046 16.2261 19.2221 16.3765 19.4351C16.6107 19.7671 17.0332 20.1972 17.6869 20.7272C17.922 20.9178 18.0195 21.2309 17.9342 21.5212C17.6913 22.348 17.582 22.9569 17.5736 23.3733C17.5688 23.6091 17.5965 23.7286 17.6149 23.7819C17.6669 23.7818 17.7718 23.7701 17.9556 23.7069C18.326 23.5796 18.8473 23.2964 19.5345 22.8127C19.7972 22.6278 20.1484 22.6307 20.408 22.8199C21.0875 23.3152 21.6043 23.6073 21.9727 23.7409C22.155 23.807 22.2597 23.8205 22.3118 23.8216C22.3311 23.7684 22.3604 23.6495 22.3594 23.4145C22.3575 22.998 22.2578 22.3874 22.0279 21.5568C21.9472 21.265 22.0498 20.9534 22.288 20.7666C22.9497 20.2477 23.3786 19.8248 23.6177 19.4969C23.7716 19.286 23.8086 19.1692 23.8177 19.1231C23.7842 19.0923 23.6931 19.0266 23.4712 18.9528C23.1005 18.8295 22.5205 18.74 21.6933 18.7111C21.3797 18.7001 21.106 18.4951 21.0075 18.1972C20.7368 17.3793 20.4817 16.8215 20.255 16.482C20.1456 16.3181 20.0668 16.2395 20.0219 16.203C19.9765 16.2387 19.8968 16.3159 19.7851 16.4775ZM22.3544 23.8184C22.3544 23.8184 22.3539 23.8186 22.3528 23.8189L22.3544 23.8184ZM17.5727 23.778C17.5728 23.778 17.5733 23.7781 17.5744 23.7785L17.5727 23.778ZM22.262 17.2389C22.0249 16.5929 21.774 16.0557 21.5025 15.6491C21.1879 15.178 20.7111 14.6845 20.0346 14.6788C19.3577 14.6731 18.8729 15.1589 18.551 15.6249C18.2733 16.0269 18.0142 16.5597 17.7673 17.2014C17.1071 17.237 16.5386 17.3197 16.0808 17.4634C15.5326 17.6356 14.9503 17.9595 14.7465 18.5947C14.5456 19.2207 14.8177 19.8277 15.1508 20.2999C15.4348 20.7023 15.8463 21.1276 16.3626 21.5747C16.1861 22.2511 16.084 22.8451 16.0739 23.3429C16.0622 23.9164 16.1696 24.5842 16.6948 24.9881C17.2333 25.4022 17.9064 25.31 18.4433 25.1254C18.8948 24.9702 19.4024 24.7001 19.9586 24.3375C20.5091 24.7095 21.0124 24.9882 21.4614 25.151C21.9951 25.3445 22.6668 25.4482 23.2122 25.0429C23.7441 24.6475 23.8619 23.9812 23.8593 23.4077C23.8571 22.9099 23.7643 22.3144 23.5985 21.6353C24.1215 21.1969 24.5395 20.7786 24.8296 20.3809C25.1702 19.9139 25.4514 19.3114 25.2603 18.6823C25.0665 18.0443 24.49 17.7108 23.9445 17.5294C23.489 17.378 22.9217 17.2857 22.262 17.2389Z" fill="#007BFE"/>
<path fill-rule="evenodd" clip-rule="evenodd" d="M10.0834 19.9999C10.0834 14.5231 14.5232 10.0833 20 10.0833C25.4769 10.0833 29.9167 14.5231 29.9167 19.9999C29.9167 25.4767 25.4769 29.9166 20 29.9166C14.5232 29.9166 10.0834 25.4767 10.0834 19.9999ZM20 8.58325C13.6948 8.58325 8.58337 13.6947 8.58337 19.9999C8.58337 26.3052 13.6948 31.4166 20 31.4166C26.3053 31.4166 31.4167 26.3052 31.4167 19.9999C31.4167 13.6947 26.3053 8.58325 20 8.58325ZM12.369 20.0001C12.369 15.7856 15.7855 12.3691 20 12.3691C20.4142 12.3691 20.75 12.0334 20.75 11.6191C20.75 11.2049 20.4142 10.8691 20 10.8691C14.9571 10.8691 10.869 14.9572 10.869 20.0001C10.869 20.4143 11.2048 20.7501 11.619 20.7501C12.0332 20.7501 12.369 20.4143 12.369 20.0001ZM29.1309 20.0001C29.1309 19.5859 28.7951 19.2501 28.3809 19.2501C27.9667 19.2501 27.6309 19.5859 27.6309 20.0001C27.6309 24.2146 24.2144 27.631 20 27.631C19.5858 27.631 19.25 27.9668 19.25 28.381C19.25 28.7953 19.5858 29.131 20 29.131C25.0429 29.131 29.1309 25.043 29.1309 20.0001ZM2.25 20C2.25 19.5858 2.58579 19.25 3 19.25H5C5.41421 19.25 5.75 19.5858 5.75 20C5.75 20.4142 5.41421 20.75 5 20.75H3C2.58579 20.75 2.25 20.4142 2.25 20ZM6.03033 11.4697C5.73744 11.1768 5.26256 11.1768 4.96967 11.4697C4.67678 11.7626 4.67678 12.2374 4.96967 12.5303L6.46967 14.0303C6.76256 14.3232 7.23744 14.3232 7.53033 14.0303C7.82322 13.7374 7.82322 13.2626 7.53033 12.9697L6.03033 11.4697ZM7.53033 25.9697C7.23744 25.6768 6.76256 25.6768 6.46967 25.9697L4.96967 27.4697C4.67678 27.7626 4.67678 28.2374 4.96967 28.5303C5.26256 28.8232 5.73744 28.8232 6.03033 28.5303L7.53033 27.0303C7.82322 26.7374 7.82322 26.2626 7.53033 25.9697ZM37 19.25C37.4142 19.25 37.75 19.5858 37.75 20C37.75 20.4142 37.4142 20.75 37 20.75H35C34.5858 20.75 34.25 20.4142 34.25 20C34.25 19.5858 34.5858 19.25 35 19.25H37ZM35.0303 11.4697C34.7374 11.1768 34.2626 11.1768 33.9697 11.4697L32.4697 12.9697C32.1768 13.2626 32.1768 13.7374 32.4697 14.0303C32.7626 14.3232 33.2374 14.3232 33.5303 14.0303L35.0303 12.5303C35.3232 12.2374 35.3232 11.7626 35.0303 11.4697ZM33.5303 25.9697C33.2374 25.6768 32.7626 25.6768 32.4697 25.9697C32.1768 26.2626 32.1768 26.7374 32.4697 27.0303L33.9697 28.5303C34.2626 28.8232 34.7374 28.8232 35.0303 28.5303C35.3232 28.2374 35.3232 27.7626 35.0303 27.4697L33.5303 25.9697Z" fill="#000000"/>
</svg>
