<svg width="40" height="40" viewBox="0 0 40 40" fill="none" xmlns="http://www.w3.org/2000/svg">
<path fill-rule="evenodd" clip-rule="evenodd" d="M13.6478 15.0177C13.8565 15.3755 13.7357 15.8348 13.3779 16.0435L10.7461 17.5787C10.4389 17.7579 10.25 18.0868 10.25 18.4424V28.8123C10.25 29.3646 10.6977 29.8123 11.25 29.8123H28.75C29.3023 29.8123 29.75 29.3646 29.75 28.8123V18.4424C29.75 18.0868 29.5611 17.7579 29.2539 17.5787L26.6221 16.0435C26.2643 15.8348 26.1435 15.3755 26.3522 15.0177C26.5609 14.6599 27.0201 14.5391 27.3779 14.7478L30.0097 16.283C30.7777 16.731 31.25 17.5533 31.25 18.4424V28.8123C31.25 30.193 30.1307 31.3123 28.75 31.3123H11.25C9.86929 31.3123 8.75 30.193 8.75 28.8123V18.4424C8.75 17.5533 9.22228 16.731 9.99032 16.283L12.6221 14.7478C12.9799 14.5391 13.4391 14.6599 13.6478 15.0177Z" fill="#000000"/>
<path fill-rule="evenodd" clip-rule="evenodd" d="M20.6333 23.2998C20.2649 22.9984 19.7352 22.9984 19.3668 23.2998L10.85 30.2681C10.5294 30.5304 10.0569 30.4831 9.79455 30.1626C9.53226 29.842 9.57951 29.3695 9.90009 29.1072L18.4169 22.1388C19.3378 21.3854 20.6622 21.3854 21.5831 22.1388L30.1 29.1072C30.4205 29.3695 30.4678 29.842 30.2055 30.1626C29.9432 30.4831 29.4707 30.5304 29.1501 30.2681L20.6333 23.2998Z" fill="#000000"/>
<path fill-rule="evenodd" clip-rule="evenodd" d="M21.8362 24.2479C21.5739 23.9273 21.6212 23.4548 21.9418 23.1925L29.15 17.2948C29.4706 17.0325 29.9431 17.0797 30.2054 17.4003C30.4677 17.7209 30.4205 18.1934 30.0999 18.4557L22.8916 24.3534C22.5711 24.6157 22.0985 24.5684 21.8362 24.2479ZM18.119 24.2112C17.8567 24.5318 17.3841 24.5791 17.0636 24.3168L9.90005 18.4557C9.57947 18.1934 9.53221 17.7209 9.79451 17.4003C10.0568 17.0797 10.5293 17.0325 10.8499 17.2948L18.0134 23.1558C18.334 23.4181 18.3813 23.8907 18.119 24.2112Z" fill="#000000"/>
<path fill-rule="evenodd" clip-rule="evenodd" d="M12.2501 11.1875C12.2501 9.80679 13.3694 8.6875 14.7501 8.6875H25.2501C26.6308 8.6875 27.7501 9.80679 27.7501 11.1875V17.3125C27.7501 17.7267 27.4143 18.0625 27.0001 18.0625C26.5859 18.0625 26.2501 17.7267 26.2501 17.3125V11.1875C26.2501 10.6352 25.8024 10.1875 25.2501 10.1875H14.7501C14.1978 10.1875 13.7501 10.6352 13.7501 11.1875V17.3125C13.7501 17.7267 13.4143 18.0625 13.0001 18.0625C12.5859 18.0625 12.2501 17.7267 12.2501 17.3125V11.1875Z" fill="#000000"/>
<path fill-rule="evenodd" clip-rule="evenodd" d="M15.7499 13.375C15.7499 12.9608 16.0857 12.625 16.4999 12.625H23.4999C23.9141 12.625 24.2499 12.9608 24.2499 13.375C24.2499 13.7892 23.9141 14.125 23.4999 14.125H16.4999C16.0857 14.125 15.7499 13.7892 15.7499 13.375ZM15.7499 15.9998C15.7499 15.5855 16.0857 15.2498 16.4999 15.2498H19.9999C20.4141 15.2498 20.7499 15.5855 20.7499 15.9998C20.7499 16.414 20.4141 16.7498 19.9999 16.7498H16.4999C16.0857 16.7498 15.7499 16.414 15.7499 15.9998Z" fill="#007BFE"/>
</svg>
