<svg width="40" height="40" viewBox="0 0 40 40" fill="none" xmlns="http://www.w3.org/2000/svg">
<path fill-rule="evenodd" clip-rule="evenodd" d="M13.6648 12.126C13.5177 11.7294 13.7199 11.2886 14.1165 11.1414L23.8217 7.54074C25.3116 6.98798 26.9806 7.62251 27.727 9.02544L29.0043 11.4264C29.203 11.7999 29.0613 12.2637 28.6878 12.4624C28.3144 12.6611 27.8505 12.5194 27.6519 12.1459L26.3745 9.74494C25.9885 9.01928 25.1252 8.69108 24.3546 8.97699L14.6494 12.5777C14.2528 12.7248 13.812 12.5226 13.6648 12.126Z" fill="#000000"/>
<path fill-rule="evenodd" clip-rule="evenodd" d="M8 16.3095C8 14.5569 9.42071 13.1362 11.1733 13.1362H28.8267C30.5793 13.1362 32 14.5569 32 16.3095V19.0791C32 19.4391 31.7492 19.7506 31.3974 19.8274C30.3651 20.0528 29.5927 20.9733 29.5927 22.0724C29.5927 23.1715 30.3651 24.092 31.3974 24.3174C31.7492 24.3942 32 24.7057 32 25.0657V27.8353C32 29.5879 30.5793 31.0086 28.8267 31.0086H11.1733C9.42071 31.0086 8 29.5879 8 27.8353V25.0914C8 24.7187 8.26829 24.4001 8.63557 24.3366C9.71641 24.1499 10.5386 23.2064 10.5386 22.0724C10.5386 20.9384 9.71641 19.9949 8.63557 19.8082C8.26829 19.7447 8 19.4261 8 19.0534V16.3095ZM11.1733 14.6681C10.2668 14.6681 9.53191 15.403 9.53191 16.3095V18.466C11.0118 18.9959 12.0705 20.4099 12.0705 22.0724C12.0705 23.7349 11.0118 25.1489 9.53191 25.6789V27.8353C9.53191 28.7418 10.2668 29.4767 11.1733 29.4767H28.8267C29.7332 29.4767 30.4681 28.7418 30.4681 27.8353V25.6291C29.0574 25.0643 28.0608 23.6855 28.0608 22.0724C28.0608 20.4593 29.0574 19.0805 30.4681 18.5157V16.3095C30.4681 15.403 29.7332 14.6681 28.8267 14.6681H11.1733Z" fill="#000000"/>
<path fill-rule="evenodd" clip-rule="evenodd" d="M14.383 16.2C14.806 16.2 15.149 16.5429 15.149 16.9659V18.1787C15.149 18.6017 14.806 18.9446 14.383 18.9446C13.96 18.9446 13.6171 18.6017 13.6171 18.1787V16.9659C13.6171 16.5429 13.96 16.2 14.383 16.2ZM14.383 19.8382C14.806 19.8382 15.149 20.1812 15.149 20.6042V23.0297C15.149 23.4528 14.806 23.7957 14.383 23.7957C13.96 23.7957 13.6171 23.4528 13.6171 23.0297V20.6042C13.6171 20.1812 13.96 19.8382 14.383 19.8382ZM14.383 24.6893C14.806 24.6893 15.149 25.0322 15.149 25.4553V26.668C15.149 27.0911 14.806 27.434 14.383 27.434C13.96 27.434 13.6171 27.0911 13.6171 26.668V25.4553C13.6171 25.0322 13.96 24.6893 14.383 24.6893Z" fill="#000000"/>
<path fill-rule="evenodd" clip-rule="evenodd" d="M18.9321 18.9626C18.5637 18.9626 18.0501 19.3911 18.0501 20.216C18.0501 21.0408 18.5637 21.4693 18.9321 21.4693C19.3005 21.4693 19.8141 21.0408 19.8141 20.216C19.8141 19.3911 19.3005 18.9626 18.9321 18.9626ZM16.8431 20.216C16.8431 18.9898 17.6597 17.7556 18.9321 17.7556C20.2045 17.7556 21.0211 18.9898 21.0211 20.216C21.0211 21.4422 20.2045 22.6763 18.9321 22.6763C17.6597 22.6763 16.8431 21.4422 16.8431 20.216ZM24.5054 18.2567C24.767 18.4632 24.8116 18.8427 24.6051 19.1043L19.0345 26.1604C18.8279 26.422 18.4485 26.4667 18.1869 26.2601C17.9253 26.0536 17.8806 25.6741 18.0871 25.4125L23.6577 18.3564C23.8643 18.0948 24.2438 18.0502 24.5054 18.2567ZM23.2493 23.9297C23.2493 23.1048 23.7629 22.6763 24.1313 22.6763C24.4997 22.6763 25.0133 23.1048 25.0133 23.9297C25.0133 24.7545 24.4997 25.1831 24.1313 25.1831C23.7629 25.1831 23.2493 24.7545 23.2493 23.9297ZM24.1313 21.4693C22.8589 21.4693 22.0423 22.7035 22.0423 23.9297C22.0423 25.1559 22.8589 26.39 24.1313 26.39C25.4037 26.39 26.2203 25.1559 26.2203 23.9297C26.2203 22.7035 25.4037 21.4693 24.1313 21.4693Z" fill="#007BFE"/>
</svg>
