<svg width="40" height="40" viewBox="0 0 40 40" fill="none" xmlns="http://www.w3.org/2000/svg">
<path fill-rule="evenodd" clip-rule="evenodd" d="M7.25 9C7.25 8.58579 7.58579 8.25 8 8.25H10C10.3228 8.25 10.6094 8.45657 10.7115 8.76283L15.7115 23.7628C15.8425 24.1558 15.6301 24.5805 15.2372 24.7115C14.8442 24.8425 14.4195 24.6301 14.2885 24.2372L9.45943 9.75H8C7.58579 9.75 7.25 9.41421 7.25 9Z" fill="#000000"/>
<path fill-rule="evenodd" clip-rule="evenodd" d="M14.25 12C14.25 11.5858 14.5858 11.25 15 11.25H29.8195C30.9009 11.25 31.7235 12.221 31.5457 13.2877L29.9349 22.9525C29.762 23.9898 28.8646 24.75 27.8131 24.75H13C12.3096 24.75 11.75 25.3096 11.75 26C11.75 26.6904 12.3096 27.25 13 27.25H21C21.4142 27.25 21.75 27.5858 21.75 28C21.75 28.4142 21.4142 28.75 21 28.75H13C11.4812 28.75 10.25 27.5188 10.25 26C10.25 24.4812 11.4812 23.25 13 23.25H27.8131C28.1314 23.25 28.403 23.0199 28.4553 22.7059L30.0661 13.0411C30.0915 12.8887 29.974 12.75 29.8195 12.75H15C14.5858 12.75 14.25 12.4142 14.25 12Z" fill="#000000"/>
<path fill-rule="evenodd" clip-rule="evenodd" d="M27 28.75C26.3096 28.75 25.75 29.3096 25.75 30C25.75 30.6904 26.3096 31.25 27 31.25C27.6904 31.25 28.25 30.6904 28.25 30C28.25 29.3096 27.6904 28.75 27 28.75ZM24.25 30C24.25 28.4812 25.4812 27.25 27 27.25C28.5188 27.25 29.75 28.4812 29.75 30C29.75 31.5188 28.5188 32.75 27 32.75C25.4812 32.75 24.25 31.5188 24.25 30Z" fill="#000000"/>
<path fill-rule="evenodd" clip-rule="evenodd" d="M15 28.75C14.3096 28.75 13.75 29.3096 13.75 30C13.75 30.6904 14.3096 31.25 15 31.25C15.6904 31.25 16.25 30.6904 16.25 30C16.25 29.3096 15.6904 28.75 15 28.75ZM12.25 30C12.25 28.4812 13.4812 27.25 15 27.25C16.5188 27.25 17.75 28.4812 17.75 30C17.75 31.5188 16.5188 32.75 15 32.75C13.4812 32.75 12.25 31.5188 12.25 30Z" fill="#000000"/>
<path fill-rule="evenodd" clip-rule="evenodd" d="M21.5 18.6089C22.7681 18.6089 23.8556 17.8282 24.3048 16.7185C24.4603 16.3346 24.8975 16.1493 25.2815 16.3047C25.6654 16.4601 25.8507 16.8974 25.6952 17.2813C25.0246 18.938 23.4 20.1089 21.5 20.1089C19.6001 20.1089 17.9755 18.938 17.3048 17.2813C17.1494 16.8974 17.3347 16.4601 17.7186 16.3047C18.1026 16.1493 18.5398 16.3346 18.6952 16.7185C19.1445 17.8282 20.232 18.6089 21.5 18.6089Z" fill="#007BFE"/>
</svg>
