<svg width="40" height="40" viewBox="0 0 40 40" fill="none" xmlns="http://www.w3.org/2000/svg">
<path d="M17.7624 21.1108H31.8226V31.0357C31.8226 31.9492 31.082 32.6898 30.1684 32.6898H14.4541C13.5405 32.6898 12.7999 31.9492 12.7999 31.0357V26.0733" stroke="#000000" stroke-width="1.5" stroke-linecap="round" stroke-linejoin="round"/>
<path d="M7.47654 24.4612C6.83056 23.8152 6.83056 22.7678 7.47654 22.1218L19.7579 9.84048C20.4039 9.19449 21.4513 9.19449 22.0972 9.84047L23.8517 11.595L9.23102 26.2156L7.47654 24.4612Z" stroke="#000000" stroke-width="1.5" stroke-linejoin="round"/>
<path d="M12.9401 16.0731C12.9401 16.0731 12.3552 11.8676 12.3552 10.6748C12.3552 9.48206 13.3222 8.51515 14.5149 8.51515C15.7077 8.51515 16.6746 9.48207 16.6746 10.6748C16.6746 11.8676 15.664 12.7418 15.664 13.9345" stroke="#000000" stroke-width="1.5"/>
<path d="M13.2752 15.7377C13.2752 15.7377 9.06959 15.1529 7.87684 15.1529C6.68409 15.1529 5.71717 16.1198 5.71717 17.3125C5.71717 18.5053 6.68409 19.4722 7.87684 19.4722C9.0696 19.4722 9.94378 18.4616 11.1365 18.4616" stroke="#000000" stroke-width="1.5"/>
<path d="M25.0858 15.0639L27.5671 11.7556" stroke="#000000" stroke-width="1.5" stroke-linecap="round"/>
<path d="M26.232 16.7381L28.9063 14.9272" stroke="#000000" stroke-width="1.5" stroke-linecap="round"/>
<path d="M27.1536 18.3725L31.2113 17.643" stroke="#000000" stroke-width="1.5" stroke-linecap="round"/>
<path d="M22.2837 29.2761C19.9755 30.9007 19.2289 30.3265 20.0435 27.5532C17.8454 25.7712 18.1395 24.8545 20.9258 24.804C21.8751 22.0776 22.8039 22.0857 23.7112 24.8272C26.4957 24.9246 26.776 25.8465 24.5508 27.5915C25.3217 30.3776 24.566 30.9396 22.2837 29.2761Z" stroke="#007BFE" stroke-width="1.5" stroke-linecap="round" stroke-linejoin="round"/>
</svg>
