<svg width="40" height="40" viewBox="0 0 40 40" fill="none" xmlns="http://www.w3.org/2000/svg">
<path fill-rule="evenodd" clip-rule="evenodd" d="M12.4808 17.2307C12.4808 15.1596 14.1598 13.4807 16.2308 13.4807H28C30.0711 13.4807 31.75 15.1596 31.75 17.2307V28.9999C31.75 31.071 30.0711 32.7499 28 32.7499H16.2308C14.1598 32.7499 12.4808 31.071 12.4808 28.9999V17.2307ZM16.2308 14.9807C14.9882 14.9807 13.9808 15.9881 13.9808 17.2307V28.9999C13.9808 30.2426 14.9882 31.2499 16.2308 31.2499H28C29.2427 31.2499 30.25 30.2426 30.25 28.9999V17.2307C30.25 15.9881 29.2427 14.9807 28 14.9807H16.2308Z" fill="#000000"/>
<path fill-rule="evenodd" clip-rule="evenodd" d="M7 12C7 9.92893 8.67893 8.25 10.75 8.25H21.8269C23.1757 8.25 24.2692 9.34346 24.2692 10.6923V11.5385C24.2692 11.9527 23.9334 12.2885 23.5192 12.2885C23.105 12.2885 22.7692 11.9527 22.7692 11.5385V10.6923C22.7692 10.1719 22.3473 9.75 21.8269 9.75H10.75C9.50736 9.75 8.5 10.7574 8.5 12V23.0769C8.5 23.5973 8.92188 24.0192 9.4423 24.0192H10.2885C10.7027 24.0192 11.0385 24.355 11.0385 24.7692C11.0385 25.1834 10.7027 25.5192 10.2885 25.5192H9.4423C8.09346 25.5192 7 24.4257 7 23.0769V12Z" fill="#000000"/>
<path fill-rule="evenodd" clip-rule="evenodd" d="M19.2218 24.8211C19.1842 24.7836 19.1234 24.7836 19.0858 24.8211L16.7226 27.1843C16.4297 27.4772 15.9548 27.4772 15.6619 27.1843C15.369 26.8915 15.369 26.4166 15.6619 26.1237L18.0251 23.7605C18.6485 23.1371 19.6591 23.1371 20.2824 23.7605L23.0687 26.5468C23.3616 26.8397 23.3616 27.3145 23.0687 27.6074C22.7758 27.9003 22.301 27.9003 22.0081 27.6074L19.2218 24.8211Z" fill="#000000"/>
<path fill-rule="evenodd" clip-rule="evenodd" d="M24.7218 24.8211C24.6843 24.7836 24.6234 24.7836 24.5858 24.8211L22.6457 26.7613C22.3528 27.0542 21.8779 27.0542 21.585 26.7613C21.2921 26.4684 21.2921 25.9935 21.585 25.7006L23.5252 23.7605C24.1485 23.1371 25.1591 23.1371 25.7825 23.7605L28.9918 26.9698C29.2847 27.2627 29.2847 27.7376 28.9918 28.0305C28.6989 28.3234 28.2241 28.3234 27.9312 28.0305L24.7218 24.8211Z" fill="#000000"/>
<path fill-rule="evenodd" clip-rule="evenodd" d="M26.5 18.75C26.0858 18.75 25.75 19.0858 25.75 19.5C25.75 19.9142 26.0858 20.25 26.5 20.25C26.9142 20.25 27.25 19.9142 27.25 19.5C27.25 19.0858 26.9142 18.75 26.5 18.75ZM24.25 19.5C24.25 18.2574 25.2574 17.25 26.5 17.25C27.7426 17.25 28.75 18.2574 28.75 19.5C28.75 20.7426 27.7426 21.75 26.5 21.75C25.2574 21.75 24.25 20.7426 24.25 19.5Z" fill="#000000"/>
<path fill-rule="evenodd" clip-rule="evenodd" d="M29.9192 11.5766C29.4774 11.5766 29.1192 11.2184 29.1192 10.7766C29.1192 10.3348 29.4774 9.97661 29.9192 9.97661H31.9767V7.91914C31.9767 7.47731 32.3349 7.11914 32.7767 7.11914C33.2185 7.11914 33.5767 7.47731 33.5767 7.91914V9.97661L35.6341 9.97661C36.076 9.97661 36.4341 10.3348 36.4341 10.7766C36.4341 11.2184 36.076 11.5766 35.6341 11.5766H33.5767L33.5767 13.6341C33.5767 14.0759 33.2185 14.4341 32.7767 14.4341C32.3349 14.4341 31.9767 14.0759 31.9767 13.6341V11.5766L29.9192 11.5766Z" fill="#007BFE"/>
</svg>
