<svg width="40" height="40" viewBox="0 0 40 40" fill="none" xmlns="http://www.w3.org/2000/svg">
<path fill-rule="evenodd" clip-rule="evenodd" d="M19.5934 8.06722C19.2952 8.49883 18.9648 9.19678 18.6144 10.2031C18.5111 10.4998 18.2338 10.7006 17.9197 10.7063C16.8946 10.7249 16.1602 10.8235 15.6786 10.9747C15.4402 11.0496 15.295 11.1279 15.2127 11.1907C15.1375 11.2481 15.1288 11.2808 15.1285 11.2818L15.1285 11.2818C15.128 11.2835 15.0812 11.4525 15.4001 11.9044C15.7017 12.3319 16.2356 12.8728 17.0449 13.5289C17.28 13.7195 17.3775 14.0326 17.2922 14.3229C17.0422 15.1741 16.9023 15.852 16.8571 16.3688C16.81 16.9067 16.875 17.1726 16.9296 17.2767C16.9406 17.2977 16.9486 17.307 16.9511 17.3097C16.9519 17.3106 16.9524 17.3111 16.9527 17.3113C16.9531 17.3115 16.9541 17.3121 16.9561 17.3129C16.9587 17.3139 16.9632 17.3155 16.9703 17.3173C16.9846 17.3209 17.01 17.3253 17.0497 17.3259C17.2303 17.3285 17.5643 17.2522 18.0937 16.9861C18.4638 16.8001 18.9146 16.9494 19.1006 17.3195C19.2866 17.6895 19.1374 18.1404 18.7673 18.3264C18.1628 18.6302 17.5691 18.8336 17.028 18.8257C16.7454 18.8216 16.4586 18.7596 16.1971 18.6071C15.9324 18.4528 15.736 18.2305 15.601 17.9731C15.346 17.4865 15.3074 16.8714 15.3628 16.2381C15.4096 15.7022 15.5312 15.0796 15.7191 14.377C15.0511 13.806 14.5276 13.2697 14.1744 12.7692C13.7739 12.2015 13.4785 11.5144 13.7003 10.8235C13.9249 10.1234 14.5721 9.74993 15.2293 9.54359C15.7994 9.36461 16.5217 9.26313 17.3741 9.22316C17.6873 8.39331 18.0132 7.71548 18.3592 7.21463C18.7476 6.65243 19.2985 6.11879 20.0411 6.12505C20.7833 6.13131 21.3255 6.67374 21.705 7.24215C22.0433 7.74875 22.3588 8.43209 22.6593 9.26732C23.3455 9.31108 23.943 9.39313 24.4422 9.51999C25.0445 9.67305 25.6042 9.91579 25.9712 10.3326C26.3884 10.8064 26.462 11.3921 26.2839 11.96C26.1214 12.478 25.7529 12.9885 25.2807 13.4854C24.9954 13.7857 24.5207 13.7978 24.2204 13.5124C23.9202 13.2271 23.9081 12.7524 24.1934 12.4521C24.6057 12.0183 24.7913 11.7067 24.8526 11.5112C24.8947 11.3767 24.8698 11.35 24.8501 11.329C24.8485 11.3273 24.8469 11.3256 24.8454 11.3239C24.7755 11.2445 24.568 11.0996 24.0727 10.9738C23.5961 10.8527 22.941 10.7709 22.0895 10.7411C21.7759 10.7302 21.5023 10.5251 21.4037 10.2272C21.0688 9.2153 20.7491 8.51182 20.4575 8.07511C20.2093 7.70333 20.0601 7.63784 20.0285 7.6269C19.9966 7.63734 19.8468 7.70039 19.5934 8.06722Z" fill="#007BFE"/>
<path fill-rule="evenodd" clip-rule="evenodd" d="M22.7496 15.4593C22.0582 15.4593 21.4976 16.0198 21.4976 16.7113V27.64C21.4976 28.1924 20.9565 28.5824 20.4325 28.4078L17.7627 27.5178C17.1088 27.2999 16.3941 27.5959 16.0858 28.2124C15.8212 28.7416 15.9274 29.3538 16.3293 29.7298C17.0372 30.392 17.9268 31.1611 18.631 31.5836C19.309 31.9904 20.1381 32.3476 20.815 32.607C21.1499 32.7353 21.4405 32.8371 21.6467 32.9065C21.7497 32.9412 21.8313 32.9677 21.8866 32.9854L21.9489 33.0051L21.9639 33.0097L21.9672 33.0108C21.9672 33.0107 21.9672 33.0108 21.9672 33.0108M21.9672 33.0108C21.9672 33.0107 21.9672 33.0108 21.9672 33.0108C22.3633 33.1318 22.5869 33.551 22.466 33.9472C22.345 34.3433 21.9258 34.5665 21.5297 34.4455L21.7486 33.7282C21.5297 34.4455 21.5298 34.4456 21.5297 34.4455L21.5271 34.4447L21.5216 34.443L21.5019 34.4369C21.4851 34.4317 21.4608 34.4241 21.4299 34.4142C21.3679 34.3944 21.2789 34.3654 21.168 34.3281C20.9463 34.2534 20.6359 34.1447 20.2782 34.0076C19.5698 33.7362 18.6472 33.3426 17.8593 32.8698C17.0066 32.3582 16.0169 31.4916 15.3045 30.8251C14.3879 29.9676 14.2013 28.6274 14.7442 27.5416C15.3863 26.2574 16.875 25.6408 18.2371 26.0948L19.9976 26.6817V16.7113C19.9976 15.1914 21.2297 13.9593 22.7496 13.9593C24.2695 13.9593 25.5016 15.1914 25.5016 16.7113V20.4778C26.142 20.5026 27.1162 20.573 28.1562 20.7668C29.0129 20.9264 29.9421 21.1746 30.7759 21.5664C31.6054 21.9562 32.3958 22.5142 32.8968 23.3235C33.4671 24.2448 33.5633 25.3295 33.4497 26.3547C33.3356 27.3843 33.0023 28.4291 32.6255 29.346C32.2468 30.2676 31.8116 31.0895 31.4728 31.6791C31.303 31.9747 31.1561 32.214 31.051 32.3806C30.9984 32.4639 30.9561 32.5291 30.9265 32.5743L30.8919 32.6266L30.8822 32.6411L30.8785 32.6466C30.8784 32.6468 30.878 32.6474 30.2571 32.2267L30.8785 32.6466C30.6462 32.9895 30.1793 33.08 29.8364 32.8476C29.4935 32.6153 29.4039 32.1491 29.636 31.8062L29.6374 31.8042L29.6439 31.7944L29.6721 31.7518C29.6973 31.7134 29.7349 31.6554 29.7826 31.5798C29.8782 31.4284 30.0141 31.207 30.1723 30.9317C30.4896 30.3795 30.8918 29.6185 31.2381 28.7758C31.5864 27.9283 31.866 27.0275 31.9588 26.1895C32.0521 25.3474 31.9494 24.6429 31.6214 24.113C31.329 23.6407 30.82 23.2445 30.138 22.924C29.4604 22.6056 28.6662 22.3876 27.8814 22.2414C26.3119 21.949 24.8918 21.9636 24.7738 21.9655C24.5332 21.9693 24.2947 21.8582 24.1446 21.6488C24.0202 21.4754 24.0016 21.299 24.0016 21.2025V16.7113C24.0016 16.0198 23.4411 15.4593 22.7496 15.4593" fill="#000000"/>
<path fill-rule="evenodd" clip-rule="evenodd" d="M31.1846 9.68691C31.0047 9.94734 30.7932 10.388 30.5624 11.0509C30.459 11.3476 30.1818 11.5485 29.8677 11.5542C29.1936 11.5664 28.7316 11.6314 28.444 11.7217C28.3702 11.7448 28.3178 11.7663 28.2811 11.7839C28.3011 11.825 28.3339 11.8826 28.3877 11.9588C28.5694 12.2164 28.905 12.5601 29.4374 12.9918C29.6725 13.1823 29.77 13.4954 29.6847 13.7857C29.5204 14.345 29.4319 14.7794 29.4038 15.101C29.3904 15.2543 29.3919 15.3689 29.4007 15.4511C29.4976 15.4283 29.6494 15.3767 29.8669 15.2674C30.1208 15.1398 30.4277 14.9523 30.7906 14.697C31.0532 14.5121 31.4045 14.515 31.664 14.7042C32.2176 15.1077 32.6296 15.3387 32.9142 15.4419C32.9657 15.4606 33.0079 15.4733 33.0418 15.482C33.0471 15.438 33.051 15.3789 33.0506 15.3015C33.0492 14.9774 32.971 14.4898 32.7837 13.8129C32.7029 13.5211 32.8055 13.2095 33.0437 13.0227C33.394 12.748 33.6649 12.5058 33.8644 12.2958C34.0682 12.0814 34.1704 11.9286 34.2176 11.8346C34.1592 11.805 34.0609 11.7648 33.9036 11.7248C33.6098 11.6502 33.1927 11.5968 32.6343 11.5773C32.3207 11.5663 32.0471 11.3613 31.9485 11.0634C31.7279 10.3967 31.5231 9.95247 31.3471 9.6889C31.3164 9.64284 31.2894 9.60648 31.2665 9.57793C31.2432 9.60597 31.2159 9.64168 31.1846 9.68691ZM33.2018 10.107C33.0139 9.60691 32.8134 9.18368 32.5946 8.85594C32.3307 8.46067 31.9048 8.00532 31.2795 8.00005C30.6539 7.99477 30.2206 8.44331 29.9505 8.83433C29.7267 9.15831 29.5197 9.57797 29.3243 10.0746C28.8123 10.1067 28.3637 10.1747 27.9947 10.2905C27.5314 10.436 26.9998 10.7213 26.8121 11.3059C26.6275 11.8814 26.8814 12.4258 27.162 12.8236C27.3914 13.1487 27.7156 13.4872 28.115 13.8386C28.0094 14.2558 27.9388 14.6346 27.9095 14.9703C27.8712 15.4084 27.8925 15.8766 28.0959 16.2648C28.2051 16.473 28.3671 16.6582 28.5888 16.7874C28.8074 16.9148 29.0426 16.9639 29.265 16.9671C29.6859 16.9732 30.125 16.8164 30.5405 16.6076C30.753 16.5008 30.978 16.3707 31.2147 16.2192C31.6434 16.5037 32.0414 16.721 32.4028 16.852C32.8527 17.0152 33.4617 17.1191 33.9654 16.7448C34.4556 16.3804 34.5528 15.7758 34.5506 15.2947C34.5488 14.8926 34.4777 14.4206 34.3524 13.8906C34.5784 13.6981 34.7789 13.511 34.9517 13.3292C35.2765 12.9874 35.5527 12.6139 35.6778 12.2148C35.8186 11.7658 35.7628 11.281 35.4185 10.8899C35.1243 10.5557 34.6924 10.3776 34.273 10.271C33.9625 10.1921 33.6033 10.1389 33.2018 10.107Z" fill="#000000"/>
<path fill-rule="evenodd" clip-rule="evenodd" d="M8.68462 9.68691C8.50471 9.94734 8.29319 10.388 8.06236 11.0509C7.95905 11.3476 7.68177 11.5485 7.36766 11.5542C6.69356 11.5664 6.23157 11.6314 5.94399 11.7217C5.87024 11.7448 5.81776 11.7663 5.78114 11.7839C5.80109 11.825 5.83389 11.8826 5.88768 11.9588C6.06938 12.2164 6.40496 12.5601 6.93742 12.9918C7.17246 13.1823 7.26998 13.4954 7.1847 13.7857C7.02042 14.345 6.93191 14.7794 6.90377 15.101C6.89036 15.2543 6.89189 15.3689 6.90065 15.4511C6.99763 15.4283 7.14939 15.3767 7.36687 15.2674C7.62077 15.1398 7.92774 14.9523 8.29059 14.697C8.55325 14.5121 8.90447 14.515 9.16402 14.7042C9.71763 15.1077 10.1296 15.3387 10.4142 15.4419C10.4657 15.4606 10.5079 15.4733 10.5418 15.482C10.5471 15.438 10.551 15.3789 10.5506 15.3015C10.5492 14.9774 10.471 14.4898 10.2837 13.8129C10.2029 13.5211 10.3055 13.2095 10.5437 13.0227C10.894 12.748 11.1649 12.5058 11.3644 12.2958C11.5682 12.0814 11.6704 11.9286 11.7176 11.8346C11.6592 11.805 11.5609 11.7648 11.4036 11.7248C11.1098 11.6502 10.6927 11.5968 10.1343 11.5773C9.82069 11.5663 9.54707 11.3613 9.44848 11.0634C9.22787 10.3967 9.02312 9.95247 8.84713 9.6889C8.81637 9.64284 8.78944 9.60648 8.76647 9.57793C8.74319 9.60597 8.71587 9.64168 8.68462 9.68691ZM10.7018 10.107C10.5139 9.60691 10.3134 9.18368 10.0946 8.85594C9.83067 8.46067 9.40476 8.00532 8.7795 8.00005C8.15389 7.99477 7.72061 8.44331 7.45048 8.83433C7.22666 9.15831 7.01975 9.57797 6.82427 10.0746C6.31229 10.1067 5.86367 10.1747 5.49469 10.2905C5.03144 10.436 4.49976 10.7213 4.31214 11.3059C4.12748 11.8814 4.38141 12.4258 4.66204 12.8236C4.89139 13.1487 5.21559 13.4872 5.61501 13.8386C5.50935 14.2558 5.43884 14.6346 5.40947 14.9703C5.37115 15.4084 5.39249 15.8766 5.59593 16.2648C5.70506 16.473 5.86714 16.6582 6.08883 16.7874C6.3074 16.9148 6.54264 16.9639 6.76504 16.9671C7.18586 16.9732 7.62499 16.8164 8.04047 16.6076C8.25303 16.5008 8.47799 16.3707 8.71468 16.2192C9.14337 16.5037 9.54143 16.721 9.90283 16.852C10.3527 17.0152 10.9617 17.1191 11.4654 16.7448C11.9556 16.3804 12.0528 15.7758 12.0506 15.2947C12.0488 14.8926 11.9777 14.4206 11.8524 13.8906C12.0784 13.6981 12.2789 13.511 12.4517 13.3292C12.7765 12.9874 13.0527 12.6139 13.1778 12.2148C13.3186 11.7658 13.2628 11.281 12.9185 10.8899C12.6243 10.5557 12.1924 10.3776 11.773 10.271C11.4625 10.1921 11.1033 10.1389 10.7018 10.107Z" fill="#000000"/>
</svg>
