<svg width="40" height="40" viewBox="0 0 40 40" fill="none" xmlns="http://www.w3.org/2000/svg">
<path fill-rule="evenodd" clip-rule="evenodd" d="M19.5934 8.06722C19.2952 8.49883 18.9648 9.19678 18.6144 10.2031C18.5111 10.4998 18.2338 10.7006 17.9197 10.7063C16.8946 10.7249 16.1602 10.8235 15.6786 10.9747C15.4402 11.0496 15.295 11.1279 15.2127 11.1907C15.1375 11.2481 15.1288 11.2808 15.1285 11.2818L15.1285 11.2818C15.128 11.2835 15.0812 11.4525 15.4001 11.9044C15.7017 12.3319 16.2356 12.8728 17.0449 13.5289C17.28 13.7195 17.3775 14.0326 17.2922 14.3229C17.0422 15.1741 16.9023 15.852 16.8571 16.3688C16.81 16.9067 16.875 17.1726 16.9296 17.2767C16.9406 17.2977 16.9486 17.307 16.9511 17.3097C16.9519 17.3106 16.9524 17.3111 16.9527 17.3113C16.9531 17.3115 16.9541 17.3121 16.9561 17.3129C16.9587 17.3139 16.9632 17.3155 16.9703 17.3173C16.9846 17.3209 17.01 17.3253 17.0497 17.3259C17.2303 17.3285 17.5643 17.2522 18.0937 16.9861C18.4638 16.8001 18.9146 16.9494 19.1006 17.3195C19.2866 17.6895 19.1374 18.1404 18.7673 18.3264C18.1628 18.6302 17.5691 18.8336 17.028 18.8257C16.7454 18.8216 16.4586 18.7596 16.1971 18.6071C15.9324 18.4528 15.736 18.2305 15.601 17.9731C15.346 17.4865 15.3074 16.8714 15.3628 16.2381C15.4096 15.7022 15.5312 15.0796 15.7191 14.377C15.0511 13.806 14.5276 13.2697 14.1744 12.7692C13.7739 12.2015 13.4785 11.5144 13.7003 10.8235C13.9249 10.1234 14.5721 9.74993 15.2293 9.54359C15.7994 9.36461 16.5217 9.26313 17.3741 9.22316C17.6873 8.39331 18.0132 7.71548 18.3592 7.21463C18.7476 6.65243 19.2985 6.11879 20.0411 6.12505C20.7833 6.13131 21.3255 6.67374 21.705 7.24215C22.0433 7.74875 22.3588 8.43209 22.6593 9.26732C23.3455 9.31108 23.943 9.39313 24.4422 9.51999C25.0445 9.67305 25.6042 9.91579 25.9712 10.3326C26.3884 10.8064 26.462 11.3921 26.2839 11.96C26.1214 12.478 25.7529 12.9885 25.2807 13.4854C24.9954 13.7857 24.5207 13.7978 24.2204 13.5124C23.9202 13.2271 23.9081 12.7524 24.1934 12.4521C24.6057 12.0183 24.7913 11.7067 24.8526 11.5112C24.8947 11.3767 24.8698 11.35 24.8501 11.329C24.8485 11.3273 24.8469 11.3256 24.8454 11.3239C24.7755 11.2445 24.568 11.0996 24.0727 10.9738C23.5961 10.8527 22.941 10.7709 22.0895 10.7411C21.7759 10.7302 21.5023 10.5251 21.4037 10.2272C21.0688 9.2153 20.7491 8.51182 20.4575 8.07511C20.2093 7.70333 20.0601 7.63784 20.0285 7.6269C19.9966 7.63734 19.8468 7.70039 19.5934 8.06722Z" fill="#007BFE"/>
<path fill-rule="evenodd" clip-rule="evenodd" d="M22.7496 15.4593C22.0581 15.4593 21.4976 16.0198 21.4976 16.7113V27.64C21.4976 28.1924 20.9564 28.5824 20.4324 28.4078L17.7627 27.5178C17.1087 27.2999 16.394 27.5959 16.0858 28.2124C15.8212 28.7416 15.9273 29.3538 16.3293 29.7298C17.0371 30.392 17.9267 31.1611 18.631 31.5836C19.309 31.9904 20.1381 32.3476 20.8149 32.607C21.1499 32.7353 21.4405 32.8371 21.6467 32.9065C21.7497 32.9412 21.8313 32.9677 21.8865 32.9854L21.9488 33.0051L21.9638 33.0097L21.9671 33.0108C21.9671 33.0107 21.9672 33.0108 21.9671 33.0108M21.9671 33.0108C21.9671 33.0107 21.9672 33.0108 21.9671 33.0108C22.3632 33.1318 22.5868 33.551 22.4659 33.9472C22.345 34.3433 21.9258 34.5665 21.5296 34.4455L21.7486 33.7282C21.5296 34.4455 21.5297 34.4456 21.5296 34.4455L21.527 34.4447L21.5215 34.443L21.5019 34.4369C21.485 34.4317 21.4608 34.4241 21.4298 34.4142C21.3679 34.3944 21.2788 34.3654 21.1679 34.3281C20.9462 34.2534 20.6359 34.1447 20.2782 34.0076C19.5698 33.7362 18.6471 33.3426 17.8592 32.8698C17.0065 32.3582 16.0169 31.4916 15.3045 30.8251C14.3878 29.9676 14.2012 28.6274 14.7441 27.5416C15.3862 26.2574 16.8749 25.6408 18.237 26.0948L19.9976 26.6817V16.7113C19.9976 15.1914 21.2297 13.9593 22.7496 13.9593C24.2694 13.9593 25.5015 15.1914 25.5015 16.7113V20.4778C26.1419 20.5026 27.1161 20.573 28.1561 20.7668C29.0129 20.9264 29.942 21.1746 30.7759 21.5664C31.6053 21.9562 32.3957 22.5142 32.8967 23.3235C33.4671 24.2448 33.5632 25.3295 33.4496 26.3547C33.3355 27.3843 33.0023 28.4291 32.6255 29.346C32.2467 30.2676 31.8115 31.0895 31.4728 31.6791C31.3029 31.9747 31.1561 32.214 31.0509 32.3806C30.9983 32.4639 30.956 32.5291 30.9265 32.5743L30.8918 32.6266L30.8822 32.6411L30.8785 32.6466C30.8783 32.6468 30.8779 32.6474 30.257 32.2267L30.8785 32.6466C30.6461 32.9895 30.1792 33.08 29.8363 32.8476C29.4935 32.6153 29.4038 32.1491 29.636 31.8062L29.6373 31.8042L29.6439 31.7944L29.672 31.7518C29.6972 31.7134 29.7348 31.6554 29.7826 31.5798C29.8781 31.4284 30.014 31.207 30.1722 30.9317C30.4895 30.3795 30.8917 29.6185 31.2381 28.7758C31.5864 27.9283 31.8659 27.0275 31.9587 26.1895C32.0521 25.3474 31.9493 24.6429 31.6213 24.113C31.3289 23.6407 30.8199 23.2445 30.1379 22.924C29.4604 22.6056 28.6661 22.3876 27.8814 22.2414C26.3118 21.949 24.8917 21.9636 24.7737 21.9655C24.5331 21.9693 24.2946 21.8582 24.1445 21.6488C24.0202 21.4754 24.0015 21.299 24.0015 21.2025V16.7113C24.0015 16.0198 23.441 15.4593 22.7496 15.4593" fill="#000000"/>
<path fill-rule="evenodd" clip-rule="evenodd" d="M31.1846 9.68691C31.0046 9.94734 30.7931 10.388 30.5623 11.0509C30.459 11.3476 30.1817 11.5485 29.8676 11.5542C29.1935 11.5664 28.7315 11.6314 28.4439 11.7217C28.3702 11.7448 28.3177 11.7663 28.2811 11.7839C28.301 11.825 28.3338 11.8826 28.3876 11.9588C28.5693 12.2164 28.9049 12.5601 29.4374 12.9918C29.6724 13.1823 29.7699 13.4954 29.6846 13.7857C29.5204 14.345 29.4318 14.7794 29.4037 15.101C29.3903 15.2543 29.3918 15.3689 29.4006 15.4511C29.4976 15.4283 29.6493 15.3767 29.8668 15.2674C30.1207 15.1398 30.4277 14.9523 30.7905 14.697C31.0532 14.5121 31.4044 14.515 31.664 14.7042C32.2176 15.1077 32.6295 15.3387 32.9141 15.4419C32.9657 15.4606 33.0078 15.4733 33.0418 15.482C33.047 15.438 33.0509 15.3789 33.0506 15.3015C33.0491 14.9774 32.9709 14.4898 32.7836 13.8129C32.7029 13.5211 32.8054 13.2095 33.0436 13.0227C33.3939 12.748 33.6648 12.5058 33.8643 12.2958C34.0682 12.0814 34.1703 11.9286 34.2176 11.8346C34.1591 11.805 34.0608 11.7648 33.9035 11.7248C33.6098 11.6502 33.1927 11.5968 32.6342 11.5773C32.3206 11.5663 32.047 11.3613 31.9484 11.0634C31.7278 10.3967 31.5231 9.95247 31.3471 9.6889C31.3163 9.64284 31.2894 9.60648 31.2664 9.57793C31.2431 9.60597 31.2158 9.64168 31.1846 9.68691ZM33.2018 10.107C33.0139 9.60691 32.8134 9.18368 32.5945 8.85594C32.3306 8.46067 31.9047 8.00532 31.2794 8.00005C30.6538 7.99477 30.2205 8.44331 29.9504 8.83433C29.7266 9.15831 29.5197 9.57797 29.3242 10.0746C28.8122 10.1067 28.3636 10.1747 27.9946 10.2905C27.5314 10.436 26.9997 10.7213 26.8121 11.3059C26.6274 11.8814 26.8814 12.4258 27.162 12.8236C27.3913 13.1487 27.7155 13.4872 28.115 13.8386C28.0093 14.2558 27.9388 14.6346 27.9094 14.9703C27.8711 15.4084 27.8924 15.8766 28.0959 16.2648C28.205 16.473 28.3671 16.6582 28.5888 16.7874C28.8073 16.9148 29.0426 16.9639 29.265 16.9671C29.6858 16.9732 30.1249 16.8164 30.5404 16.6076C30.753 16.5008 30.9779 16.3707 31.2146 16.2192C31.6433 16.5037 32.0414 16.721 32.4028 16.852C32.8527 17.0152 33.4616 17.1191 33.9653 16.7448C34.4555 16.3804 34.5527 15.7758 34.5506 15.2947C34.5487 14.8926 34.4776 14.4206 34.3523 13.8906C34.5784 13.6981 34.7789 13.511 34.9517 13.3292C35.2765 12.9874 35.5526 12.6139 35.6777 12.2148C35.8185 11.7658 35.7627 11.281 35.4184 10.8899C35.1242 10.5557 34.6924 10.3776 34.273 10.271C33.9625 10.1921 33.6032 10.1389 33.2018 10.107Z" fill="#000000"/>
<path fill-rule="evenodd" clip-rule="evenodd" d="M8.68456 9.68691C8.50465 9.94734 8.29313 10.388 8.0623 11.0509C7.95899 11.3476 7.68171 11.5485 7.3676 11.5542C6.6935 11.5664 6.23151 11.6314 5.94393 11.7217C5.87018 11.7448 5.8177 11.7663 5.78107 11.7839C5.80103 11.825 5.83383 11.8826 5.88762 11.9588C6.06932 12.2164 6.4049 12.5601 6.93736 12.9918C7.1724 13.1823 7.26992 13.4954 7.18463 13.7857C7.02036 14.345 6.93184 14.7794 6.90371 15.101C6.8903 15.2543 6.89183 15.3689 6.90059 15.4511C6.99757 15.4283 7.14933 15.3767 7.36681 15.2674C7.62071 15.1398 7.92768 14.9523 8.29053 14.697C8.55319 14.5121 8.9044 14.515 9.16396 14.7042C9.71757 15.1077 10.1295 15.3387 10.4141 15.4419C10.4657 15.4606 10.5078 15.4733 10.5418 15.482C10.547 15.438 10.5509 15.3789 10.5506 15.3015C10.5491 14.9774 10.4709 14.4898 10.2836 13.8129C10.2029 13.5211 10.3054 13.2095 10.5436 13.0227C10.8939 12.748 11.1648 12.5058 11.3643 12.2958C11.5682 12.0814 11.6703 11.9286 11.7176 11.8346C11.6591 11.805 11.5608 11.7648 11.4035 11.7248C11.1098 11.6502 10.6927 11.5968 10.1342 11.5773C9.82063 11.5663 9.547 11.3613 9.44842 11.0634C9.22781 10.3967 9.02306 9.95247 8.84707 9.6889C8.81631 9.64284 8.78938 9.60648 8.76641 9.57793C8.74313 9.60597 8.71581 9.64168 8.68456 9.68691ZM10.7018 10.107C10.5139 9.60691 10.3134 9.18368 10.0945 8.85594C9.83061 8.46067 9.40469 8.00532 8.77944 8.00005C8.15383 7.99477 7.72055 8.44331 7.45042 8.83433C7.2266 9.15831 7.01969 9.57797 6.82421 10.0746C6.31223 10.1067 5.86361 10.1747 5.49463 10.2905C5.03138 10.436 4.4997 10.7213 4.31208 11.3059C4.12742 11.8814 4.38135 12.4258 4.66198 12.8236C4.89133 13.1487 5.21553 13.4872 5.61495 13.8386C5.50929 14.2558 5.43878 14.6346 5.40941 14.9703C5.37109 15.4084 5.39243 15.8766 5.59587 16.2648C5.705 16.473 5.86708 16.6582 6.08877 16.7874C6.30734 16.9148 6.54258 16.9639 6.76498 16.9671C7.1858 16.9732 7.62493 16.8164 8.04041 16.6076C8.25296 16.5008 8.47793 16.3707 8.71462 16.2192C9.14331 16.5037 9.54137 16.721 9.90277 16.852C10.3527 17.0152 10.9616 17.1191 11.4653 16.7448C11.9555 16.3804 12.0527 15.7758 12.0506 15.2947C12.0487 14.8926 11.9776 14.4206 11.8523 13.8906C12.0784 13.6981 12.2789 13.511 12.4517 13.3292C12.7765 12.9874 13.0526 12.6139 13.1777 12.2148C13.3185 11.7658 13.2627 11.281 12.9184 10.8899C12.6242 10.5557 12.1924 10.3776 11.773 10.271C11.4624 10.1921 11.1032 10.1389 10.7018 10.107Z" fill="#000000"/>
</svg>
