<svg width="40" height="40" viewBox="0 0 40 40" fill="none" xmlns="http://www.w3.org/2000/svg">
<path fill-rule="evenodd" clip-rule="evenodd" d="M23.8443 27.4687C24.1372 27.1758 24.6121 27.1758 24.905 27.4687L26.6504 29.2141L31.5212 24.3433C31.8141 24.0504 32.289 24.0504 32.5818 24.3433C32.8747 24.6362 32.8747 25.1111 32.5818 25.404L27.1807 30.8051C26.8878 31.098 26.4129 31.098 26.12 30.8051L23.8443 28.5294C23.5514 28.2365 23.5514 27.7616 23.8443 27.4687Z" fill="#007BFE"/>
<path fill-rule="evenodd" clip-rule="evenodd" d="M19.6706 9.79736C14.22 9.79736 9.80151 14.2159 9.80151 19.6664C9.80151 25.117 14.22 29.5355 19.6706 29.5355C20.7489 29.5355 21.7854 29.3628 22.7548 29.0442C23.1483 28.9148 23.5722 29.129 23.7015 29.5225C23.8309 29.916 23.6167 30.3398 23.2232 30.4692C22.1045 30.8369 20.91 31.0355 19.6706 31.0355C13.3916 31.0355 8.30151 25.9454 8.30151 19.6664C8.30151 13.3875 13.3916 8.29736 19.6706 8.29736C25.9495 8.29736 31.0396 13.3875 31.0396 19.6664C31.0396 20.5197 30.9455 21.3518 30.7668 22.1527C30.6766 22.557 30.2757 22.8116 29.8715 22.7213C29.4672 22.6311 29.2126 22.2303 29.3028 21.826C29.4578 21.1316 29.5396 20.409 29.5396 19.6664C29.5396 14.2159 25.1211 9.79736 19.6706 9.79736Z" fill="#000000"/>
<path fill-rule="evenodd" clip-rule="evenodd" d="M23.5023 15.3223C23.5023 13.3901 21.9345 11.8223 20.0023 11.8223C18.0697 11.8223 16.5023 13.3901 16.5023 15.3223C16.5023 17.2536 18.0696 18.8223 20.0023 18.8223C21.9346 18.8223 23.5023 17.2537 23.5023 15.3223ZM20.0023 13.3223C21.1061 13.3223 22.0023 14.2185 22.0023 15.3223C22.0023 16.4255 21.106 17.3223 20.0023 17.3223C18.8984 17.3223 18.0023 16.4256 18.0023 15.3223C18.0023 14.2184 18.8982 13.3223 20.0023 13.3223ZM23.7069 20.3551C22.3991 19.8568 20.7577 19.6181 19.3148 19.6181C18.2977 19.6181 16.9841 19.8678 15.9015 20.3774C14.8639 20.8659 13.7523 21.7422 13.7523 23.1181V25.1806C13.7523 25.5948 14.0881 25.9306 14.5023 25.9306H25.5023C25.9165 25.9306 26.2523 25.5948 26.2523 25.1806V23.1181C26.2523 22.3996 25.9081 21.8132 25.4362 21.3692C24.9736 20.9339 24.3595 20.6038 23.7069 20.3551ZM24.4083 22.4616C24.6669 22.705 24.7523 22.9204 24.7523 23.1181V24.4306H15.2523V23.1181C15.2523 22.6618 15.6302 22.1631 16.5404 21.7346C17.4057 21.3272 18.4984 21.1181 19.3148 21.1181C20.6219 21.1181 22.0743 21.3382 23.1728 21.7568C23.7233 21.9666 24.1404 22.2096 24.4083 22.4616Z" fill="#000000"/>
</svg>
