<svg width="40" height="40" viewBox="0 0 40 40" fill="none" xmlns="http://www.w3.org/2000/svg">
<path fill-rule="evenodd" clip-rule="evenodd" d="M28.1424 10.75C27.7282 10.75 27.3924 10.4142 27.3924 10C27.3924 9.58579 27.7282 9.25 28.1424 9.25L30.2499 9.25L30.2499 7.14253C30.2499 6.72831 30.5857 6.39253 30.9999 6.39253C31.4141 6.39253 31.7499 6.72831 31.7499 7.14253V9.25H33.8574C34.2716 9.25 34.6074 9.58579 34.6074 10C34.6074 10.4142 34.2716 10.75 33.8574 10.75H31.7499L31.7499 12.8575C31.7499 13.2717 31.4141 13.6075 30.9999 13.6075C30.5857 13.6075 30.2499 13.2717 30.2499 12.8575L30.2499 10.75H28.1424Z" fill="#007BFE"/>
<path fill-rule="evenodd" clip-rule="evenodd" d="M19.25 10C19.25 9.58579 19.5858 9.25 20 9.25H24.5833C24.9975 9.25 25.3333 9.58579 25.3333 10C25.3333 11.5029 25.9304 12.9442 26.9931 14.0069C28.0558 15.0696 29.4971 15.6667 31 15.6667C31.4142 15.6667 31.75 16.0025 31.75 16.4167V21C31.75 21.414 31.4145 21.7497 31.0005 21.75C29.0115 21.7514 27.0627 21.2475 25.3333 20.2959V24.6663C25.3333 24.6662 25.3333 24.6664 25.3333 24.6663C25.334 26.2913 24.8712 27.8831 23.9992 29.2542C23.1271 30.6255 21.882 31.7195 20.4099 32.4079C18.9378 33.0963 17.2999 33.3504 15.6884 33.1405C14.0769 32.9306 12.5588 32.2654 11.3122 31.2229C10.0655 30.1804 9.14215 28.8039 8.65042 27.255C8.15869 25.7061 8.11901 24.0491 8.53605 22.4784C8.95309 20.9078 9.80953 19.4887 11.0048 18.3877C12.2002 17.2867 13.6847 16.5496 15.2843 16.2628C15.5029 16.2236 15.7276 16.2833 15.8979 16.4258C16.0683 16.5683 16.1667 16.779 16.1667 17.001V21.7677C16.1667 22.0574 15.9998 22.3212 15.7381 22.4453C15.3406 22.6339 15.001 22.9256 14.7547 23.2902C14.5084 23.6547 14.3644 24.0786 14.3378 24.5177C14.3112 24.9569 14.4029 25.3951 14.6034 25.7867C14.8039 26.1783 15.1058 26.5089 15.4776 26.7441C15.8494 26.9793 16.2775 27.1103 16.7172 27.1237C17.1569 27.137 17.5922 27.0321 17.9775 26.8199C18.3629 26.6076 18.6843 26.2959 18.9081 25.9172C19.1319 25.5384 19.25 25.1066 19.25 24.6667C19.25 24.6666 19.25 24.6667 19.25 24.6667V10ZM20.75 10.75V24.6667C20.75 25.375 20.5598 26.0705 20.1994 26.6803C19.839 27.2901 19.3216 27.7921 18.7011 28.1338C18.0806 28.4755 17.3798 28.6444 16.6718 28.623C15.9637 28.6015 15.2744 28.3905 14.6757 28.0118C14.0771 27.6331 13.591 27.1008 13.2682 26.4702C12.9454 25.8397 12.7977 25.1341 12.8406 24.427C12.8834 23.7199 13.1152 23.0373 13.5118 22.4504C13.8166 21.9992 14.2102 21.6173 14.6667 21.3269V17.957C13.6866 18.2673 12.7826 18.7896 12.0211 19.491C11.0357 20.3986 10.3296 21.5685 9.98582 22.8634C9.64202 24.1582 9.67472 25.5242 10.0801 26.8011C10.4855 28.078 11.2467 29.2128 12.2744 30.0722C13.3021 30.9317 14.5537 31.4801 15.8822 31.6531C17.2106 31.8261 18.5609 31.6166 19.7745 31.0491C20.9881 30.4816 22.0146 29.5797 22.7335 28.4493C23.4524 27.3188 23.834 26.0067 23.8333 24.667V18.9375C23.8333 18.6562 23.9907 18.3986 24.241 18.2702C24.4912 18.1418 24.7923 18.1642 25.0208 18.3283C26.5595 19.4331 28.3704 20.0865 30.25 20.2231V17.1273C28.6249 16.9564 27.0985 16.2336 25.9324 15.0676C24.7664 13.9015 24.0436 12.3751 23.8727 10.75H20.75Z" fill="#000000"/>
</svg>
