<svg width="40" height="40" viewBox="0 0 40 40" fill="none" xmlns="http://www.w3.org/2000/svg">
<path d="M31.1866 18.2352L28.2242 13.056C27.8943 12.482 27.1768 12.0649 26.5157 12.0649H14.2796C13.6171 12.0649 12.897 12.4807 12.5684 13.0533L9.62608 18.1561C9.28142 18.7542 9.34446 19.6138 9.77495 20.1596L19.3462 32.2441C19.4294 32.346 19.538 32.409 19.6413 32.4828L19.6708 32.5767L19.7325 32.5566C19.9269 32.6706 20.1375 32.747 20.3628 32.747C20.5908 32.747 20.8027 32.6679 20.9998 32.5499L21.0521 32.566L21.0762 32.4882C21.1808 32.4158 21.2921 32.3514 21.3766 32.2468L31.0297 20.2374C31.4616 19.697 31.5286 18.8374 31.1866 18.2352ZM29.2997 17.849H25.7244L27.2948 14.3461L29.2997 17.849ZM22.2041 13.5106H26.0838L24.5993 16.8217L22.2041 13.5106ZM20.4191 13.5106L23.5573 17.849H17.2019L20.34 13.5106H20.4191ZM16.1598 16.8217L14.6739 13.5106H18.555L16.1598 16.8217ZM23.5613 19.2947L20.3413 29.9281L16.939 19.2947H23.5613ZM13.4763 14.3756L15.0346 17.849H11.4714L13.4763 14.3756ZM10.935 19.2947H15.4209L18.4611 28.7962L10.935 19.2947ZM22.1343 28.9947L25.0726 19.2947H29.9113C29.9059 19.3054 29.9073 19.3242 29.9006 19.3322L22.1343 28.9947Z" fill="#000000"/>
<path d="M31.1011 8.99268L32.934 9.79798C33.124 9.88154 33.1264 10.1526 32.938 10.2395L31.2699 11.0094C31.2174 11.0336 31.1754 11.076 31.1517 11.1287L30.3822 12.8253C30.297 13.0131 30.0325 13.0136 29.9466 12.826L29.2592 11.3241C29.2372 11.2761 29.2001 11.2366 29.1535 11.2117L27.3234 10.2374C27.1496 10.1448 27.1539 9.89236 27.3307 9.80601L28.9569 9.0114C29.0041 8.98829 29.0425 8.95037 29.0661 8.90344L29.9204 7.21017C30.0146 7.02344 30.2837 7.03791 30.3579 7.23359L30.9729 8.85728C30.9842 8.88724 31.0014 8.91464 31.0234 8.93789C31.0454 8.96114 31.0718 8.97977 31.1011 8.99268Z" stroke="#007BFE" stroke-width="1.3" stroke-linecap="round" stroke-linejoin="round"/>
<path d="M10.9834 29.1104L12.8163 29.9157C13.0063 29.9992 13.0087 30.2703 12.8203 30.3572L11.1522 31.127C11.0997 31.1513 11.0577 31.1937 11.034 31.2464L10.2645 32.943C10.1793 33.1308 9.91483 33.1313 9.82895 32.9437L9.14156 31.4418C9.11955 31.3937 9.08242 31.3543 9.03584 31.3294L7.20571 30.355C7.03195 30.2625 7.03624 30.01 7.21306 29.9237L8.83927 29.1291C8.88646 29.106 8.92478 29.068 8.9484 29.0211L9.80274 27.3278C9.89696 27.1411 10.166 27.1556 10.2402 27.3513L10.8552 28.975C10.8665 29.0049 10.8837 29.0323 10.9057 29.0556C10.9277 29.0788 10.9541 29.0974 10.9834 29.1104Z" stroke="#007BFE" stroke-width="1.3" stroke-linecap="round" stroke-linejoin="round"/>
</svg>
