<svg width="40" height="40" viewBox="0 0 40 40" fill="none" xmlns="http://www.w3.org/2000/svg">
<path fill-rule="evenodd" clip-rule="evenodd" d="M19.6723 10.6167C14.6716 10.6167 10.6177 14.6706 10.6177 19.6713C10.6177 24.6721 14.6716 28.726 19.6723 28.726C20.0889 28.726 20.4985 28.6979 20.8994 28.6436C21.2126 28.6012 21.5206 28.5428 21.8226 28.4693C22.225 28.3713 22.6307 28.6181 22.7287 29.0206C22.8267 29.423 22.5799 29.8287 22.1774 29.9267C21.825 30.0125 21.4657 30.0806 21.1006 30.13C20.6332 30.1933 20.1564 30.226 19.6723 30.226C13.8431 30.226 9.11768 25.5005 9.11768 19.6713C9.11768 13.8422 13.8431 9.1167 19.6723 9.1167C25.5015 9.1167 30.2269 13.8422 30.2269 19.6713C30.2269 20.9279 30.007 22.1349 29.6029 23.2546C29.4325 23.7267 29.2295 24.1831 28.9965 24.6211C28.802 24.9868 28.3479 25.1256 27.9822 24.9311C27.6165 24.7366 27.4777 24.2824 27.6722 23.9167C27.872 23.5412 28.046 23.1499 28.192 22.7454C28.538 21.7866 28.7269 20.7519 28.7269 19.6713C28.7269 14.6706 24.673 10.6167 19.6723 10.6167Z" fill="#000000"/>
<path fill-rule="evenodd" clip-rule="evenodd" d="M12.4318 18.3336C12.832 18.2269 13.243 18.4648 13.3497 18.865L13.5898 19.7654L13.7994 19.3662C13.9289 19.1194 14.1847 18.9649 14.4634 18.9649C14.7422 18.9649 14.9979 19.1194 15.1275 19.3662L15.337 19.7654L15.5771 18.865C15.6839 18.4648 16.0948 18.2269 16.495 18.3336C16.8953 18.4403 17.1332 18.8513 17.0265 19.2515L16.2911 22.0091C16.2115 22.3077 15.9569 22.5268 15.6498 22.5612C15.3428 22.5956 15.046 22.4381 14.9024 22.1645L14.4634 21.3283L14.0245 22.1645C13.8808 22.4381 13.5841 22.5956 13.277 22.5612C12.9699 22.5268 12.7154 22.3077 12.6357 22.0091L11.9004 19.2515C11.7937 18.8513 12.0316 18.4403 12.4318 18.3336ZM17.9469 18.3336C18.3471 18.2269 18.7581 18.4648 18.8648 18.865L19.1049 19.7654L19.3145 19.3662C19.4441 19.1194 19.6998 18.9649 19.9785 18.9649C20.2573 18.9649 20.513 19.1194 20.6426 19.3662L20.8521 19.7654L21.0922 18.865C21.199 18.4648 21.6099 18.2269 22.0102 18.3336C22.4104 18.4403 22.6483 18.8513 22.5416 19.2515L21.8062 22.0091C21.7266 22.3077 21.472 22.5268 21.165 22.5612C20.8579 22.5956 20.5611 22.4381 20.4175 22.1645L19.9785 21.3283L19.5396 22.1645C19.3959 22.4381 19.0992 22.5956 18.7921 22.5612C18.485 22.5268 18.2305 22.3077 18.1508 22.0091L17.4155 19.2515C17.3088 18.8513 17.5467 18.4403 17.9469 18.3336ZM23.462 18.3336C23.8623 18.2269 24.2732 18.4648 24.3799 18.865L24.62 19.7654L24.8296 19.3662C24.9592 19.1194 25.2149 18.9649 25.4936 18.9649C25.7724 18.9649 26.0281 19.1194 26.1577 19.3662L26.3672 19.7654L26.6073 18.865C26.7141 18.4648 27.125 18.2269 27.5253 18.3336C27.9255 18.4403 28.1634 18.8513 28.0567 19.2515L27.3213 22.0091C27.2417 22.3077 26.9871 22.5268 26.6801 22.5612C26.373 22.5956 26.0762 22.4381 25.9326 22.1645L25.4936 21.3283L25.0547 22.1645C24.911 22.4381 24.6143 22.5956 24.3072 22.5612C24.0001 22.5268 23.7456 22.3077 23.6659 22.0091L22.9306 19.2515C22.8239 18.8513 23.0618 18.4403 23.462 18.3336Z" fill="#007BFE"/>
<path fill-rule="evenodd" clip-rule="evenodd" d="M22.3654 10.8193C22.0931 10.5071 22.1255 10.0333 22.4377 9.76108C23.6156 8.73389 24.7259 7.94367 25.6841 7.49253C26.1626 7.26721 26.6393 7.10907 27.0907 7.0672C27.5481 7.02477 28.0285 7.09916 28.4326 7.39987C29.0031 7.82441 29.1821 8.51188 29.197 9.16042C29.2123 9.82354 29.0643 10.6071 28.8058 11.4551C28.2863 13.1593 27.2655 15.2995 25.8771 17.6071C25.6636 17.962 25.2027 18.0766 24.8478 17.8631C24.4929 17.6495 24.3783 17.1887 24.5918 16.8338C25.9463 14.5825 26.9009 12.5598 27.371 11.0177C27.6073 10.2424 27.7075 9.6319 27.6974 9.19506C27.687 8.74364 27.5668 8.6253 27.5371 8.60324C27.5148 8.58664 27.4388 8.54135 27.2293 8.56078C27.0137 8.58077 26.7129 8.66605 26.3231 8.84962C25.5444 9.21627 24.554 9.90574 23.4236 10.8916C23.1114 11.1638 22.6376 11.1314 22.3654 10.8193ZM11.9562 24.8098C12.3335 24.9808 12.5007 25.4252 12.3297 25.8025C11.7114 27.1666 11.3364 28.3114 11.2095 29.1613C11.1459 29.5868 11.1507 29.8988 11.1935 30.1106C11.2351 30.3164 11.3002 30.3761 11.3225 30.3927C11.3561 30.4178 11.5353 30.5101 12.0607 30.3385C12.5605 30.1753 13.2122 29.8208 13.9901 29.2611C15.5375 28.1476 17.4398 26.3277 19.4076 24.0168C19.6761 23.7015 20.1495 23.6635 20.4649 23.9321C20.7802 24.2006 20.8182 24.674 20.5497 24.9893C18.5364 27.3537 16.5459 29.27 14.8662 30.4786C14.0305 31.0799 13.2351 31.533 12.5264 31.7644C11.8433 31.9875 11.0525 32.0616 10.427 31.5961C10.0232 31.2957 9.81402 30.8574 9.72316 30.4075C9.6335 29.9635 9.64785 29.462 9.72593 28.9396C9.88225 27.8935 10.3192 26.6046 10.9635 25.1832C11.1345 24.806 11.579 24.6388 11.9562 24.8098Z" fill="#000000"/>
<path fill-rule="evenodd" clip-rule="evenodd" d="M31.4174 29.8993C32.2164 29.6506 32.2962 28.5514 31.5416 28.1898L24.526 24.8283C23.8166 24.4884 23.0352 25.1371 23.2388 25.897L25.2757 33.4988C25.4944 34.3152 26.6054 34.4302 26.9868 33.676L28.2218 31.2331C28.3518 30.9759 28.5806 30.7824 28.8558 30.6967L31.4174 29.8993ZM28.41 29.2645L29.5637 28.9054L25.0136 26.7252L26.3322 31.6462L26.8831 30.5564C26.8832 30.5564 26.8832 30.5564 26.8832 30.5563C27.1964 29.9368 27.7473 29.4708 28.41 29.2645ZM25.6481 32.9992C25.6482 32.999 25.6483 32.9988 25.6484 32.9986L25.6481 32.9992Z" fill="#000000"/>
</svg>
