<svg width="40" height="40" viewBox="0 0 40 40" fill="none" xmlns="http://www.w3.org/2000/svg">
<path fill-rule="evenodd" clip-rule="evenodd" d="M29.389 24.471C29.1933 24.7542 28.9659 25.2292 28.7192 25.9379C28.6159 26.2346 28.3386 26.4354 28.0245 26.4411C27.3036 26.4542 26.8053 26.5237 26.4918 26.6221C26.3786 26.6576 26.3093 26.6901 26.2685 26.7137C26.2873 26.7612 26.3261 26.8385 26.4059 26.9516C26.6036 27.2318 26.9656 27.6018 27.535 28.0634C27.77 28.2539 27.8675 28.5671 27.7822 28.8574C27.5706 29.5777 27.4776 30.1013 27.4705 30.4535C27.468 30.574 27.4757 30.6553 27.4846 30.708C27.5295 30.7002 27.5933 30.6848 27.6806 30.6548C27.9923 30.5476 28.44 30.3056 29.0386 29.8843C29.3013 29.6994 29.6525 29.7024 29.912 29.8915C30.504 30.323 30.9479 30.5725 31.258 30.685C31.3444 30.7163 31.4079 30.7329 31.4526 30.7414C31.4623 30.6889 31.4711 30.608 31.4706 30.488C31.469 30.1358 31.3842 29.6108 31.184 28.8871C31.1032 28.5953 31.2058 28.2837 31.444 28.0969C32.0203 27.6449 32.3878 27.2811 32.5896 27.0044C32.6713 26.8925 32.7112 26.8157 32.7307 26.7686C32.6903 26.7443 32.6213 26.7103 32.5076 26.6725C32.1957 26.5688 31.6986 26.491 30.9782 26.4658C30.6646 26.4548 30.391 26.2498 30.2924 25.9519C30.0565 25.2392 29.8365 24.7604 29.6451 24.4737C29.5932 24.396 29.5506 24.3428 29.518 24.3067C29.485 24.3421 29.4418 24.3945 29.389 24.471ZM29.4396 24.2358C29.4396 24.2358 29.44 24.2359 29.4407 24.2363L29.4396 24.2358ZM32.7818 26.8067C32.7817 26.8067 32.781 26.806 32.7797 26.8044C32.7812 26.8059 32.7818 26.8067 32.7818 26.8067ZM31.5424 30.7491C31.5425 30.7492 31.5411 30.7495 31.538 30.7497C31.5408 30.7491 31.5423 30.749 31.5424 30.7491ZM27.3952 30.714C27.3953 30.7139 27.3968 30.7141 27.3996 30.7148C27.3965 30.7145 27.3951 30.7141 27.3952 30.714ZM26.2162 26.7512C26.2161 26.7512 26.2168 26.7503 26.2183 26.7488C26.217 26.7504 26.2163 26.7512 26.2162 26.7512ZM31.5461 24.9949C31.3433 24.4505 31.1275 23.9926 30.8925 23.6408C30.6132 23.2224 30.1718 22.7554 29.5309 22.75C28.8897 22.7446 28.4408 23.2045 28.1549 23.6184C27.9146 23.9662 27.6918 24.4203 27.4807 24.9609C26.9238 24.9941 26.4387 25.0666 26.0425 25.1909C25.5534 25.3445 25.0063 25.6415 24.8138 26.2416C24.6242 26.8324 24.8836 27.3959 25.1802 27.8163C25.4263 28.1651 25.7771 28.53 26.2119 28.9104C26.0652 29.4834 25.9795 29.9917 25.9708 30.423C25.9604 30.9323 26.0542 31.5569 26.5506 31.9388C27.0605 32.3309 27.6899 32.2377 28.1683 32.0733C28.5586 31.9391 28.9923 31.7104 29.4627 31.4075C29.9283 31.7184 30.3584 31.9544 30.7466 32.0951C31.222 32.2675 31.8501 32.3714 32.3664 31.9876C32.8693 31.6138 32.9728 30.9905 32.9705 30.4812C32.9686 30.0499 32.8909 29.5403 32.7533 28.9651C33.1938 28.5921 33.5501 28.233 33.8015 27.8884C34.1048 27.4726 34.3727 26.9133 34.1923 26.3196C34.0092 25.7171 33.4676 25.411 32.9809 25.2492C32.5867 25.1181 32.1026 25.0374 31.5461 24.9949Z" fill="#000000"/>
<path fill-rule="evenodd" clip-rule="evenodd" d="M15.75 10C15.75 9.58579 15.4142 9.25 15 9.25C14.5858 9.25 14.25 9.58579 14.25 10V11.25H12C10.4812 11.25 9.25 12.4812 9.25 14V17V28C9.25 29.5188 10.4812 30.75 12 30.75H20H24C24.4142 30.75 24.75 30.4142 24.75 30C24.75 29.5858 24.4142 29.25 24 29.25H20H12C11.3096 29.25 10.75 28.6904 10.75 28V17.75H29.25V21C29.25 21.4142 29.5858 21.75 30 21.75C30.4142 21.75 30.75 21.4142 30.75 21V17V14C30.75 12.4812 29.5188 11.25 28 11.25H27.25C26.8358 11.25 26.5 11.5858 26.5 12C26.5 12.4142 26.8358 12.75 27.25 12.75H28C28.6904 12.75 29.25 13.3096 29.25 14V16.25H10.75V14C10.75 13.3096 11.3096 12.75 12 12.75H14.25V14.5C14.25 14.9142 14.5858 15.25 15 15.25C15.4142 15.25 15.75 14.9142 15.75 14.5V12V10ZM18 11.25C17.5858 11.25 17.25 11.5858 17.25 12C17.25 12.4142 17.5858 12.75 18 12.75H24.25V14.5C24.25 14.9142 24.5858 15.25 25 15.25C25.4142 15.25 25.75 14.9142 25.75 14.5V10C25.75 9.58579 25.4142 9.25 25 9.25C24.5858 9.25 24.25 9.58579 24.25 10V11.25H18Z" fill="#000000"/>
<path fill-rule="evenodd" clip-rule="evenodd" d="M15.8498 23.5418C16.1427 23.2489 16.6176 23.2489 16.9105 23.5418L18.8313 25.4626L23.7085 20.5854C24.0014 20.2925 24.4762 20.2925 24.7691 20.5854C25.062 20.8783 25.062 21.3532 24.7691 21.6461L19.3616 27.0536C19.0687 27.3465 18.5938 27.3465 18.3009 27.0536L15.8498 24.6024C15.5569 24.3096 15.5569 23.8347 15.8498 23.5418Z" fill="#007BFE"/>
</svg>
