<svg width="40" height="40" viewBox="0 0 40 40" fill="none" xmlns="http://www.w3.org/2000/svg">
<path fill-rule="evenodd" clip-rule="evenodd" d="M6.53818 25.6018C6.14677 25.7373 5.71962 25.5299 5.5841 25.1385C5.44858 24.747 5.65603 24.3199 6.04745 24.1843L6.29268 24.8927C6.04745 24.1843 6.04735 24.1844 6.04745 24.1843L6.06694 24.1776L6.12103 24.1591C6.16822 24.143 6.23728 24.1196 6.32579 24.09C6.50278 24.0306 6.75766 23.9463 7.07101 23.8457C7.69721 23.6445 8.55921 23.3774 9.50079 23.1141C10.4408 22.8513 11.4688 22.59 12.4249 22.4024C13.3661 22.2177 14.2938 22.0928 15.0103 22.1317C16.3787 22.206 18.0644 22.735 19.4481 23.3908C20.1457 23.7213 20.7955 24.0976 21.3103 24.4887C21.7934 24.8556 22.2752 25.3221 22.4586 25.8639C22.7408 26.6978 22.5341 27.438 22.0279 27.9852C21.5661 28.4843 20.8951 28.7859 20.257 28.9608C19.7424 29.1019 19.1038 29.0922 18.5071 29.0356C17.8903 28.9772 17.232 28.8591 16.637 28.7312C16.0398 28.6027 15.4931 28.4613 15.0965 28.3524C14.8978 28.2978 14.7358 28.251 14.6229 28.2178C14.5664 28.2011 14.5222 28.1879 14.4916 28.1786L14.4563 28.1679L14.4468 28.1649L14.443 28.1637C14.4429 28.1637 14.4428 28.1637 14.6584 27.469L14.443 28.1637C14.0474 28.0409 13.826 27.6207 13.9488 27.2251C14.0716 26.8295 14.4918 26.6084 14.8874 26.7311M14.8874 26.7311L14.8891 26.7316L14.8962 26.7338L14.9265 26.743C14.9536 26.7512 14.9942 26.7634 15.0468 26.7789C15.152 26.8099 15.3051 26.8541 15.4939 26.906C15.8722 27.0099 16.3904 27.1438 16.9524 27.2647C17.5169 27.3861 18.1124 27.4915 18.6487 27.5423C19.2051 27.595 19.6188 27.5804 19.8605 27.5142C20.371 27.3743 20.7355 27.1733 20.9268 26.9666C21.0736 26.8079 21.1373 26.639 21.0378 26.3447C21.0071 26.2542 20.8441 26.0182 20.403 25.6831C19.9936 25.3721 19.4398 25.0467 18.8058 24.7463C17.5263 24.1399 16.0368 23.6896 14.929 23.6295C14.4075 23.6012 13.6316 23.6942 12.7137 23.8743C11.8108 24.0515 10.8243 24.3016 9.90466 24.5587C8.98654 24.8154 8.14359 25.0766 7.52977 25.2738C7.2231 25.3723 6.9742 25.4546 6.80241 25.5122C6.71653 25.541 6.64996 25.5636 6.60511 25.5789L6.55444 25.5962L6.53818 25.6018" fill="#000000"/>
<path fill-rule="evenodd" clip-rule="evenodd" d="M24.0914 26.4426C23.694 26.5594 23.2771 26.332 23.1602 25.9347C23.0433 25.5373 23.2707 25.1204 23.6681 25.0035L23.8444 25.603C23.6681 25.0035 23.668 25.0035 23.6681 25.0035L23.6846 24.9987L23.7298 24.9856C23.7692 24.9742 23.8268 24.9576 23.9006 24.9367C24.0483 24.8948 24.261 24.8354 24.523 24.7645C25.0467 24.6229 25.7694 24.4352 26.5647 24.2512C28.1185 23.8915 30.07 23.5157 31.3203 23.5835C32.3185 23.6377 33.1285 24.3031 33.5207 25.0696C33.9197 25.8494 33.9674 26.9334 33.1183 27.6951C32.1144 28.5957 29.5554 30.1464 26.7904 31.5482C24.0188 32.9534 20.885 34.2884 18.7018 34.6938C16.9481 35.0195 15.4924 34.1385 14.3007 33.3983C14.2626 33.3746 14.2247 33.351 14.187 33.3276C12.9561 32.5623 11.9595 31.9427 10.8104 31.971C10.0607 31.9894 9.0769 32.2428 8.23372 32.5171C7.82219 32.651 7.46201 32.7838 7.20502 32.8831C7.07674 32.9327 6.97473 32.9736 6.90551 33.0019C6.87092 33.0161 6.84455 33.027 6.82725 33.0342L6.80819 33.0423L6.80396 33.044C6.80392 33.0441 6.804 33.044 6.80396 33.044M6.80396 33.044C6.42307 33.2067 5.98172 33.0301 5.81902 32.6492C5.6563 32.2683 5.83318 31.8276 6.2141 31.6649L6.50873 32.3546C6.2141 31.6649 6.214 31.6649 6.2141 31.6649L6.21721 31.6636L6.22402 31.6607L6.2484 31.6504C6.26935 31.6417 6.29953 31.6291 6.33814 31.6134C6.41532 31.5818 6.52631 31.5373 6.66445 31.4839C6.9403 31.3773 7.3266 31.2348 7.76966 31.0907C8.63566 30.8089 9.7935 30.4956 10.7735 30.4714C12.3869 30.4317 13.7463 31.2823 14.8653 31.9824C14.9421 32.0305 15.0177 32.0778 15.0922 32.1241C16.3448 32.9021 17.3214 33.4246 18.428 33.2191C20.384 32.8558 23.3537 31.6088 26.1121 30.2103C28.8771 28.8085 31.2748 27.3337 32.1167 26.5785C32.3118 26.4034 32.3744 26.1224 32.1853 25.7528C31.9894 25.3698 31.6084 25.1014 31.2391 25.0813C30.2338 25.0268 28.4852 25.3463 26.903 25.7125C26.1302 25.8914 25.4259 26.0743 24.9145 26.2125C24.6591 26.2816 24.4523 26.3394 24.3098 26.3798C24.2385 26.4 24.1834 26.4159 24.1463 26.4266L24.1046 26.4387L24.0914 26.4426" fill="#000000"/>
<path fill-rule="evenodd" clip-rule="evenodd" d="M27.0084 7.04486C27.3356 6.3965 28.2722 6.44994 28.5281 7.12513L29.0684 8.5514L30.6992 9.26791C31.3561 9.55677 31.3649 10.4882 30.7132 10.789C30.7132 10.789 30.7132 10.789 30.7132 10.789L29.2247 11.4759L28.537 12.9921C28.2421 13.6419 27.3212 13.6443 27.0239 12.9947L26.4109 11.6553L24.7512 10.7717C24.1516 10.4524 24.1649 9.58485 24.7768 9.28591C24.7768 9.28593 24.7769 9.28589 24.7768 9.28591L26.2379 8.57197L27.0084 7.04486ZM29.2816 11.3503C29.2814 11.3508 29.2812 11.3512 29.281 11.3517L29.2816 11.3503ZM27.7025 8.33315L28.0004 9.11938C28.0394 9.22264 28.0989 9.31796 28.1748 9.39812M27.7025 8.33315L27.254 9.22202C27.1723 9.38412 27.0396 9.51566 26.8765 9.59552L25.9478 10.0493L27.0855 10.655C27.2462 10.7409 27.3743 10.8771 27.4503 11.0428L27.7784 11.7596L28.1875 10.8574C28.1874 10.8577 28.1877 10.8572 28.1875 10.8574C28.2699 10.6751 28.4156 10.5277 28.5973 10.4438L29.4728 10.0398L28.4444 9.58793C28.3431 9.54326 28.2509 9.47852 28.1748 9.39812" fill="#000000"/>
<path d="M11.6297 18.589L12.6424 19.0334C12.7474 19.0795 12.7487 19.2292 12.6446 19.2771L11.723 19.702C11.694 19.7154 11.6708 19.7388 11.6577 19.7679L11.2326 20.7043C11.1855 20.808 11.0393 20.8083 10.9919 20.7047L10.6121 19.8757C10.5999 19.8492 10.5794 19.8275 10.5537 19.8137L9.54255 19.2759C9.44655 19.2249 9.44892 19.0855 9.54661 19.0379L10.4451 18.5993C10.4712 18.5865 10.4923 18.5656 10.5054 18.5397L10.9774 17.6051C11.0295 17.502 11.1781 17.51 11.2191 17.618L11.5589 18.5142C11.5652 18.5308 11.5746 18.5459 11.5868 18.5587C11.599 18.5715 11.6136 18.5818 11.6297 18.589Z" stroke="#000000" stroke-width="1.2" stroke-linecap="round" stroke-linejoin="round"/>
<path fill-rule="evenodd" clip-rule="evenodd" d="M22.0657 13.4072C20.0119 13.4072 18.3469 15.0722 18.3469 17.126C18.3469 19.1798 20.0119 20.8447 22.0657 20.8447C24.1195 20.8447 25.7844 19.1798 25.7844 17.126C25.7844 15.0722 24.1195 13.4072 22.0657 13.4072ZM16.8469 17.126C16.8469 14.2437 19.1834 11.9072 22.0657 11.9072C24.9479 11.9072 27.2844 14.2437 27.2844 17.126C27.2844 20.0082 24.9479 22.3447 22.0657 22.3447C19.1834 22.3447 16.8469 20.0082 16.8469 17.126Z" fill="#007BFE"/>
<path fill-rule="evenodd" clip-rule="evenodd" d="M16.7388 10.6723C15.0618 10.6486 13.6831 11.9889 13.6594 13.666C13.6426 14.8571 14.3137 15.8991 15.3084 16.4111C15.4164 16.4667 15.5282 16.516 15.6432 16.5585C16.0318 16.702 16.2304 17.1333 16.0869 17.5219C15.9433 17.9104 15.512 18.1091 15.1235 17.9655C14.951 17.9018 14.7836 17.828 14.6219 17.7448C13.1405 16.9823 12.1344 15.427 12.1596 13.6448C12.1949 11.1394 14.2546 9.13708 16.76 9.17247C17.9214 9.18887 18.9762 9.64126 19.7681 10.3705C20.0728 10.651 20.0924 11.1255 19.8118 11.4302C19.5312 11.7349 19.0568 11.7545 18.7521 11.4739C18.2211 10.9851 17.517 10.6833 16.7388 10.6723Z" fill="#007BFE"/>
</svg>
