<svg width="40" height="40" viewBox="0 0 40 40" fill="none" xmlns="http://www.w3.org/2000/svg">
<path fill-rule="evenodd" clip-rule="evenodd" d="M26.8294 12.2318C27.1369 12.5093 27.1612 12.9835 26.8837 13.2911L20.1576 20.7444C19.8801 21.0519 19.4058 21.0762 19.0983 20.7987C18.7908 20.5212 18.7665 20.0469 19.044 19.7394L25.7701 12.2861C26.0476 11.9786 26.5219 11.9543 26.8294 12.2318ZM17.4436 22.6323C17.7511 22.9098 17.7754 23.3841 17.4979 23.6916L9.8068 32.2141C9.52929 32.5216 9.05504 32.546 8.74753 32.2685C8.44002 31.9909 8.4157 31.5167 8.69321 31.2092L16.3843 22.6866C16.6618 22.3791 17.1361 22.3548 17.4436 22.6323Z" fill="#000000"/>
<path fill-rule="evenodd" clip-rule="evenodd" d="M9.04632 12.4422C9.17546 12.1942 9.43189 12.0386 9.71155 12.0386H13.8463C14.3923 12.0386 14.9039 12.3049 15.217 12.7522L27.8644 30.82C28.0248 31.0491 28.0444 31.3484 27.9152 31.5965C27.7861 31.8445 27.5297 32.0001 27.25 32.0001H23.1152C22.5693 32.0001 22.0577 31.7337 21.7446 31.2865L9.09713 13.2187C8.93675 12.9896 8.91717 12.6903 9.04632 12.4422ZM11.152 13.5386L22.9734 30.4263C23.0058 30.4726 23.0588 30.5001 23.1152 30.5001H25.8095L13.9881 13.6124C13.9557 13.5661 13.9028 13.5386 13.8463 13.5386H11.152Z" fill="#000000"/>
<path fill-rule="evenodd" clip-rule="evenodd" d="M32.8562 7.99562V8.41014C32.8562 8.68037 32.6599 8.91057 32.393 8.95324C31.3213 9.1246 30.3458 9.67231 29.6415 10.4981C29.0816 11.1545 28.7223 11.9526 28.5985 12.7975L28.6128 12.7778L28.6136 12.7768C29.4769 11.5931 30.7717 10.7972 32.2176 10.5612C32.3768 10.5352 32.5395 10.5805 32.6624 10.685C32.7853 10.7895 32.8562 10.9427 32.8562 11.104V11.3867L34.4168 9.69114L32.8562 7.99562ZM32.209 6.53643C32.345 6.4684 32.4974 6.4396 32.6489 6.45326C32.8004 6.46692 32.9451 6.5225 33.0668 6.61378C33.0937 6.63395 33.1187 6.65655 33.1414 6.68129L35.346 9.07631C35.425 9.14591 35.4901 9.23025 35.5374 9.32482C35.5942 9.43856 35.6238 9.56398 35.6238 9.69114C35.6238 9.81831 35.5942 9.94373 35.5374 10.0575C35.4901 10.152 35.425 10.2364 35.346 10.306L33.1414 12.701C33.1187 12.7257 33.0937 12.7483 33.0668 12.7685C32.9451 12.8598 32.8004 12.9154 32.6489 12.929C32.4973 12.9427 32.345 12.9139 32.209 12.8459C32.0729 12.7778 31.9585 12.6733 31.8785 12.5439C31.7985 12.4145 31.7562 12.2653 31.7562 12.1132V11.7999C30.8569 12.0867 30.0655 12.653 29.5026 13.4245C29.5025 13.4247 29.5027 13.4244 29.5026 13.4245L28.9324 14.2098L28.9315 14.2112C28.8552 14.3156 28.7553 14.4004 28.64 14.4588C28.5365 14.5112 28.4232 14.5409 28.3076 14.5462C28.2418 14.5524 28.1754 14.5509 28.1098 14.5418C28.078 14.5373 28.0467 14.5301 28.0161 14.5202C27.8451 14.4646 27.697 14.3543 27.5949 14.2063C27.496 14.0629 27.4454 13.8919 27.4503 13.7181V13.4588C27.4504 12.1119 27.9306 10.8091 28.8046 9.78426C29.576 8.87976 30.6097 8.24407 31.7562 7.96106V7.26907C31.7562 7.11695 31.7985 6.96784 31.8785 6.83843C31.9585 6.70903 32.0729 6.60446 32.209 6.53643Z" fill="#007BFE"/>
</svg>
