<svg width="40" height="40" viewBox="0 0 40 40" fill="none" xmlns="http://www.w3.org/2000/svg">
<path fill-rule="evenodd" clip-rule="evenodd" d="M26.8294 12.2318C27.1369 12.5093 27.1612 12.9835 26.8837 13.2911L20.1576 20.7444C19.8801 21.0519 19.4058 21.0762 19.0983 20.7987C18.7908 20.5212 18.7665 20.0469 19.044 19.7394L25.7701 12.2861C26.0476 11.9786 26.5219 11.9543 26.8294 12.2318ZM17.4436 22.6323C17.7511 22.9098 17.7754 23.3841 17.4979 23.6916L9.8068 32.2141C9.52929 32.5216 9.05504 32.546 8.74753 32.2685C8.44002 31.9909 8.4157 31.5167 8.69321 31.2092L16.3843 22.6866C16.6618 22.3791 17.1361 22.3548 17.4436 22.6323Z" fill="#000000"/>
<path fill-rule="evenodd" clip-rule="evenodd" d="M9.04632 12.4422C9.17546 12.1942 9.43189 12.0386 9.71155 12.0386H13.8463C14.3923 12.0386 14.9039 12.3049 15.217 12.7522L27.8644 30.82C28.0248 31.0491 28.0444 31.3484 27.9152 31.5965C27.7861 31.8445 27.5297 32.0001 27.25 32.0001H23.1152C22.5693 32.0001 22.0577 31.7337 21.7446 31.2865L9.09713 13.2187C8.93675 12.9896 8.91717 12.6903 9.04632 12.4422ZM11.152 13.5386L22.9734 30.4263C23.0058 30.4726 23.0588 30.5001 23.1152 30.5001H25.8095L13.9881 13.6124C13.9557 13.5661 13.9028 13.5386 13.8463 13.5386H11.152Z" fill="#000000"/>
<path fill-rule="evenodd" clip-rule="evenodd" d="M28.1426 9.75C27.7284 9.75 27.3926 9.41421 27.3926 9C27.3926 8.58579 27.7284 8.25 28.1426 8.25L30.25 8.25L30.25 6.14253C30.25 5.72831 30.5858 5.39253 31 5.39253C31.4143 5.39253 31.75 5.72831 31.75 6.14253V8.25H33.8575C34.2717 8.25 34.6075 8.58579 34.6075 9C34.6075 9.41421 34.2717 9.75 33.8575 9.75L31.75 9.75L31.75 11.8575C31.75 12.2717 31.4143 12.6075 31 12.6075C30.5858 12.6075 30.25 12.2717 30.25 11.8575L30.25 9.75L28.1426 9.75Z" fill="#007BFE"/>
</svg>
