<svg width="40" height="40" viewBox="0 0 40 40" fill="none" xmlns="http://www.w3.org/2000/svg">
<path fill-rule="evenodd" clip-rule="evenodd" d="M29.9192 8.57661C29.4774 8.57661 29.1192 8.21844 29.1192 7.77661C29.1192 7.33478 29.4774 6.97661 29.9192 6.97661H31.9767V4.91914C31.9767 4.47731 32.3349 4.11914 32.7767 4.11914C33.2185 4.11914 33.5767 4.47731 33.5767 4.91914V6.97661L35.6341 6.97661C36.076 6.97661 36.4341 7.33478 36.4341 7.77661C36.4341 8.21844 36.076 8.57661 35.6341 8.57661H33.5767L33.5767 10.6341C33.5767 11.0759 33.2185 11.4341 32.7767 11.4341C32.3349 11.4341 31.9767 11.0759 31.9767 10.6341V8.57661L29.9192 8.57661Z" fill="#007BFE"/>
<path fill-rule="evenodd" clip-rule="evenodd" d="M33 20.4401C33 20.4401 33 16.3665 32.4782 14.4161C32.3359 13.8861 32.0569 13.4027 31.6691 13.0144C31.2813 12.6261 30.7983 12.3465 30.2684 12.2035C28.3181 11.679 20.5 11.679 20.5 11.679C20.5 11.679 12.6819 11.679 10.7316 12.2007C10.2015 12.3432 9.71826 12.6227 9.33037 13.0111C8.94249 13.3995 8.66361 13.8831 8.52176 14.4133C8 16.3665 8 20.4401 8 20.4401C8 20.4401 8 24.5138 8.52176 26.4641C8.80915 27.5411 9.65737 28.3893 10.7316 28.6767C12.6819 29.2013 20.5 29.2013 20.5 29.2013C20.5 29.2013 28.3181 29.2013 30.2684 28.6767C31.3454 28.3893 32.1908 27.5411 32.4782 26.4641C33 24.5138 33 20.4401 33 20.4401ZM20.5 27.7013L20.5849 27.7012C20.6415 27.701 20.7252 27.7008 20.8327 27.7003C21.0477 27.6993 21.3576 27.6972 21.7359 27.6932C22.4932 27.685 23.5213 27.6688 24.6081 27.6364C25.6973 27.6039 26.8333 27.5555 27.8097 27.484C28.8285 27.4094 29.5476 27.3173 29.8788 27.2282L29.8817 27.2274C30.4378 27.079 30.8795 26.6376 31.0289 26.0774C31.2443 25.2725 31.3713 23.9108 31.4368 22.6433C31.4684 22.0321 31.4842 21.4784 31.4921 21.0775C31.4961 20.8773 31.4981 20.7161 31.499 20.6057C31.4995 20.5505 31.4998 20.5082 31.4999 20.48L31.5 20.4488L31.5 20.4403L31.5 20.4314L31.4999 20.4002C31.4998 20.3721 31.4995 20.3297 31.499 20.2745C31.4981 20.1642 31.4961 20.0029 31.4921 19.8028C31.4842 19.4018 31.4684 18.8482 31.4368 18.2369C31.3713 16.9698 31.2446 15.6095 31.0294 14.8045C30.9552 14.5285 30.8098 14.2767 30.6077 14.0744C30.4057 13.8721 30.1541 13.7264 29.8781 13.6518C29.5466 13.5628 28.8278 13.4708 27.8097 13.3962C26.8333 13.3247 25.6973 13.2763 24.6081 13.2439C23.5213 13.2114 22.4932 13.1952 21.7359 13.1871C21.3576 13.183 21.0477 13.181 20.8327 13.18C20.7252 13.1795 20.6415 13.1792 20.5849 13.1791L20.415 13.1791C20.3585 13.1792 20.2748 13.1795 20.1673 13.18C19.9523 13.181 19.6423 13.183 19.264 13.187C18.5067 13.1951 17.4785 13.2113 16.3917 13.2435C15.3024 13.2758 14.1663 13.324 13.1897 13.3951C12.1719 13.4693 11.4525 13.5608 11.1202 13.6495C10.8446 13.7238 10.5934 13.8691 10.3917 14.0711C10.1899 14.2731 10.0448 14.5247 9.97094 14.8005M20.5 27.7013L20.4151 27.7012C20.3585 27.701 20.2748 27.7008 20.1673 27.7003C19.9523 27.6993 19.6424 27.6972 19.2641 27.6932C18.5068 27.685 17.4787 27.6688 16.3919 27.6364C15.3027 27.6039 14.1667 27.5555 13.1903 27.484C12.1715 27.4094 11.4524 27.3173 11.1212 27.2282L11.1192 27.2277C10.5638 27.0791 10.1202 26.6362 9.97105 26.0774C9.75573 25.2725 9.62871 23.9108 9.56322 22.6433C9.53164 22.0321 9.51579 21.4784 9.50786 21.0775C9.5039 20.8773 9.50194 20.7161 9.50096 20.6057C9.50047 20.5505 9.50023 20.5082 9.50011 20.48L9.50001 20.4488V20.4314L9.50011 20.4002C9.50023 20.3721 9.50047 20.3297 9.50096 20.2745C9.50194 20.1642 9.5039 20.0029 9.50786 19.8027C9.51579 19.4017 9.53164 18.848 9.56322 18.2365C9.62869 16.9691 9.75556 15.6071 9.97094 14.8005" fill="#000000"/>
<path fill-rule="evenodd" clip-rule="evenodd" d="M18.1683 16.2377C18.3992 16.1034 18.6841 16.102 18.9163 16.2341L25.189 19.8027C25.4233 19.936 25.5681 20.1849 25.5681 20.4546C25.5681 20.7243 25.4233 20.9732 25.189 21.1065L18.9163 24.6749C18.6841 24.807 18.3992 24.8056 18.1683 24.6714C17.9375 24.5371 17.7954 24.2901 17.7954 24.023V16.886C17.7954 16.6189 17.9375 16.3719 18.1683 16.2377ZM19.2954 18.1755V22.7335L23.3014 20.4546L19.2954 18.1755Z" fill="#000000"/>
</svg>
